<svg width="34" height="35" viewBox="0 0 34 35" fill="none" xmlns="http://www.w3.org/2000/svg">
<g clip-path="url(#clip0_379_5577)">
<path d="M16.9969 0.827148C12.4803 0.827148 11.9124 0.847953 10.1378 0.927009C8.36316 1.01023 7.15444 1.289 6.0955 1.70093C4.98474 2.11872 3.97864 2.77407 3.14753 3.62116C2.30095 4.4527 1.64568 5.45868 1.2273 6.56913C0.815371 7.62599 0.534513 8.8368 0.453376 10.6052C0.37432 12.3839 0.353516 12.9498 0.353516 17.4727C0.353516 21.9913 0.37432 22.5572 0.453376 24.3318C0.536593 26.1043 0.815371 27.3131 1.2273 28.372C1.65378 29.4663 2.22174 30.3942 3.14753 31.32C4.07124 32.2458 4.99911 32.8158 6.09342 33.2402C7.15444 33.6521 8.36108 33.933 10.1336 34.0141C11.9103 34.0932 12.4762 34.114 16.9969 34.114C21.5177 34.114 22.0815 34.0932 23.8582 34.0141C25.6286 33.9309 26.8415 33.6521 27.9005 33.2402C29.0105 32.8222 30.0159 32.1669 30.8463 31.32C31.7721 30.3942 32.3401 29.4663 32.7666 28.372C33.1764 27.3131 33.4573 26.1043 33.5405 24.3318C33.6196 22.5572 33.6404 21.9913 33.6404 17.4706C33.6404 12.9498 33.6196 12.3839 33.5405 10.6072C33.4573 8.8368 33.1764 7.62599 32.7666 6.56913C32.3483 5.45865 31.693 4.45266 30.8463 3.62116C30.0155 2.77375 29.0093 2.11836 27.8984 1.70093C26.8374 1.289 25.6266 1.00815 23.8561 0.927009C22.0794 0.847953 21.5156 0.827148 16.9928 0.827148H16.999H16.9969ZM15.5053 3.82713H16.999C21.4428 3.82713 21.9692 3.84169 23.723 3.92283C25.3457 3.99564 26.2278 4.26818 26.8145 4.49494C27.5905 4.79661 28.146 5.1586 28.7285 5.74112C29.311 6.32364 29.6709 6.87703 29.9726 7.65511C30.2014 8.23971 30.4719 9.12182 30.5447 10.7445C30.6258 12.4984 30.6425 13.0247 30.6425 17.4664C30.6425 21.9081 30.6258 22.4366 30.5447 24.1904C30.4719 25.8131 30.1993 26.6931 29.9726 27.2798C29.7057 28.0024 29.2798 28.6559 28.7264 29.1917C28.1439 29.7742 27.5905 30.1341 26.8124 30.4358C26.2299 30.6646 25.3478 30.9351 23.723 31.01C21.9692 31.0891 21.4428 31.1078 16.999 31.1078C12.5552 31.1078 12.0268 31.0891 10.273 31.01C8.65026 30.9351 7.77024 30.6646 7.18356 30.4358C6.46061 30.1693 5.80658 29.7442 5.26957 29.1917C4.71565 28.655 4.28911 28.001 4.02131 27.2777C3.79454 26.6931 3.52201 25.811 3.44919 24.1883C3.37014 22.4345 3.35349 21.9081 3.35349 17.4623C3.35349 13.0185 3.37014 12.4942 3.44919 10.7404C3.52409 9.11765 3.79454 8.23555 4.02339 7.64887C4.32505 6.87287 4.68705 6.3174 5.26957 5.73488C5.85209 5.15236 6.40548 4.79244 7.18356 4.49078C7.77024 4.26194 8.65026 3.99148 10.273 3.91658C11.8084 3.84585 12.4034 3.82505 15.5053 3.82297V3.82713ZM25.8824 6.58993C25.6202 6.58993 25.3605 6.64159 25.1181 6.74196C24.8758 6.84233 24.6557 6.98945 24.4702 7.1749C24.2847 7.36036 24.1376 7.58053 24.0373 7.82285C23.9369 8.06516 23.8852 8.32487 23.8852 8.58715C23.8852 8.84942 23.9369 9.10913 24.0373 9.35144C24.1376 9.59376 24.2847 9.81393 24.4702 9.99939C24.6557 10.1848 24.8758 10.332 25.1181 10.4323C25.3605 10.5327 25.6202 10.5844 25.8824 10.5844C26.4121 10.5844 26.9201 10.3739 27.2947 9.99939C27.6692 9.62484 27.8797 9.11684 27.8797 8.58715C27.8797 8.05745 27.6692 7.54945 27.2947 7.1749C26.9201 6.80035 26.4121 6.58993 25.8824 6.58993ZM16.999 8.92417C15.8653 8.90649 14.7395 9.1145 13.6869 9.53611C12.6344 9.95772 11.6763 10.5845 10.8683 11.38C10.0603 12.1754 9.4187 13.1237 8.98072 14.1695C8.54274 15.2153 8.31719 16.3378 8.31719 17.4716C8.31719 18.6054 8.54274 19.7279 8.98072 20.7738C9.4187 21.8196 10.0603 22.7678 10.8683 23.5633C11.6763 24.3587 12.6344 24.9855 13.6869 25.4071C14.7395 25.8287 15.8653 26.0367 16.999 26.0191C19.2428 25.984 21.3829 25.0681 22.9573 23.469C24.5317 21.8698 25.4141 19.7157 25.4141 17.4716C25.4141 15.2275 24.5317 13.0734 22.9573 11.4743C21.3829 9.87511 19.2428 8.95918 16.999 8.92417ZM16.999 11.9221C18.4706 11.9221 19.8819 12.5066 20.9224 13.5472C21.963 14.5877 22.5475 15.999 22.5475 17.4706C22.5475 18.9421 21.963 20.3534 20.9224 21.394C19.8819 22.4345 18.4706 23.0191 16.999 23.0191C15.5275 23.0191 14.1162 22.4345 13.0756 21.394C12.0351 20.3534 11.4505 18.9421 11.4505 17.4706C11.4505 15.999 12.0351 14.5877 13.0756 13.5472C14.1162 12.5066 15.5275 11.9221 16.999 11.9221Z" fill="#EDE3DD"/>
</g>
<defs>
<clipPath id="clip0_379_5577">
<rect width="33.2868" height="33.2868" fill="white" transform="translate(0.353516 0.827148)"/>
</clipPath>
</defs>
</svg>
