<svg width="36" height="36" viewBox="0 0 36 36" fill="none" xmlns="http://www.w3.org/2000/svg">
<path d="M10.4683 8.24924C10.4579 9.01112 10.1452 9.73767 9.59909 10.269C9.05298 10.8004 8.31816 11.0931 7.55627 11.0826C6.79438 11.0722 6.06784 10.7595 5.53647 10.2134C5.00511 9.66732 4.71245 8.93249 4.72288 8.1706C4.73331 7.40871 5.04597 6.68217 5.59208 6.15081C6.13819 5.61945 6.87301 5.32679 7.6349 5.33722C8.39679 5.34764 9.12333 5.6603 9.65469 6.20641C10.1861 6.75252 10.4787 7.48735 10.4683 8.24924ZM10.4886 13.2489L4.74311 13.1731L4.50598 31.1564L10.2514 31.2322L10.4886 13.2489ZM19.5664 13.3686L13.8496 13.2932L13.6125 31.2765L19.2718 31.3511L19.3962 21.9142C19.4655 16.6571 26.3234 16.2591 26.2477 22.0045L26.1232 31.4414L31.7968 31.5163L31.947 20.1259C32.0639 11.2636 21.9188 11.4602 19.4771 15.7809L19.5664 13.3686Z" fill="#EDE3DD"/>
</svg>
