<svg width="37" height="36" viewBox="0 0 37 36" fill="none" xmlns="http://www.w3.org/2000/svg">
<g clip-path="url(#clip0_379_5580)">
<path d="M20.4852 18.1078C20.4852 23.6469 15.9825 28.1384 10.4255 28.1384C9.10655 28.1402 7.80012 27.8821 6.58085 27.379C5.36158 26.8759 4.25336 26.1375 3.31944 25.2061C2.38553 24.2746 1.64422 23.1684 1.13783 21.9505C0.631454 20.7325 0.369919 19.4268 0.368164 18.1078C0.368164 12.5664 4.8708 8.07716 10.4255 8.07716C11.7447 8.07511 13.0514 8.33295 14.2709 8.83595C15.4905 9.33896 16.5989 10.0773 17.5331 11.0087C18.4672 11.9402 19.2088 13.0466 19.7153 14.2646C20.2218 15.4827 20.4834 16.7886 20.4852 18.1078ZM31.5189 18.1078C31.5189 23.3237 29.2675 27.55 26.4902 27.55C23.7128 27.55 21.4615 23.3215 21.4615 18.1078C21.4615 12.8919 23.7128 8.66562 26.4902 8.66562C29.2675 8.66562 31.5189 12.8941 31.5189 18.1078ZM36.0326 18.1078C36.0326 22.7798 35.2413 26.567 34.2628 26.567C33.2865 26.567 32.4952 22.7776 32.4952 18.1078C32.4952 13.4357 33.2865 9.64863 34.265 9.64863C35.2413 9.64863 36.0326 13.4357 36.0326 18.1078Z" fill="#EDE3DD"/>
</g>
<defs>
<clipPath id="clip0_379_5580">
<rect width="35.6645" height="35.6645" fill="white" transform="translate(0.368164 0.276367)"/>
</clipPath>
</defs>
</svg>
