<svg width="37" height="36" viewBox="0 0 37 36" fill="none" xmlns="http://www.w3.org/2000/svg">
<path d="M33.9469 9.01794C32.8027 9.53805 31.5693 9.87983 30.2913 10.0433C31.599 9.2557 32.6095 8.00744 33.085 6.50656C31.8516 7.24957 30.4845 7.76968 29.043 8.06689C27.8691 6.78891 26.2196 6.0459 24.3472 6.0459C20.8551 6.0459 18.0019 8.89906 18.0019 12.4209C18.0019 12.9262 18.0614 13.4166 18.1654 13.8772C12.8752 13.6097 8.16447 11.0686 5.02896 7.21985C4.47914 8.15605 4.16707 9.2557 4.16707 10.4148C4.16707 12.629 5.28159 14.5905 7.00537 15.705C5.9503 15.705 4.96952 15.4078 4.10763 14.962V15.0066C4.10763 18.0975 6.30694 20.6832 9.21954 21.2627C8.28443 21.5187 7.30272 21.5543 6.35152 21.3668C6.75514 22.6336 7.54559 23.742 8.61178 24.5363C9.67797 25.3307 10.9663 25.7709 12.2956 25.7951C10.0422 27.579 7.24907 28.5432 4.37512 28.5294C3.86987 28.5294 3.36462 28.4997 2.85938 28.4402C5.68281 30.2532 9.04122 31.3082 12.6374 31.3082C24.3472 31.3082 30.7817 21.5897 30.7817 13.1639C30.7817 12.8816 30.7817 12.6141 30.7668 12.3318C32.0151 11.4402 33.085 10.3108 33.9469 9.01794Z" fill="#EDE3DD"/>
</svg>
