<svg width="39" height="39" viewBox="0 0 39 39" fill="none" xmlns="http://www.w3.org/2000/svg">
<path d="M19.9906 6.89062C20.837 6.89538 22.9547 6.91599 25.2055 7.00634L26.0044 7.04121C28.2695 7.14741 30.533 7.33128 31.6568 7.64354C33.1547 8.06518 34.3309 9.29203 34.7287 10.8486C35.3628 13.3213 35.442 18.1432 35.4515 19.3114L35.4531 19.5523V19.8281C35.442 20.9963 35.3628 25.8197 34.7287 28.2909C34.3261 29.8522 33.1484 31.0807 31.6568 31.4959C30.533 31.8082 28.2695 31.9921 26.0044 32.0983L25.2055 32.1347C22.9547 32.2235 20.837 32.2457 19.9906 32.2489L19.6181 32.2504H19.2139C17.4227 32.2394 9.9316 32.1585 7.54763 31.4959C6.05131 31.0743 4.87359 29.8475 4.47573 28.2909C3.84169 25.8182 3.76244 20.9963 3.75293 19.8281V19.3114C3.76244 18.1432 3.84169 13.3197 4.47573 10.8486C4.87834 9.28728 6.05606 8.05883 7.54922 7.64513C9.9316 6.98097 17.4243 6.90014 19.2155 6.89062H19.9906ZM16.432 14.0235V25.1191L25.9426 19.5713L16.432 14.0235Z" fill="#EDE3DD"/>
</svg>
