<svg width="62" height="54" viewBox="0 0 62 54" fill="none" xmlns="http://www.w3.org/2000/svg">
<path d="M5.49463 24.3525H59.2545C59.9674 24.3525 60.6511 24.6357 61.1552 25.1398C61.6593 25.6439 61.9425 26.3276 61.9425 27.0405C61.9425 27.7534 61.6593 28.4371 61.1552 28.9412C60.6511 29.4453 59.9674 29.7285 59.2545 29.7285H5.49463C4.78173 29.7285 4.09803 29.4453 3.59394 28.9412C3.08984 28.4371 2.80664 27.7534 2.80664 27.0405C2.80664 26.3276 3.08984 25.6439 3.59394 25.1398C4.09803 24.6357 4.78173 24.3525 5.49463 24.3525Z" fill="black"/>
<path d="M6.6069 27.0406L28.9011 49.3295C29.4059 49.8343 29.6894 50.5188 29.6894 51.2326C29.6894 51.9464 29.4059 52.631 28.9011 53.1357C28.3964 53.6405 27.7118 53.924 26.998 53.924C26.2842 53.924 25.5997 53.6405 25.0949 53.1357L0.90298 28.9437C0.652657 28.694 0.454053 28.3974 0.318543 28.0708C0.183034 27.7443 0.113281 27.3942 0.113281 27.0406C0.113281 26.6871 0.183034 26.337 0.318543 26.0104C0.454053 25.6838 0.652657 25.3872 0.90298 25.1375L25.0949 0.945517C25.5997 0.440783 26.2842 0.157227 26.998 0.157227C27.7118 0.157227 28.3964 0.440783 28.9011 0.945517C29.4059 1.45025 29.6894 2.13482 29.6894 2.84862C29.6894 3.56242 29.4059 4.24699 28.9011 4.75173L6.6069 27.0406Z" fill="black"/>
</svg>
