<svg width="41" height="32" viewBox="0 0 41 32" fill="none" xmlns="http://www.w3.org/2000/svg">
<path d="M22.6897 1.41115C23.2233 0.889019 23.9469 0.595703 24.7015 0.595703C25.456 0.595703 26.1796 0.889019 26.7132 1.41115L39.518 13.9442C40.0515 14.4665 40.3511 15.1748 40.3511 15.9133C40.3511 16.6518 40.0515 17.3601 39.518 17.8824L26.7132 30.4154C26.1766 30.9227 25.4578 31.2035 24.7117 31.1971C23.9656 31.1908 23.2519 30.8979 22.7244 30.3815C22.1968 29.8651 21.8975 29.1666 21.891 28.4363C21.8845 27.7061 22.1714 27.0025 22.6897 26.4772L30.3925 18.6984H3.36016C2.60548 18.6984 1.88171 18.405 1.34808 17.8827C0.814442 17.3603 0.514648 16.6519 0.514648 15.9133C0.514648 15.1746 0.814442 14.4662 1.34808 13.9439C1.88171 13.4216 2.60548 13.1282 3.36016 13.1282H30.3925L22.6897 5.34931C22.1562 4.82702 21.8566 4.11874 21.8566 3.38023C21.8566 2.64172 22.1562 1.93344 22.6897 1.41115Z" fill="black"/>
</svg>