<svg width="77" height="68" viewBox="0 0 77 68" fill="none" xmlns="http://www.w3.org/2000/svg">
<path d="M67.6739 55.1102C70.1199 56.3083 72.1417 57.9931 73.7391 60.1646C75.3366 62.3361 76.3475 64.7822 76.7718 67.5028H72.6534C72.3788 66.0801 71.8671 64.7572 71.1183 63.5342C70.3695 62.3111 69.4585 61.2628 68.3852 60.3892C67.3119 59.5156 66.1014 58.8168 64.7535 58.2926C63.4057 57.7684 62.0079 57.5188 60.5603 57.5438C59.0876 57.5438 57.6899 57.7934 56.367 58.2926C55.0441 58.7918 53.8335 59.4782 52.7353 60.3518C51.6371 61.2254 50.726 62.2862 50.0022 63.5342C49.2783 64.7822 48.7667 66.1051 48.4671 67.5028H44.3487C44.7481 64.8072 45.7465 62.3736 47.3439 60.202C48.9414 58.0305 50.9756 56.3332 53.4467 55.1102C52.0239 53.987 50.9257 52.6267 50.1519 51.0292C49.3782 49.4318 48.9788 47.7345 48.9539 45.9374C48.9539 44.8142 49.1036 43.7284 49.4031 42.6801C49.7027 41.6318 50.1519 40.6459 50.751 39.7224C51.35 38.7988 52.0614 37.9752 52.8851 37.2513C53.7087 36.5275 54.6323 35.916 55.6556 35.4167C54.9817 34.4433 54.2079 33.5822 53.3343 32.8334C52.4607 32.0846 51.5123 31.4232 50.4889 30.8491C49.4655 30.275 48.3923 29.8632 47.2691 29.6136C46.1459 29.364 44.9852 29.2142 43.7871 29.1643C41.7903 29.1643 39.8809 29.5512 38.0588 30.3249C36.2367 31.0987 34.6518 32.2344 33.3039 33.7319C33.903 35.3544 34.2025 37.0267 34.2025 38.7489C34.2025 41.0452 33.6908 43.2043 32.6675 45.226C31.6441 47.2478 30.2089 48.9451 28.3619 50.3179C29.9843 51.1415 31.4444 52.1524 32.7423 53.3505C34.0403 54.5486 35.1635 55.8964 36.1119 57.394C37.0604 58.8916 37.7718 60.4891 38.246 62.1863C38.7203 63.8836 38.9699 65.6558 38.9948 67.5028H34.2025C34.2025 65.531 33.8281 63.6715 33.0793 61.9243C32.3305 60.1771 31.3071 58.6545 30.0092 57.3566C28.7113 56.0587 27.1763 55.0228 25.4041 54.2491C23.6319 53.4753 21.7724 53.1009 19.8255 53.1259C17.8287 53.1259 15.9692 53.5003 14.247 54.2491C12.5247 54.9979 11.0022 56.0212 9.67929 57.3191C8.35641 58.6171 7.32057 60.1521 6.57177 61.9243C5.82297 63.6964 5.44857 65.5559 5.44857 67.5028H0.65625C0.65625 65.6807 0.90585 63.9211 1.40505 62.2238C1.90425 60.5265 2.61561 58.9291 3.53913 57.4315C4.46265 55.9339 5.57337 54.586 6.87129 53.388C8.16921 52.1899 9.64185 51.1665 11.2892 50.3179C9.44217 48.9451 8.00697 47.2478 6.98361 45.226C5.96025 43.2043 5.44857 41.0452 5.44857 38.7489C5.44857 36.7771 5.82297 34.9175 6.57177 33.1703C7.32057 31.4231 8.34393 29.9006 9.64185 28.6027C10.9398 27.3047 12.4623 26.2689 14.2095 25.4951C15.9567 24.7214 17.8287 24.347 19.8255 24.372C21.9471 24.372 23.9564 24.8212 25.8534 25.7198C27.7503 26.6184 29.3977 27.8663 30.7955 29.4638C31.4444 28.8398 32.1433 28.2782 32.8921 27.779C33.6409 27.2798 34.4271 26.8055 35.2508 26.3563C33.4038 24.9835 31.9686 23.2862 30.9452 21.2644C29.9219 19.2427 29.4102 17.0836 29.4102 14.7873C29.4102 12.8155 29.7846 10.9559 30.5334 9.20875C31.2822 7.46155 32.3055 5.93899 33.6035 4.64107C34.9014 3.34315 36.4239 2.30731 38.1711 1.53355C39.9183 0.75979 41.7903 0.38539 43.7871 0.41035C45.759 0.41035 47.6185 0.78475 49.3657 1.53355C51.1129 2.28235 52.6355 3.30571 53.9334 4.60363C55.2313 5.90155 56.2671 7.43659 57.0409 9.20875C57.8147 10.9809 58.1891 12.8404 58.1641 14.7873C58.1641 17.0836 57.6524 19.2427 56.6291 21.2644C55.6057 23.2862 54.1705 24.9835 52.3235 26.3563C54.0707 27.2798 55.6431 28.403 57.0409 29.7259C58.4387 31.0487 59.6243 32.5838 60.5977 34.331C62.1951 34.331 63.6927 34.6305 65.0905 35.2295C66.4883 35.8286 67.7238 36.6647 68.7971 37.738C69.8703 38.8113 70.694 40.0344 71.2681 41.4072C71.8422 42.7799 72.1417 44.29 72.1667 45.9374C72.1667 47.7345 71.7798 49.4318 71.006 51.0292C70.2323 52.6267 69.1215 53.987 67.6739 55.1102ZM19.8255 48.3335C21.1484 48.3335 22.3839 48.084 23.5321 47.5847C24.6803 47.0855 25.7036 46.3992 26.6022 45.5256C27.5007 44.652 28.1871 43.6411 28.6614 42.4929C29.1356 41.3447 29.3852 40.0967 29.4102 38.7489C29.4102 37.426 29.1606 36.1905 28.6614 35.0424C28.1622 33.8942 27.4758 32.8708 26.6022 31.9723C25.7286 31.0737 24.7177 30.3873 23.5695 29.9131C22.4214 29.4388 21.1734 29.1892 19.8255 29.1643C18.5027 29.1643 17.2671 29.4139 16.119 29.9131C14.9708 30.4123 13.9475 31.0987 13.0489 31.9723C12.1503 32.8459 11.4639 33.8568 10.9897 35.0049C10.5155 36.1531 10.2659 37.4011 10.2409 38.7489C10.2409 40.0718 10.4905 41.3073 10.9897 42.4555C11.4889 43.6036 12.1753 44.627 13.0489 45.5256C13.9225 46.4241 14.9334 47.1105 16.0815 47.5847C17.2297 48.059 18.4777 48.3086 19.8255 48.3335ZM34.2025 14.7873C34.2025 16.1102 34.4521 17.3457 34.9513 18.4939C35.4505 19.642 36.1369 20.6654 37.0105 21.5639C37.8841 22.4625 38.895 23.1489 40.0431 23.6231C41.1913 24.0974 42.4393 24.347 43.7871 24.372C45.11 24.372 46.3455 24.1224 47.4937 23.6231C48.6419 23.124 49.6652 22.4375 50.5638 21.5639C51.4623 20.6903 52.1487 19.6795 52.623 18.5313C53.0972 17.3832 53.3468 16.1351 53.3718 14.7873C53.3718 13.4644 53.1222 12.2289 52.623 11.0807C52.1238 9.93259 51.4374 8.90923 50.5638 8.01067C49.6902 7.11211 48.6793 6.42571 47.5311 5.95147C46.383 5.47723 45.135 5.22763 43.7871 5.20267C42.4643 5.20267 41.2287 5.45227 40.0806 5.95147C38.9324 6.45067 37.9091 7.13707 37.0105 8.01067C36.1119 8.88427 35.4255 9.89515 34.9513 11.0433C34.4771 12.1915 34.2275 13.4395 34.2025 14.7873ZM60.5603 38.3745C59.5119 38.3745 58.5385 38.5742 57.6399 38.9735C56.7414 39.3729 55.9427 39.9095 55.2438 40.5835C54.5449 41.2574 53.9958 42.0561 53.5964 42.9796C53.1971 43.9031 52.9974 44.8891 52.9974 45.9374C52.9974 46.9857 53.1971 47.9592 53.5964 48.8577C53.9958 49.7563 54.5324 50.555 55.2063 51.2539C55.8803 51.9528 56.679 52.5019 57.6025 52.9012C58.526 53.3006 59.5119 53.5003 60.5603 53.5003C61.6086 53.5003 62.582 53.3006 63.4806 52.9012C64.3791 52.5019 65.1779 51.9652 65.8767 51.2913C66.5756 50.6174 67.1247 49.8187 67.5241 48.8951C67.9235 47.9716 68.1231 46.9857 68.1231 45.9374C68.1231 44.8891 67.9235 43.9156 67.5241 43.0171C67.1247 42.1185 66.5881 41.3198 65.9142 40.6209C65.2403 39.922 64.4415 39.3729 63.518 38.9735C62.5945 38.5742 61.6086 38.3745 60.5603 38.3745Z" fill="black"/>
</svg>
