<svg width="90" height="64" viewBox="0 0 90 64" fill="none" xmlns="http://www.w3.org/2000/svg">
<path d="M27.0792 32.0006C35.7452 32.0006 42.7592 24.9866 42.7592 16.3206C42.7592 7.65462 35.7452 0.640625 27.0792 0.640625C18.4132 0.640625 11.3992 7.65462 11.3992 16.3206C11.3992 24.9866 18.4132 32.0006 27.0792 32.0006ZM37.8312 36.4806H36.6692C33.7572 37.8806 30.5232 38.7206 27.0792 38.7206C23.6352 38.7206 20.4152 37.8806 17.4892 36.4806H16.3272C7.42322 36.4806 0.199219 43.7046 0.199219 52.6086V56.6406C0.199219 60.3506 3.20922 63.3606 6.91922 63.3606H47.2392C50.9492 63.3606 53.9592 60.3506 53.9592 56.6406V52.6086C53.9592 43.7046 46.7352 36.4806 37.8312 36.4806ZM67.3992 32.0006C74.8192 32.0006 80.8392 25.9806 80.8392 18.5606C80.8392 11.1406 74.8192 5.12063 67.3992 5.12063C59.9792 5.12063 53.9592 11.1406 53.9592 18.5606C53.9592 25.9806 59.9792 32.0006 67.3992 32.0006ZM74.1192 36.4806H73.5872C71.6412 37.1526 69.5832 37.6006 67.3992 37.6006C65.2152 37.6006 63.1572 37.1526 61.2112 36.4806H60.6792C57.8232 36.4806 55.1912 37.3066 52.8812 38.6366C56.2972 42.3186 58.4392 47.2046 58.4392 52.6086V57.9846C58.4392 58.2926 58.3692 58.5866 58.3552 58.8806H83.0792C86.7892 58.8806 89.7992 55.8706 89.7992 52.1606C89.7992 43.4946 82.7852 36.4806 74.1192 36.4806Z" fill="black"/>
</svg>
