<svg width="24" height="16" viewBox="0 0 24 16" fill="none" xmlns="http://www.w3.org/2000/svg">
<path d="M22.0622 0.400051L1.53686 0.400051C1.32905 0.400643 1.12536 0.452756 0.947699 0.550778C0.770041 0.648801 0.625151 0.789021 0.52862 0.956348C0.432089 1.12368 0.387575 1.31177 0.399872 1.50039C0.412169 1.68901 0.480806 1.871 0.5984 2.02679L10.8611 15.5052C11.2864 16.064 12.3104 16.064 12.7368 15.5052L22.9995 2.02679C23.1183 1.87133 23.188 1.68924 23.2009 1.50031C23.2139 1.31138 23.1696 1.12283 23.073 0.955146C22.9764 0.787465 22.8311 0.647065 22.6529 0.549201C22.4747 0.451337 22.2704 0.399753 22.0622 0.400051Z" fill="black"/>
</svg>
