<svg width="45" height="38" viewBox="0 0 45 38" fill="none" xmlns="http://www.w3.org/2000/svg">
<path d="M6.77067 37.6234V21.2303C5.06296 20.8422 3.65082 20.021 2.53424 18.7669C1.41766 17.5128 0.859375 16.0497 0.859375 14.3775H4.80024C4.80024 15.333 5.18644 16.1619 5.95885 16.8642C6.73126 17.5665 7.64225 17.9171 8.69183 17.9159H10.7115V14.064C9.00382 13.6758 7.59168 12.8547 6.4751 11.6005C5.35852 10.3464 4.80024 8.8833 4.80024 7.21115H8.7411C8.7411 8.16667 9.1273 8.99498 9.89971 9.69609C10.6721 10.3972 11.5831 10.7483 12.6327 10.7495H13.6672L22.5341 0L31.401 10.7495H32.4355C33.4864 10.7495 34.3981 10.399 35.1705 9.69788C35.9429 8.99677 36.3284 8.16786 36.3271 7.21115H40.268C40.268 8.8833 39.7097 10.3464 38.5931 11.6005C37.4765 12.8547 36.0644 13.6758 34.3567 14.064V17.9159H36.3764C37.4273 17.9159 38.3389 17.5654 39.1113 16.8642C39.8837 16.1631 40.2693 15.3342 40.268 14.3775H44.2088C44.2088 16.0497 43.6505 17.5128 42.534 18.7669C41.4174 20.021 40.0053 20.8422 38.2975 21.2303V37.6234H24.5045V30.457C24.5045 29.9494 24.3154 29.5242 23.9371 29.1814C23.5587 28.8386 23.0911 28.6666 22.5341 28.6654C21.9771 28.6643 21.5095 28.8362 21.1312 29.1814C20.7528 29.5266 20.5637 29.9518 20.5637 30.457V37.6234H6.77067ZM18.5932 10.7495H26.475L22.5341 5.95704L18.5932 10.7495ZM14.6524 17.9159H30.4158V14.3327H14.6524V17.9159ZM10.7115 34.0402H16.6228V30.457C16.6228 28.964 17.1975 27.695 18.3469 26.6499C19.4964 25.6048 20.8921 25.0823 22.5341 25.0823C24.1761 25.0823 25.5719 25.6048 26.7213 26.6499C27.8707 27.695 28.4454 28.964 28.4454 30.457V34.0402H34.3567V21.4991H10.7115V34.0402Z" fill="black"/>
</svg>
