<svg width="68" height="68" viewBox="0 0 68 68" fill="none" xmlns="http://www.w3.org/2000/svg">
<path fill-rule="evenodd" clip-rule="evenodd" d="M19.0247 15.2797C19.0247 11.3078 20.6025 7.49862 23.4111 4.69008C26.2196 1.88153 30.0288 0.303711 34.0007 0.303711C37.9726 0.303711 41.7818 1.88153 44.5903 4.69008C47.3989 7.49862 48.9767 11.3078 48.9767 15.2797C48.9767 19.2516 47.3989 23.0608 44.5903 25.8693C41.7818 28.6779 37.9726 30.2557 34.0007 30.2557C30.0288 30.2557 26.2196 28.6779 23.4111 25.8693C20.6025 23.0608 19.0247 19.2516 19.0247 15.2797ZM19.0247 37.7437C14.0598 37.7437 9.29833 39.716 5.78765 43.2267C2.27697 46.7374 0.304688 51.4989 0.304688 56.4637C0.304688 59.4426 1.48806 62.2995 3.59446 64.4059C5.70087 66.5123 8.55778 67.6957 11.5367 67.6957H56.4647C59.4436 67.6957 62.3005 66.5123 64.4069 64.4059C66.5133 62.2995 67.6967 59.4426 67.6967 56.4637C67.6967 51.4989 65.7244 46.7374 62.2137 43.2267C58.703 39.716 53.9415 37.7437 48.9767 37.7437H19.0247Z" fill="black"/>
</svg>
