<svg width="53" height="53" viewBox="0 0 53 53" fill="none" xmlns="http://www.w3.org/2000/svg">
<path fill-rule="evenodd" clip-rule="evenodd" d="M36.0008 19.4003C36.0008 21.9464 34.9894 24.3882 33.189 26.1885C31.3887 27.9889 28.9469 29.0003 26.4008 29.0003C23.8547 29.0003 21.4129 27.9889 19.6126 26.1885C17.8122 24.3882 16.8008 21.9464 16.8008 19.4003C16.8008 16.8542 17.8122 14.4124 19.6126 12.6121C21.4129 10.8117 23.8547 9.80029 26.4008 9.80029C28.9469 9.80029 31.3887 10.8117 33.189 12.6121C34.9894 14.4124 36.0008 16.8542 36.0008 19.4003ZM31.2008 19.4003C31.2008 20.6733 30.6951 21.8942 29.7949 22.7944C28.8947 23.6946 27.6738 24.2003 26.4008 24.2003C25.1277 24.2003 23.9068 23.6946 23.0067 22.7944C22.1065 21.8942 21.6008 20.6733 21.6008 19.4003C21.6008 18.1273 22.1065 16.9064 23.0067 16.0062C23.9068 15.106 25.1277 14.6003 26.4008 14.6003C27.6738 14.6003 28.8947 15.106 29.7949 16.0062C30.6951 16.9064 31.2008 18.1273 31.2008 19.4003Z" fill="black"/>
<path fill-rule="evenodd" clip-rule="evenodd" d="M26.4 0.200195C11.82 0.200195 0 12.0202 0 26.6002C0 41.1802 11.82 53.0002 26.4 53.0002C40.98 53.0002 52.8 41.1802 52.8 26.6002C52.8 12.0202 40.98 0.200195 26.4 0.200195ZM4.8 26.6002C4.8 31.6162 6.5112 36.2338 9.3792 39.901C11.3934 37.256 13.9918 35.1124 16.9714 33.6377C19.9511 32.1631 23.2314 31.3973 26.556 31.4002C29.8376 31.3971 33.0766 32.1431 36.0262 33.5813C38.9759 35.0195 41.5583 37.112 43.5768 39.6994C45.6563 36.972 47.0564 33.7887 47.6613 30.4128C48.2663 27.0369 48.0586 23.5655 47.0556 20.2858C46.0525 17.006 44.2829 14.0123 41.8932 11.5523C39.5034 9.09226 36.5622 7.23666 33.3129 6.13902C30.0636 5.04137 26.5997 4.73325 23.2077 5.24013C19.8157 5.74701 16.5931 7.05433 13.8066 9.05392C11.0202 11.0535 8.74995 13.6879 7.18375 16.7391C5.61755 19.7902 4.80043 23.1705 4.8 26.6002ZM26.4 48.2002C21.4415 48.2076 16.6326 46.5018 12.7872 43.3714C14.335 41.1556 16.3952 39.3464 18.7925 38.0978C21.1897 36.8493 23.8531 36.1983 26.556 36.2002C29.2252 36.1981 31.8564 36.8328 34.231 38.0516C36.6057 39.2705 38.6553 41.0382 40.2096 43.2082C36.3343 46.4403 31.4462 48.2073 26.4 48.2002Z" fill="black"/>
</svg>
