<svg width="49" height="46" viewBox="0 0 49 46" fill="none" xmlns="http://www.w3.org/2000/svg">
<path d="M7.56 0.640137C7.15899 0.640137 6.77441 0.799436 6.49086 1.08299C6.2073 1.36655 6.048 1.75113 6.048 2.15214V12.7361H4.536C3.33298 12.7361 2.17923 13.214 1.32856 14.0647C0.477899 14.9154 6.2366e-07 16.0691 6.2366e-07 17.2721V38.4401C-0.00049134 39.3786 0.290086 40.294 0.831685 41.0604C1.37329 41.8268 2.13924 42.4063 3.024 42.7191V43.7321C3.024 44.3336 3.26295 44.9105 3.68828 45.3359C4.11362 45.7612 4.69049 46.0001 5.292 46.0001C5.89351 46.0001 6.47039 45.7612 6.89572 45.3359C7.32105 44.9105 7.56 44.3336 7.56 43.7321V42.9761H12.096V39.9521H4.536C4.13499 39.9521 3.75041 39.7928 3.46686 39.5093C3.1833 39.2257 3.024 38.8411 3.024 38.4401V17.2721C3.024 16.8711 3.1833 16.4865 3.46686 16.203C3.75041 15.9194 4.13499 15.7601 4.536 15.7601H19.656C20.057 15.7601 20.4416 15.9194 20.7251 16.203C21.0087 16.4865 21.168 16.8711 21.168 17.2721V18.7841H24.192V17.2721C24.192 16.0691 23.7141 14.9154 22.8634 14.0647C22.0128 13.214 20.859 12.7361 19.656 12.7361H18.144V2.15214C18.144 1.75113 17.9847 1.36655 17.7011 1.08299C17.4176 0.799436 17.033 0.640137 16.632 0.640137H7.56ZM15.12 12.7361H9.072V3.66414H15.12V12.7361Z" fill="black"/>
<path d="M9.07185 20.2963C9.07185 19.8952 8.91255 19.5107 8.629 19.2271C8.34544 18.9436 7.96086 18.7843 7.55985 18.7843C7.15884 18.7843 6.77426 18.9436 6.49071 19.2271C6.20715 19.5107 6.04785 19.8952 6.04785 20.2963V35.4163C6.04785 35.8173 6.20715 36.2018 6.49071 36.4854C6.77426 36.769 7.15884 36.9283 7.55985 36.9283C7.96086 36.9283 8.34544 36.769 8.629 36.4854C8.91255 36.2018 9.07185 35.8173 9.07185 35.4163V20.2963ZM33.2639 15.7603C34.4669 15.7603 35.6206 16.2382 36.4713 17.0888C37.322 17.9395 37.7999 19.0932 37.7999 20.2963V21.8083H43.8479C45.0509 21.8083 46.2046 22.2862 47.0553 23.1368C47.906 23.9875 48.3839 25.1412 48.3839 26.3443V41.4643C48.3839 42.6673 47.906 43.821 47.0553 44.6717C46.2046 45.5224 45.0509 46.0002 43.8479 46.0003H19.6559C18.4528 46.0002 17.2991 45.5224 16.4484 44.6717C15.5977 43.821 15.1199 42.6673 15.1199 41.4643V26.3443C15.1199 25.1412 15.5977 23.9875 16.4484 23.1368C17.2991 22.2862 18.4528 21.8083 19.6559 21.8083H25.7039V20.2963C25.7039 19.0932 26.1817 17.9395 27.0324 17.0888C27.8831 16.2382 29.0368 15.7603 30.2399 15.7603H33.2639ZM28.7279 20.2963V21.8083H34.7759V20.2963C34.7759 19.8952 34.6166 19.5107 34.333 19.2271C34.0494 18.9436 33.6649 18.7843 33.2639 18.7843H30.2399C29.8388 18.7843 29.4543 18.9436 29.1707 19.2271C28.8871 19.5107 28.7279 19.8952 28.7279 20.2963ZM18.1439 26.3443V41.4643C18.1439 41.8653 18.3032 42.2498 18.5867 42.5334C18.8703 42.817 19.2548 42.9763 19.6559 42.9763H21.1679V24.8323H19.6559C19.2548 24.8323 18.8703 24.9916 18.5867 25.2751C18.3032 25.5587 18.1439 25.9432 18.1439 26.3443ZM39.3119 42.9763V24.8323H24.1919V42.9763H39.3119ZM43.8479 42.9763C44.2489 42.9763 44.6334 42.817 44.917 42.5334C45.2006 42.2498 45.3599 41.8653 45.3599 41.4643V26.3443C45.3599 25.9432 45.2006 25.5587 44.917 25.2751C44.6334 24.9916 44.2489 24.8323 43.8479 24.8323H42.3358V42.9763H43.8479Z" fill="black"/>
</svg>
