<svg width="37" height="32" viewBox="0 0 37 32" fill="none" xmlns="http://www.w3.org/2000/svg">
<path d="M31.1559 6.89986L3.83056 6.89986C3.55391 6.90062 3.28273 6.96696 3.04621 7.09176C2.8097 7.21656 2.6168 7.39508 2.48829 7.60811C2.35978 7.82114 2.30052 8.06062 2.31689 8.30076C2.33326 8.54089 2.42464 8.7726 2.58119 8.97094L16.2438 26.1309C16.8101 26.8424 18.1733 26.8424 18.7411 26.1309L32.4037 8.97094C32.5619 8.77302 32.6546 8.54119 32.6719 8.30065C32.6891 8.06011 32.6302 7.82006 32.5016 7.60658C32.373 7.3931 32.1795 7.21435 31.9423 7.08975C31.705 6.96516 31.433 6.89948 31.1559 6.89986Z" fill="#016C79"/>
</svg>
