<svg width="1044" height="920" viewBox="0 0 1044 920" fill="none" xmlns="http://www.w3.org/2000/svg">
<g filter="url(#filter0_d_289_4930)">
<path fill-rule="evenodd" clip-rule="evenodd" d="M920.964 356.722C919.081 357.876 917.372 359.336 915.854 361.103C915.153 359.719 914.905 358.258 915.124 356.722C913.664 356.722 912.204 356.722 910.744 356.722C914.335 352.393 917.007 347.527 918.774 342.121C919.504 339.241 919.738 336.32 919.504 333.361C915.854 332.66 912.437 331.2 909.283 328.98C908.305 329.467 907.341 329.954 906.363 330.441C903.428 326.297 899.778 322.889 895.412 320.22C894.697 318.332 894.449 316.384 894.682 314.379C889.046 312.709 883.206 311.735 877.161 311.459C877.161 309.513 877.161 307.565 877.161 305.619C874.095 305.652 871.423 304.678 869.131 302.699C864.239 305.273 859.129 307.219 853.799 308.539C848.193 307.901 842.6 307.413 837.008 307.079C832.482 311.605 827.853 316.229 823.137 320.95C820.932 322.191 818.742 323.407 816.567 324.6C814.128 323.14 811.705 321.68 809.266 320.22C804.2 324.372 799.571 323.886 795.395 318.76C790.562 320.576 785.7 320.576 780.794 318.76C778.049 319.525 775.363 320.499 772.764 321.68C770.865 319.918 768.675 318.944 766.193 318.76C763.959 313.988 762.003 309.122 760.353 304.159C756.571 304.311 753.169 303.337 750.132 301.238C747.387 302.004 744.7 302.977 742.101 304.159C739.254 300.713 736.086 297.55 732.611 294.668C730.727 293.953 728.771 293.709 726.77 293.938C726.77 291.992 726.77 290.044 726.77 288.098C723.646 287.801 721.222 286.341 719.47 283.717C717.659 284.806 715.717 285.293 713.629 285.177C714.666 275.615 711.264 268.315 703.409 263.276C702.532 259.352 700.591 256.188 697.568 253.785C698.678 251.681 699.656 249.491 700.488 247.215C698.59 242.932 697.13 238.552 696.108 234.074C694.648 234.074 693.188 234.074 691.728 234.074C690.472 230.361 688.53 226.953 685.887 223.853C684.15 225.809 681.96 226.783 679.317 226.773C675.243 225.728 671.096 225.241 666.906 225.313C666.862 222.273 667.84 219.595 669.826 217.282C668.57 216.276 667.607 215.06 666.906 213.632C668.95 211.658 669.914 209.224 669.826 206.332C668.424 202.563 668.424 198.913 669.826 195.381C668.074 189.791 665.636 183.951 662.526 177.859C662.088 171.869 663.066 166.028 665.446 160.338C665.11 156.647 664.628 152.997 663.986 149.387C662.453 149.605 660.992 149.363 659.605 148.657C655.838 144.63 652.918 140.006 650.845 134.786C649.647 133.493 648.187 133.007 646.464 133.326C646.216 131.396 646.702 129.692 647.924 128.216C646.673 127.21 645.701 125.994 645.004 124.566C650.115 117.042 653.035 108.767 653.765 99.7439C649.399 99.8577 648.436 98.1538 650.845 94.6335C648.173 92.4346 647.691 90.0006 649.385 87.333C645.969 78.3416 639.643 72.745 630.403 70.5417C628.511 62.4031 625.591 54.6164 621.643 47.18C619.033 45.9886 616.599 44.5285 614.342 42.7997C613.184 43.429 611.966 43.9167 610.692 44.2598C605.574 42.8932 601.681 39.973 599.011 35.4992C595.053 37.5813 591.402 37.0936 588.06 34.0391C579.838 37.6616 571.808 41.5557 563.968 45.7199C559.922 41.9368 555.786 41.9368 551.558 45.7199C550.169 44.5139 548.709 44.2715 547.177 44.9899C540.623 54.2411 534.296 63.7318 528.196 73.4619C529.739 76.7705 529.009 79.6908 526.006 82.2226C525.283 85.1034 525.039 88.0236 525.276 90.9832C526.736 90.9832 528.196 90.9832 529.656 90.9832C529.541 93.0712 530.027 95.0189 531.116 96.8236C533.524 97.7698 535.47 99.2299 536.956 101.204C534.061 104.831 530.897 108.237 527.466 111.425C524.839 116.428 523.137 121.783 522.355 127.486C525.92 136.73 527.866 145.978 528.196 155.228C530.142 155.228 532.09 155.228 534.036 155.228C534.036 156.688 534.036 158.148 534.036 159.608C535.496 159.608 536.956 159.608 538.417 159.608C538.501 166.674 541.908 170.566 548.637 171.289C548.477 175.025 549.449 178.432 551.558 181.51C555.834 185.341 560.701 187.775 566.159 188.81C566.334 191.291 566.821 193.724 567.619 196.111C564.95 200.601 563.976 205.225 564.698 209.982C567.863 215.673 570.297 221.271 571.999 226.773C561.939 235.496 553.664 245.716 547.177 257.435C535.856 264.07 524.175 269.91 512.135 274.957C511.129 277.795 510.399 280.715 509.945 283.717C507.438 285.89 505.734 288.566 504.834 291.748C505.19 298.807 506.651 305.866 509.214 312.919C510.675 312.919 512.135 312.919 513.595 312.919C511.393 316.774 511.881 320.18 515.055 323.14C513.325 329.048 509.431 332.454 503.374 333.361C501.131 332.267 499.185 330.807 497.534 328.98C493.932 330.987 491.254 330.013 489.503 326.06C488.899 326.728 488.168 327.215 487.313 327.52C485.675 325.87 483.727 324.897 481.472 324.6C475.568 323.382 469.727 322.896 463.951 323.14C466.163 320.83 468.596 318.882 471.252 317.3C474.835 317.038 477.999 318.011 480.742 320.22C482.619 319.563 484.323 318.589 485.853 317.3C491.378 322.1 497.462 325.993 504.104 328.98C505.631 327.123 506.361 324.933 506.294 322.41C505.685 318.763 505.198 315.112 504.834 311.459C503.374 311.459 501.914 311.459 500.454 311.459C500.705 308.551 499.731 306.118 497.534 304.159C498.889 300.84 498.889 297.433 497.534 293.938C500.16 285.736 502.837 277.462 505.564 269.116C509.923 267.181 514.303 265.235 518.705 263.276C519.98 263.619 521.198 264.106 522.355 264.736C527.895 262.696 533.249 260.262 538.417 257.435C541.718 252.15 544.88 246.795 547.907 241.374C553.082 239.127 556.002 235.233 556.668 229.693C559.611 227.738 561.315 225.062 561.778 221.663C559.8 217.449 558.34 213.068 557.398 208.522C562.161 200.969 561.188 194.398 554.478 188.81C550.73 190.422 547.567 189.448 544.987 185.89C542.471 181.435 540.281 176.811 538.417 172.019C536.529 171.304 534.581 171.06 532.576 171.289C532.322 167.842 531.836 164.435 531.116 161.068C529.17 161.068 527.222 161.068 525.276 161.068C525.276 158.634 525.276 156.202 525.276 153.768C520.402 154.339 518.942 152.635 520.895 148.657C518.929 140.713 516.982 133.169 515.055 126.026C517.201 121.926 518.417 117.545 518.705 112.885C521.869 109.721 525.032 106.558 528.196 103.394C524.011 99.1467 520.361 94.5225 517.245 89.5231C516.759 87.2643 517.489 85.318 519.435 83.6827C518.251 82.6372 517.277 81.4195 516.515 80.0324C521.941 70.2044 528.024 60.7138 534.766 51.5604C539.028 48.919 540.976 45.5111 540.607 41.3396C543.324 39.494 546.244 38.0339 549.367 36.9593C552.774 38.9056 556.182 38.9056 559.588 36.9593C561.464 37.6163 563.168 38.5902 564.698 39.8795C571.269 37.1272 577.596 33.9632 583.68 30.3888C587.881 29.3302 591.773 30.0603 595.361 32.579C599.807 28.679 603.213 29.6529 605.581 35.4992C608.989 33.5412 611.423 34.5151 612.882 38.4194C614.263 37.7083 615.723 37.2221 617.262 36.9593C619.642 38.3041 622.076 39.5218 624.563 40.6096C625.848 42.5895 626.335 44.7796 626.023 47.18C627.969 47.18 629.917 47.18 631.863 47.18C633.081 55.967 636.487 63.7537 642.084 70.5417C643.889 69.4525 645.837 68.9663 647.924 69.0816C647.924 71.028 647.924 72.9757 647.924 74.9221C649.385 74.9221 650.845 74.9221 652.305 74.9221C653.517 79.5666 654.977 84.1908 656.685 88.7931C656.335 90.0677 655.853 91.2855 655.225 92.4433C657.167 95.8118 659.109 99.2197 661.065 102.664C660.073 110.876 657.634 118.906 653.765 126.756C654.612 129.258 656.306 130.962 658.875 131.866C660.54 135.665 661.752 139.559 662.526 143.547C664.453 143.299 666.161 143.785 667.636 145.007C670.25 149.222 672.44 153.603 674.206 158.148C672.483 163.529 671.023 168.883 669.826 174.209C672.279 179.623 674.236 185.22 675.667 191C673.476 193.929 673.958 196.362 677.127 198.301C676.864 202.765 676.864 207.145 677.127 211.442C672.527 216.36 673.257 220.01 679.317 222.393C682.558 219.921 686.208 218.461 690.268 218.012C690.268 219.473 690.268 220.933 690.268 222.393C692.21 222.393 694.166 222.393 696.108 222.393C698.006 228.61 700.445 234.45 703.409 239.914C704.869 239.914 706.329 239.914 707.789 239.914C707.657 243.093 706.694 246.013 704.869 248.675C706.358 252.62 707.818 256.514 709.249 260.355C710.709 260.355 712.169 260.355 713.629 260.355C713.629 261.816 713.629 263.276 713.629 264.736C715.089 264.736 716.549 264.736 718.01 264.736C718.491 269.602 718.988 274.47 719.47 279.337C722.521 279.426 724.711 280.886 726.04 283.717C727.091 282.329 728.303 282.086 729.69 282.987C733.91 288.912 738.787 294.023 744.291 298.318C749.373 294.249 754.001 294.735 758.162 299.778C759.637 298.556 761.346 298.07 763.273 298.318C762.791 302.699 764.733 304.645 769.113 304.159C769.069 309.323 771.26 313.217 775.684 315.84C779.451 314.56 783.349 314.56 787.365 315.84C790.84 315.866 794.008 314.892 796.855 312.919C798.856 314.687 801.046 316.148 803.426 317.3C805.864 316.326 808.288 315.353 810.726 314.379C813.106 315.531 815.296 316.992 817.297 318.76C823.064 313.972 828.408 308.618 833.358 302.699C835.46 301.525 837.651 300.551 839.928 299.778C844.221 302.24 848.835 303.7 853.799 304.159C859.319 302.129 864.677 299.695 869.861 296.858C871.861 298.626 874.051 300.086 876.431 301.238C880.286 299.467 881.994 300.927 881.541 305.619C885.148 306.055 888.316 307.515 891.032 309.999C893.616 308.929 896.288 308.441 899.063 308.539C900.114 312.661 901.574 316.555 903.443 320.22C905.881 320.22 908.305 320.22 910.744 320.22C912.569 326.675 916.949 329.109 923.884 327.52C923.884 329.467 923.884 331.414 923.884 333.361C925.345 333.361 926.805 333.361 928.265 333.361C928.44 336.258 927.462 338.69 925.345 340.661C927.506 345.109 926.294 348.515 921.694 350.882C920.979 352.77 920.731 354.718 920.964 356.722Z" fill="black"/>
<path fill-rule="evenodd" clip-rule="evenodd" d="M434.75 358.183C433.776 356.723 432.804 355.262 431.83 353.802C432.313 348.972 434.504 345.078 438.401 342.122C440.724 336.623 443.4 331.269 446.431 326.06C448.377 325.086 450.325 324.114 452.272 323.14C456.192 323.92 460.086 325.866 463.952 328.981C466.432 327.256 468.866 327.256 471.253 328.981C466.893 335.804 462.025 336.291 456.652 330.441C454.294 331.396 451.86 332.126 449.351 332.631C447.647 337.255 445.945 341.878 444.241 346.502C440.128 349.859 436.965 353.751 434.75 358.183Z" fill="black"/>
<path fill-rule="evenodd" clip-rule="evenodd" d="M910.744 356.724C912.204 356.724 913.664 356.724 915.124 356.724C914.905 358.26 915.154 359.72 915.855 361.104C917.373 359.338 919.081 357.878 920.965 356.724C921.33 360.288 922.79 363.208 925.345 365.485C921.739 364.883 919.782 366.343 919.505 369.865C918.147 368.306 917.65 366.359 918.045 364.025C916.585 364.025 915.124 364.025 913.664 364.025C913.854 361.026 912.89 358.592 910.744 356.724Z" fill="black"/>
<path fill-rule="evenodd" clip-rule="evenodd" d="M431.829 353.803C432.803 355.263 433.776 356.723 434.75 358.184C432.949 362.269 430.029 365.433 425.989 367.674C419.75 368.689 413.423 369.419 407.008 369.864C407.327 368.149 406.841 366.689 405.548 365.484C401.839 364.167 398.189 362.707 394.597 361.104C390.403 364.043 385.781 365.991 380.726 366.944C379.835 365.643 379.349 364.183 379.266 362.564C384.461 360.212 389.813 358.264 395.327 356.723C398.618 357.353 401.782 358.325 404.817 359.644C406.608 359.432 408.312 358.946 409.928 358.184C411.221 359.388 411.708 360.848 411.388 362.564C414.786 362.194 417.706 363.168 420.149 365.484C424.098 363.925 426.288 361.004 426.719 356.723C427.91 354.792 429.614 353.819 431.829 353.803Z" fill="black"/>
<path fill-rule="evenodd" clip-rule="evenodd" d="M925.346 365.485C927.405 366.176 928.369 367.636 928.266 369.865C928.266 371.812 927.288 372.786 925.346 372.786C924.193 370.444 922.251 369.47 919.506 369.865C919.783 366.344 921.74 364.884 925.346 365.485Z" fill="black"/>
<path fill-rule="evenodd" clip-rule="evenodd" d="M350.062 377.164C352.038 375.666 353.498 373.719 354.443 371.323C357.649 369.479 361.057 368.019 364.664 366.943C366.754 367.283 367.484 368.257 366.854 369.863C361.702 373.29 356.106 375.722 350.062 377.164Z" fill="black"/>
<path fill-rule="evenodd" clip-rule="evenodd" d="M332.543 352.341C332.22 354.144 331.246 355.604 329.623 356.721C330.109 357.208 330.597 357.695 331.083 358.181C333.377 357 335.811 356.513 338.383 356.721C338.286 358.852 338.772 360.798 339.843 362.562C339.843 364.022 339.843 365.482 339.843 366.942C343.856 366.799 344.828 368.259 342.764 371.322C341.79 371.322 341.304 371.809 341.304 372.782C339.373 373.031 337.669 372.544 336.193 371.322C334.555 368.519 333.337 365.599 332.543 362.562C328.125 360.989 323.744 360.989 319.402 362.562C317.505 361.7 316.289 360.24 315.752 358.181C312.319 359.954 308.669 361.172 304.801 361.832C300.835 366.593 296.699 371.217 292.39 375.703C286.655 390.61 282.518 405.211 279.979 419.506C273.441 424.339 267.114 429.449 260.998 434.837C258.771 436.31 256.337 437.04 253.697 437.027C256.369 433.044 258.559 428.664 260.268 423.886C267.443 419.452 273.527 413.855 278.519 407.095C277.554 400.779 277.554 394.696 278.519 388.844C282.274 380.961 286.899 373.66 292.39 366.942C292.39 364.996 292.39 363.048 292.39 361.102C297.873 357.995 303.469 355.074 309.181 352.341C310.155 353.315 311.128 354.287 312.101 355.261C315.559 351.591 318.965 351.591 322.322 355.261C325.343 352.001 328.751 351.027 332.543 352.341Z" fill="black"/>
<path fill-rule="evenodd" clip-rule="evenodd" d="M30.2983 418.048C36.4526 420.217 39.8591 424.597 40.519 431.189C44.1299 431.626 47.2939 433.086 50.0097 435.57C52.1488 434.358 54.3389 434.115 56.5802 434.84C59.0565 438.497 62.4644 440.687 66.8009 441.41C67.4083 445.714 69.3546 446.688 72.6413 444.33C75.1191 444.913 77.5517 445.643 79.9419 446.52C80.6807 450.217 82.3846 453.38 85.0522 456.011C91.2168 456.877 97.5434 456.877 104.034 456.011C109.465 458.001 115.062 459.461 120.825 460.391C116.284 473.119 119.934 476.039 131.776 469.152C133.869 469.78 135.573 470.998 136.886 472.802C138.346 473.776 139.806 473.776 141.266 472.802C147.72 467.33 153.073 461.002 157.327 453.821C160.89 451.918 164.54 450.214 168.278 448.711C169.405 448.922 170.379 449.408 171.198 450.171C171.479 453.203 172.209 456.124 173.389 458.931C179.041 454.006 184.395 448.896 189.45 443.6C192.992 443.67 196.398 443.426 199.671 442.87C201.823 444.237 203.283 446.185 204.051 448.711C205.314 450.292 206.774 450.534 208.431 449.441C215.089 442.985 221.904 436.903 228.873 431.189C233.301 432.623 235.735 435.543 236.173 439.95C240.498 439.131 244.634 437.671 248.584 435.57C250.928 436.447 252.874 437.907 254.424 439.95C256.606 438.129 258.796 438.129 260.995 439.95C256.648 445.168 251.782 445.656 246.394 441.41C242.554 443.33 238.66 445.278 234.713 447.25C232.565 445.964 231.349 444.018 231.063 441.41C222.467 446.678 213.707 451.546 204.781 456.011C201.942 454.276 199.752 451.844 198.21 448.711C195.423 449.949 192.503 450.436 189.45 450.171C189.45 452.117 189.45 454.065 189.45 456.011C181.501 458.658 173.713 461.578 166.088 464.772C166.558 459.02 164.612 457.804 160.248 461.121C158.932 464.875 156.986 468.282 154.407 471.342C149.053 474.019 143.7 476.696 138.346 479.373C136.34 477.605 134.15 476.144 131.776 474.992C127.769 476.165 123.875 477.625 120.095 479.373C117.516 478.303 114.84 477.815 112.064 477.913C111.543 472.938 111.055 468.314 110.604 464.042C103.707 463.932 96.8922 462.716 90.1626 460.391C85.572 463.09 81.9218 462.117 79.2118 457.471C77.7357 458.693 76.0317 459.18 74.1015 458.931C75.087 450.489 71.6791 448.055 63.8807 451.631C63.8807 449.684 63.8807 447.737 63.8807 445.79C59.8143 445.158 56.4064 443.212 53.66 439.95C49.1628 442.293 45.5126 441.32 42.7092 437.03C41.1264 438.731 39.9102 440.677 39.0589 442.87C39.0589 447.25 39.0589 451.631 39.0589 456.011C36.6147 458.711 35.1546 461.875 34.6786 465.502C35.7693 472.605 38.2018 479.176 41.9791 485.213C37.866 489.011 36.8921 493.391 39.0589 498.354C41.6696 497.938 44.1036 498.424 46.3594 499.814C47.2019 502.807 49.1482 504.268 52.1999 504.195C50.3966 507.513 50.8829 510.19 53.66 512.225C48.9511 516.757 44.5708 521.624 40.519 526.826C41.7411 528.302 42.2273 530.006 41.9791 531.937C43.5152 531.719 44.9753 531.961 46.3594 532.667C45.8192 535.017 46.7931 537.208 49.2797 539.237C50.4842 540.531 51.9443 541.017 53.66 540.697C54.6295 544.153 56.5758 547.074 59.5004 549.458C61.4467 554.812 61.4467 560.165 59.5004 565.519C57.2066 566.7 54.7726 567.188 52.1999 566.979C52.5255 564.29 53.0131 561.613 53.66 558.949C52.67 554.573 51.2099 550.436 49.2797 546.538C47.8196 546.538 46.3594 546.538 44.8993 546.538C44.8993 545.078 44.8993 543.617 44.8993 542.157C43.4392 542.157 41.9791 542.157 40.519 542.157C40.5979 535.908 37.6777 532.5 31.7584 531.937C31.6022 528.428 33.0623 525.752 36.1387 523.906C32.6549 524.419 29.2485 524.176 25.918 523.176C31.2269 518.851 36.5797 514.471 41.9791 510.035C43.3356 508.299 43.8218 506.353 43.4392 504.195C41.3513 504.079 39.4035 504.565 37.5988 505.655C35.5036 503.722 34.0435 501.289 33.2185 498.354C30.6443 500.477 28.6965 499.989 27.3781 496.894C30.6662 493.968 32.614 490.318 33.2185 485.943C32.2504 478.903 29.8165 472.575 25.918 466.962C26.7955 464.618 28.2556 462.672 30.2983 461.121C30.5815 457.087 30.5815 452.949 30.2983 448.711C32.376 444.037 33.8361 439.17 34.6786 434.11C30.1056 431.48 27.1853 427.586 25.918 422.429C27.1445 420.625 28.6046 419.165 30.2983 418.048Z" fill="black"/>
<path fill-rule="evenodd" clip-rule="evenodd" d="M658.148 613.7C657.024 614.681 656.06 615.897 655.228 617.35C658.105 619.54 660.047 622.217 661.069 625.381C662.339 629.008 663.317 632.902 663.989 637.062C663.828 638.437 663.346 639.653 662.529 640.712C665.113 647.281 668.033 653.851 671.289 660.423C669.128 663.319 666.69 665.995 663.989 668.454C666.34 668.426 668.763 668.184 671.289 667.724C671.508 669.26 671.26 670.72 670.559 672.104C664.982 676.222 659.871 680.846 655.228 685.975C657.55 690.693 656.338 694.343 651.578 696.926C649.227 701.483 648.015 706.35 647.928 711.527C650.366 711.527 652.79 711.527 655.228 711.527C655.228 712.987 655.228 714.447 655.228 715.907C656.688 715.907 658.148 715.907 659.608 715.907C659.521 718.962 658.061 721.152 655.228 722.478C655.71 722.964 656.206 723.452 656.688 723.938C651.388 730.857 646.032 731.345 640.627 725.398C627.692 726.171 619.905 720.086 617.265 707.147C600.335 708.007 593.035 716.767 595.364 733.429C598.981 739.449 602.387 745.533 605.585 751.68C607.296 752.195 608.998 751.953 610.695 750.95C613.231 752.585 615.909 754.045 618.726 755.33C624.566 752.41 630.406 749.49 636.247 746.57C638.958 752.086 641.878 757.684 645.007 763.361C642.115 770.358 639.437 777.416 636.977 784.532C634.744 786.327 633.04 788.517 631.866 791.103C637.932 801.386 635.499 808.445 624.566 812.274C622.786 811.16 621.326 809.7 620.186 807.894C618.381 808.983 616.433 809.47 614.345 809.354C614.161 806.872 613.187 804.682 611.425 802.784C612.082 800.908 613.056 799.204 614.345 797.673C613.78 795.892 612.564 794.918 610.695 794.753C603.959 797.365 597.389 800.285 590.984 803.514C592.981 806.634 594.441 810.04 595.364 813.735C597.592 815.787 600.026 817.49 602.664 818.845C601.997 819.449 601.509 820.179 601.204 821.035C604 823.329 605.46 826.249 605.585 829.796C607.531 829.796 609.479 829.796 611.425 829.796C611.174 832.704 612.148 835.137 614.345 837.096C610.309 846.272 604.225 854.058 596.094 860.458C595.311 863.917 593.607 866.837 590.984 869.219C591.47 870.192 591.957 871.165 592.444 872.139C589.431 878.765 585.781 885.091 581.493 891.12C576.733 895.553 571.136 898.473 564.702 899.881C561.92 899.056 559.488 897.596 557.401 895.5C555.596 896.59 553.649 897.076 551.561 896.961C551.594 893.894 550.62 891.218 548.64 888.93C550.559 884.209 549.585 880.073 545.72 876.519C543.939 878.287 542.235 878.287 540.61 876.519C538.547 873.377 537.33 869.969 536.96 866.298C534.682 866.326 532.492 866.812 530.389 867.758C527.894 866.196 525.704 864.25 523.819 861.918C520.472 864.143 517.552 863.657 515.058 860.458C512.306 862.077 509.386 863.295 506.297 864.108C500.359 876.851 490.625 885.611 477.095 890.39C469.547 889.421 462.002 889.664 454.464 891.12C451.476 887.81 448.312 887.81 444.973 891.12C443.513 891.12 442.053 891.12 440.593 891.12C440.27 887.062 440.756 883.168 442.053 879.439C444.444 882.069 447.121 884.501 450.083 886.74C451.6 885.654 452.33 884.193 452.273 882.359C466.486 887.831 479.869 885.884 492.426 876.519C494.817 869.792 497.981 863.466 501.917 857.538C504.021 856.364 506.211 855.39 508.488 854.617C511.197 856.422 513.874 856.422 516.518 854.617C518.808 857.602 521.485 858.09 524.549 856.078C527.416 857.485 529.849 859.431 531.849 861.918C534.428 860.848 537.104 860.36 539.88 860.458C539.88 862.404 539.88 864.352 539.88 866.298C541.416 866.081 542.876 866.323 544.26 867.028C547.053 869.643 549.487 872.564 551.561 875.789C553.449 876.504 555.396 876.748 557.401 876.519C556.218 880.729 556.218 884.867 557.401 888.93C559.898 891.282 562.574 893.472 565.432 895.5C570.689 893.239 575.312 890.075 579.303 886.01C578.54 885.191 578.054 884.217 577.843 883.09C581.51 876.947 584.188 870.376 585.873 863.378C588.55 860.702 591.227 858.024 593.904 855.348C592.652 854.342 591.68 853.125 590.984 851.697C596.281 847.378 601.147 842.754 605.585 837.826C603.986 832.405 600.579 828.755 595.364 826.875C596.983 824.373 596.009 823.399 592.444 823.955C590.779 820.268 589.805 816.374 589.523 812.274C588.063 812.274 586.603 812.274 585.143 812.274C584.959 809.792 583.985 807.602 582.223 805.704C582.458 802.848 582.944 799.928 583.683 796.943C587.273 794.758 590.924 794.514 594.634 796.213C600.038 793.769 605.392 791.335 610.695 788.913C613.752 792.153 617.159 793.613 620.916 793.293C619.85 798.595 621.554 802.975 626.026 806.434C627.762 802.349 627.276 798.456 624.566 794.753C628.34 785.601 631.991 776.841 635.517 768.471C635.768 763.615 635.524 758.748 634.787 753.87C629.314 755.386 623.96 757.332 618.726 759.711C614.523 756.999 610.143 756.512 605.585 758.251C603.151 757.764 601.69 756.304 601.204 753.87C599.468 752.514 597.522 752.028 595.364 752.41C593.978 749.144 593.004 745.736 592.444 742.189C590.984 742.189 589.523 742.189 588.063 742.189C590.449 736.683 589.477 731.817 585.143 727.588C587.089 725.642 587.089 723.694 585.143 721.748C590.769 715.881 596.122 709.797 601.204 703.497C604.795 701.311 608.445 701.067 612.155 702.766C614.031 702.109 615.735 701.136 617.265 699.846C619.072 703.508 621.748 706.428 625.296 708.607C627.572 711.114 628.789 714.034 628.946 717.368C631.855 717.116 634.287 718.09 636.247 720.288C637.221 719.802 638.193 719.314 639.167 718.828C641.655 721.078 644.331 723.025 647.198 724.668C651.052 723.791 652.746 721.358 652.308 717.368C650.22 717.252 648.278 717.738 646.468 718.828C645.114 716.472 643.896 714.04 642.817 711.527C641.341 712.749 639.637 713.235 637.707 712.987C639.18 709.265 640.396 705.373 641.357 701.306C645.205 698.443 647.884 694.793 649.388 690.356C648.132 689.35 647.164 688.133 646.468 686.705C648.628 685.274 650.57 683.57 652.308 681.595C650.673 681.231 649.213 680.501 647.928 679.405C653.388 673.953 658.251 668.112 662.529 661.883C661.127 655.773 659.17 649.933 656.688 644.362C657.17 643.388 657.667 642.416 658.148 641.442C656.936 633.887 654.98 626.587 652.308 619.54C650.848 619.54 649.388 619.54 647.928 619.54C649.753 611.573 654.615 606.218 662.529 603.479C664.514 606.908 666.953 607.151 669.829 604.209C672.501 601.533 675.188 598.855 677.86 596.179C677.568 593.805 677.568 591.371 677.86 588.878C684.182 583.524 690.519 578.171 696.841 572.817C697.031 568.029 698.009 563.163 699.761 558.216C702.2 555.782 704.624 553.349 707.062 550.915C710.274 546.068 712.961 540.958 715.092 535.584C718.115 534.581 721.035 534.825 723.853 536.314C737.783 532.063 751.902 528.168 766.196 524.634C769.876 527.208 773.278 530.128 776.417 533.394C779.498 531.734 782.652 530.274 785.908 529.014C788.404 529.855 790.113 531.559 791.018 534.124C792.726 534.64 794.435 534.397 796.128 533.394C797.588 534.368 799.049 535.341 800.509 536.314C804.991 529.878 810.598 524.28 817.3 519.523C815.533 516.261 816.511 513.827 820.22 512.223C825.754 508.675 831.594 507.458 837.741 508.572C839.201 507.598 840.662 506.626 842.122 505.652C843.742 507.274 845.684 508.248 847.962 508.572C853.306 507.264 858.65 507.02 864.023 507.842C870.579 504.807 876.916 501.4 883.005 497.622C884.917 493.865 887.341 490.458 890.305 487.401C898.73 482.236 906.512 476.396 913.667 469.88C917.653 470.202 921.551 469.96 925.348 469.15C928.122 469.974 930.56 471.435 932.648 473.53C933.802 472.901 935.028 472.413 936.298 472.07C938.839 473.705 941.511 475.165 944.329 476.45C948.388 475.812 952.287 475.812 956.01 476.45C957.441 477.147 958.653 478.119 959.66 479.37C962.858 475.463 965.53 471.327 967.691 466.959C970.582 465.961 973.02 466.691 974.991 469.15C976.451 468.176 977.911 467.203 979.372 466.229C981.854 468.479 984.54 470.427 987.402 472.07C989.782 471.518 991.972 470.545 993.973 469.15C992.425 468.557 990.483 468.557 988.132 469.15C988.614 465.34 990.804 462.906 994.703 461.849C995.185 462.335 995.681 462.823 996.163 463.309C1002.54 457.105 1007.65 450.048 1011.49 442.138C1013.93 440.921 1016.36 439.704 1018.79 438.487C1022.39 440.658 1025.79 443.092 1029.02 445.788C1031.31 444.607 1033.75 444.119 1036.32 444.328C1035.4 440.548 1035.4 436.897 1036.32 433.377C1034.43 426.69 1030.05 423.039 1023.17 422.426C1023.2 420.148 1023.69 417.958 1024.63 415.856C1023.66 414.396 1022.69 412.935 1021.71 411.475C1025 405.175 1025.96 398.605 1024.63 391.764C1020.69 391.1 1016.79 390.126 1012.95 388.844C1010.62 389.485 1008.43 390.459 1006.38 391.764C1004.6 390.637 1003.14 389.177 1002 387.384C1000.53 388.606 998.82 389.092 996.893 388.844C996.893 387.384 996.893 385.923 996.893 384.463C994.951 384.463 992.994 384.463 991.052 384.463C991.052 382.517 991.052 380.569 991.052 378.623C979.81 381.736 968.859 385.63 958.2 390.304C954.068 388.854 950.418 386.664 947.249 383.733C943.19 382.773 939.292 381.556 935.568 380.083C934.926 380.178 934.444 379.936 934.108 379.353C935.291 377.728 936.255 376.025 937.029 374.243C938.839 372.911 940.781 372.667 942.869 373.513C945.906 376.065 948.826 378.743 951.63 381.543C955.061 379.772 957.733 380.744 959.66 384.463C966.158 381.821 972.728 379.387 979.372 377.163C982.555 369.731 987.665 368.271 994.703 372.783C995.418 374.67 995.666 376.618 995.433 378.623C1000.41 379.56 1004.56 381.994 1007.84 385.923C1015.3 386.354 1022.85 386.354 1030.48 385.923C1033.28 390.518 1034.26 395.385 1033.4 400.525C1031.29 404.93 1029.83 409.554 1029.02 414.396C1032.08 417.484 1035 420.646 1037.78 423.886C1038.97 425.18 1040.43 425.666 1042.16 425.346C1042.24 430.004 1042.73 434.628 1043.62 439.217C1043.84 442.187 1042.86 444.621 1040.7 446.518C1036.01 447.403 1031.63 449.107 1027.56 451.628C1024.52 447.998 1020.63 446.538 1015.87 447.248C1016.09 448.784 1015.85 450.244 1015.14 451.628C1010.98 455.446 1007.33 459.584 1004.19 464.039C1004.87 464.644 1005.35 465.374 1005.65 466.229C999.258 470.437 992.688 474.33 985.942 477.91C983.109 476.539 980.671 474.591 978.642 472.07C976.656 473.355 974.466 473.842 972.071 473.53C972.1 475.929 971.122 477.875 969.151 479.37C969.633 480.344 970.129 481.317 970.611 482.29C968.421 484.119 965.982 485.579 963.31 486.671C960.492 485.386 957.82 483.926 955.28 482.29C951.25 482.75 947.351 482.75 943.599 482.29C941.511 481.663 939.803 480.445 938.489 478.64C933.495 478.493 928.867 477.276 924.618 474.99C921.537 477.198 918.368 477.685 915.127 476.45C908.775 478.629 904.395 482.765 901.986 488.861C890.991 498.376 878.829 506.163 865.483 512.223C861.76 513.186 858.11 512.942 854.533 511.493C850.138 514.481 845.509 514.969 840.662 512.953C836.792 513.84 832.908 514.571 828.981 515.143C823.52 520.424 817.928 525.534 812.19 530.474C812.569 532.593 812.336 534.539 811.459 536.314C801.808 544.279 792.799 543.793 784.448 534.854C780.505 536.955 776.359 538.415 772.037 539.235C772.591 534.91 771.131 533.45 767.656 534.854C766.357 533.65 765.875 532.19 766.196 530.474C749.828 533.295 733.767 537.189 718.013 542.155C718.246 544.16 717.998 546.107 717.283 547.995C709.676 554.846 705.777 563.12 705.602 572.817C699.513 576.46 695.133 581.328 692.461 587.418C687.175 591.717 683.043 596.827 680.05 602.749C675.188 605.669 670.311 608.59 665.449 611.51C663.58 612.509 661.872 612.265 660.339 610.78C659.287 611.574 658.557 612.548 658.148 613.7Z" fill="black"/>
<path fill-rule="evenodd" clip-rule="evenodd" d="M408.47 863.38C407.599 865.475 407.599 867.909 408.47 870.681C412.232 870.615 415.152 872.075 417.23 875.061C417.23 876.521 417.23 877.981 417.23 879.441C417.143 880.234 416.656 880.72 415.77 880.901C409.925 878.126 404.571 874.719 399.709 870.681C402.488 862.373 401.515 854.342 396.789 846.589C397.554 841.838 398.04 837.215 398.249 832.718C394.809 824.968 391.645 817.181 388.758 809.356C384.378 812.265 379.754 812.265 374.887 809.356C372.617 809.68 370.669 810.654 369.047 812.276C367.083 811.04 365.623 809.337 364.666 807.166C360.975 806.416 357.811 804.713 355.176 802.056C357.286 797.367 358.016 792.501 357.366 787.455C351.343 779.824 347.693 771.064 346.415 761.173C344.939 759.951 343.235 759.464 341.305 759.713C341.087 758.177 341.33 756.717 342.035 755.332C348.153 750.318 353.993 744.966 359.556 739.271C361.418 735.31 362.635 731.172 363.206 726.86C361.829 722.646 361.829 718.508 363.206 714.449C361.091 709.041 358.17 704.173 354.446 699.848C352.71 698.492 350.763 698.006 348.605 698.388C348.195 694.792 346.735 691.628 344.225 688.898C339.71 687.261 335.33 685.558 331.084 683.787C331.084 681.353 331.084 678.921 331.084 676.487C325.001 673.146 318.673 670.47 312.103 668.456C312.669 670.683 312.669 673.117 312.103 675.757C305.288 679.163 298.475 682.571 291.661 685.977C289.307 687.029 287.117 686.786 285.091 685.247C281.5 687.51 280.526 690.431 282.17 694.008C278.52 696.684 274.87 699.362 271.22 702.038C271.982 702.858 272.468 703.831 272.68 704.959C267.114 710.525 261.517 716.121 255.889 721.75C255.234 727.712 251.828 731.119 245.668 731.971C243.768 731.768 242.552 730.795 242.018 729.05C246.693 725.594 250.585 721.458 253.698 716.64C251.599 716.32 249.652 715.59 247.858 714.449C253.274 708.794 259.358 703.928 266.109 699.848C270.246 693.764 274.384 687.681 278.52 681.597C282.305 678.009 285.955 677.766 289.471 680.867C296.557 675.238 303.127 669.154 309.182 662.616C311.616 661.399 314.049 660.182 316.483 658.965C320.965 661.783 324.86 665.19 328.164 669.186C330.42 670.576 332.854 671.062 335.464 670.646C335.048 673.257 335.534 675.691 336.924 677.947C338.957 679.56 340.661 681.508 342.035 683.787C345.269 681.86 347.459 682.834 348.605 686.707C350.861 688.097 353.295 688.584 355.906 688.167C356.392 691.088 356.88 694.008 357.366 696.928C359.524 696.546 361.47 697.032 363.206 698.388C365.045 702.043 366.991 705.693 369.047 709.339C367.238 712.57 367.724 715.49 370.507 718.1C368.561 720.534 368.561 722.966 370.507 725.4C369.918 727.551 368.945 729.497 367.587 731.241C369.645 731.778 371.105 732.994 371.967 734.891C365.164 741.447 358.108 747.773 350.795 753.872C350.08 755.76 349.836 757.708 350.065 759.713C351.525 759.713 352.986 759.713 354.446 759.713C354.123 768.359 357.043 775.66 363.206 781.614C364.363 784.483 365.337 787.404 366.127 790.375C363.687 793.31 362.713 796.716 363.206 800.596C365.153 800.596 367.1 800.596 369.047 800.596C369.047 802.056 369.047 803.516 369.047 804.976C371.325 804.948 373.515 804.462 375.617 803.516C378.051 804.49 380.484 805.462 382.918 806.436C386.895 804.703 391.032 803.73 395.329 803.516C395.831 807.987 396.805 812.367 398.249 816.657C404.957 823.671 406.903 831.946 404.089 841.479C405.957 848.727 407.417 856.027 408.47 863.38Z" fill="black"/>
<path fill-rule="evenodd" clip-rule="evenodd" d="M242.016 729.051C234.486 734.393 227.672 740.478 221.574 747.302C216.804 750.098 214.858 748.394 215.734 742.192C214.274 742.192 212.814 742.192 211.354 742.192C211.381 739.914 211.868 737.724 212.814 735.621C209.88 732.959 207.933 729.795 206.973 726.131C205.437 726.348 203.977 726.106 202.593 725.401C198.164 720.135 192.81 718.431 186.532 720.29C184.571 708.809 180.191 698.346 173.391 688.898C169.879 688.682 166.471 689.412 163.17 691.088C159.397 688.674 155.503 688.188 151.489 689.628C149.198 687.855 147.982 685.421 147.839 682.327C143.936 686.579 140.772 686.093 138.348 680.867C136.96 682.073 135.5 682.316 133.968 681.597C130.156 677.51 126.748 673.13 123.747 668.456C121.183 668.252 118.751 668.982 116.447 670.647C114.414 669.033 112.71 667.085 111.336 664.806C109.86 666.028 108.156 666.514 106.226 666.266C106.226 664.806 106.226 663.346 106.226 661.886C103.158 658.717 98.778 655.797 93.0851 653.125C90.6058 654.85 88.1718 654.85 85.7845 653.125C87.1322 649.586 89.3224 646.666 92.355 644.365C93.0778 641.484 93.3216 638.564 93.0851 635.604C91.625 635.604 90.1649 635.604 88.7048 635.604C89.6275 631.205 90.1152 626.824 90.1649 622.463C90.2335 620.273 89.2611 618.813 87.2447 618.083C84.8574 619.295 82.4234 619.538 79.9441 618.813C75.1199 624.868 69.2795 629.491 62.4229 632.684C58.8354 629.038 54.9427 627.092 50.742 626.843C51.2589 621.762 53.2052 617.382 56.5824 613.702C54.2959 614.522 52.3496 613.548 50.742 610.782C55.7575 607.668 60.8678 604.748 66.0731 602.022C70.5177 605.954 73.1941 604.737 74.1037 598.371C73.2262 596.028 71.7661 594.081 69.7234 592.531C62.2593 594.296 54.9588 596.974 47.8218 600.561C42.3479 597.243 36.9951 597.243 31.7606 600.561C30.1034 597.339 29.131 593.933 28.8404 590.341C26.6824 590.723 24.7361 590.237 23 588.881C26.1991 581.76 30.0917 574.945 34.6808 568.439C40.0278 568.408 45.382 567.921 50.742 566.979C50.742 568.439 50.742 569.899 50.742 571.359C45.8711 572.97 41.0031 574.674 36.141 576.47C37.8464 579.202 37.1163 581.392 33.9508 583.04C32.9769 584.986 32.9769 586.934 33.9508 588.881C34.5553 588.213 35.2853 587.726 36.141 587.42C38.115 588.907 39.5751 590.853 40.5213 593.261C43.1422 594.378 45.8185 595.352 48.5518 596.181C55.1398 592.401 61.9527 588.993 68.9933 585.96C71.8318 587.331 74.2658 589.279 76.2939 591.801C77.3422 590.412 78.5585 590.17 79.9441 591.071C79.8186 595.571 80.0624 600.195 80.6742 604.942C75.3287 607.735 69.7321 609.925 63.883 611.512C61.1599 615.291 59.9436 619.429 60.2327 623.923C61.4548 626.124 63.1587 626.854 65.3431 626.113C67.1375 623.881 69.3277 622.177 71.9135 621.003C75.5711 611.555 82.1416 608.878 91.625 612.972C92.4061 616.052 93.8662 616.782 96.0053 615.163C97.4654 615.649 98.4393 616.623 98.9255 618.083C97.5632 623.819 97.077 629.66 97.4654 635.604C98.9255 635.604 100.386 635.604 101.846 635.604C100.716 639.811 98.7693 643.705 96.0053 647.285C97.9268 651.421 100.847 652.638 104.766 650.935C106.712 652.395 106.712 653.855 104.766 655.315C106.15 656.021 107.61 656.263 109.146 656.045C109.146 657.506 109.146 658.966 109.146 660.426C112.868 660.34 115.788 661.8 117.907 664.806C120.183 663.423 122.617 662.451 125.207 661.886C127.479 663.415 129.913 664.389 132.508 664.806C133.41 669.038 135.114 672.932 137.618 676.487C140.663 674.812 142.853 675.786 144.189 679.407C146.632 677.091 149.552 676.118 152.949 676.487C152.949 678.433 152.949 680.381 152.949 682.327C157.214 681.811 160.621 683.271 163.17 686.708C166.415 684.842 169.822 683.382 173.391 682.327C175.825 682.814 177.285 684.274 177.771 686.708C179.507 688.064 181.454 688.55 183.612 688.168C187.293 696.356 190.699 704.631 193.832 712.99C199.486 715.092 204.84 717.525 209.894 720.29C209.894 721.75 209.894 723.21 209.894 724.67C212.292 724.641 214.239 725.615 215.734 727.591C217.539 726.501 219.486 726.015 221.574 726.131C221.449 729.309 220.475 732.229 218.654 734.891C219.527 736.782 220.257 738.728 220.844 740.732C223.034 738.541 225.225 736.351 227.415 734.161C225.468 732.701 225.468 731.241 227.415 729.781C231.667 727.776 235.805 725.586 239.826 723.21C241.56 724.762 242.29 726.71 242.016 729.051Z" fill="black"/>
<path fill-rule="evenodd" clip-rule="evenodd" d="M452.272 872.143C448.832 875.51 448.832 878.917 452.272 882.364C452.329 884.198 451.599 885.658 450.082 886.745C447.119 884.506 444.443 882.074 442.051 879.444C447.227 870.498 444.793 867.578 434.751 870.683C433.969 867.842 432.023 866.382 428.91 866.303C430.364 864.602 432.311 863.628 434.751 863.383C437.938 865.182 441.101 865.182 444.241 863.383C446.058 866.414 448.734 867.874 452.272 867.763C452.272 869.223 452.272 870.683 452.272 872.143Z" fill="black"/>
<path fill-rule="evenodd" clip-rule="evenodd" d="M425.989 875.06C426.986 877.507 428.934 878.481 431.83 877.98C430.238 881.118 427.56 883.065 423.799 883.821C422.159 881.485 419.969 880.025 417.229 879.441C417.229 877.98 417.229 876.52 417.229 875.06C419.925 873.494 422.846 873.494 425.989 875.06Z" fill="black"/>
<path d="M371.072 489.924H381.463C381.963 494.173 386.391 496.959 392.105 496.959C397.854 496.959 401.782 494.209 401.782 490.424C401.782 487.067 399.318 485.21 393.104 483.818L386.391 482.354C376.892 480.318 372.214 475.497 372.214 467.963C372.214 458.464 380.428 452.179 391.926 452.179C403.925 452.179 411.459 458.357 411.638 467.677H401.532C401.175 463.32 397.354 460.678 391.962 460.678C386.641 460.678 383.07 463.213 383.07 467.034C383.07 470.212 385.57 471.998 391.498 473.355L397.747 474.676C408.067 476.89 412.566 481.318 412.566 489.174C412.566 499.173 404.46 505.493 391.676 505.493C379.285 505.493 371.393 499.601 371.072 489.924ZM418.565 504.601V453.072H428.814V473.14H429.028C431.064 468.32 435.242 465.606 441.062 465.606C449.561 465.606 454.418 471.105 454.418 479.961V504.601H443.991V482.175C443.991 477.247 441.562 474.247 436.813 474.247C431.885 474.247 428.993 477.711 428.993 482.746V504.601H418.565ZM461.274 504.601V466.32H471.701V504.601H461.274ZM466.488 462.106C463.345 462.106 460.917 459.714 460.917 456.714C460.917 453.679 463.345 451.322 466.488 451.322C469.63 451.322 472.058 453.679 472.058 456.714C472.058 459.714 469.63 462.106 466.488 462.106ZM478.665 504.601V466.32H488.735V473.248H488.949C490.556 468.641 494.663 465.606 499.876 465.606C505.411 465.606 509.268 468.462 510.553 473.462H510.768C512.482 468.641 517.052 465.606 522.659 465.606C530.158 465.606 535.193 470.748 535.193 478.461V504.601H524.766V481.068C524.766 476.64 522.552 474.212 518.517 474.212C514.553 474.212 511.946 477.104 511.946 481.354V504.601H501.912V480.747C501.912 476.64 499.591 474.212 495.734 474.212C491.77 474.212 489.092 477.211 489.092 481.496V504.601H478.665ZM542.049 504.601V453.072H552.476V504.601H542.049ZM574.295 497.673C578.83 497.673 582.58 494.709 582.58 490.567V487.781L574.509 488.281C570.617 488.567 568.403 490.317 568.403 493.031C568.403 495.887 570.76 497.673 574.295 497.673ZM570.867 505.208C563.582 505.208 558.047 500.494 558.047 493.602C558.047 486.639 563.404 482.603 572.938 482.032L582.58 481.461V478.925C582.58 475.354 580.08 473.283 576.152 473.283C572.26 473.283 569.796 475.212 569.296 478.033H559.761C560.154 470.605 566.475 465.499 576.616 465.499C586.436 465.499 592.828 470.569 592.828 478.283V504.601H582.758V498.744H582.544C580.401 502.815 575.652 505.208 570.867 505.208Z" fill="black"/>
<path d="M295.4 571.144H306.418C315.077 571.144 320.176 576.303 320.176 585.462C320.176 594.621 315.077 600 306.418 600H295.4V571.144ZM301.439 576.123V595.001H305.698C311.098 595.001 314.017 591.721 314.017 585.482C314.017 579.443 311.018 576.123 305.698 576.123H301.439ZM331.735 596.121C334.275 596.121 336.374 594.461 336.374 592.141V590.581L331.855 590.861C329.675 591.021 328.435 592.001 328.435 593.521C328.435 595.121 329.755 596.121 331.735 596.121ZM329.815 600.34C325.736 600.34 322.636 597.7 322.636 593.841C322.636 589.941 325.636 587.682 330.975 587.362L336.374 587.042V585.622C336.374 583.622 334.974 582.462 332.775 582.462C330.595 582.462 329.215 583.542 328.935 585.122H323.596C323.816 580.963 327.355 578.103 333.035 578.103C338.534 578.103 342.114 580.943 342.114 585.262V600H336.474V596.72H336.354C335.154 599 332.495 600.34 329.815 600.34ZM348.513 607.939C348.313 607.939 346.493 607.919 346.313 607.879V603.38C346.493 603.42 347.553 603.42 347.773 603.42C349.913 603.42 350.972 602.74 351.372 601.04C351.372 600.96 351.592 600.1 351.552 600.02L344.093 578.563H350.512L355.072 595.321H355.172L359.731 578.563H365.89L358.511 600.48C356.672 605.979 353.992 607.939 348.513 607.939ZM383.488 600V576.683H383.368L376.009 581.762V576.323L383.468 571.144H389.467V600H383.488Z" fill="black"/>
<path d="M605.4 273.144H616.418C625.077 273.144 630.176 278.303 630.176 287.462C630.176 296.621 625.077 302 616.418 302H605.4V273.144ZM611.439 278.123V297.001H615.698C621.098 297.001 624.017 293.721 624.017 287.482C624.017 281.443 621.018 278.123 615.698 278.123H611.439ZM641.735 298.121C644.275 298.121 646.374 296.461 646.374 294.141V292.581L641.855 292.861C639.675 293.021 638.435 294.001 638.435 295.521C638.435 297.121 639.755 298.121 641.735 298.121ZM639.815 302.34C635.736 302.34 632.636 299.7 632.636 295.841C632.636 291.941 635.636 289.682 640.975 289.362L646.374 289.042V287.622C646.374 285.622 644.974 284.462 642.775 284.462C640.595 284.462 639.215 285.542 638.935 287.122H633.596C633.816 282.963 637.355 280.103 643.035 280.103C648.534 280.103 652.114 282.943 652.114 287.262V302H646.474V298.72H646.354C645.154 301 642.495 302.34 639.815 302.34ZM658.513 309.939C658.313 309.939 656.493 309.919 656.313 309.879V305.38C656.493 305.42 657.553 305.42 657.773 305.42C659.913 305.42 660.972 304.74 661.372 303.04C661.372 302.96 661.592 302.1 661.552 302.02L654.093 280.563H660.512L665.072 297.321H665.172L669.731 280.563H675.89L668.511 302.48C666.672 307.979 663.992 309.939 658.513 309.939ZM685.929 281.823C685.929 276.363 690.289 272.504 696.588 272.504C702.667 272.504 706.846 276.023 706.846 280.843C706.846 284.442 704.447 287.142 701.267 290.302L694.228 297.081V297.201H707.246V302H686.269V297.941L697.148 287.462C700.067 284.542 700.967 283.082 700.967 281.083C700.967 278.923 699.067 277.203 696.388 277.203C693.588 277.203 691.528 279.163 691.528 281.823V281.923H685.929V281.823Z" fill="black"/>
<path d="M197 564.973C329.894 538.977 392.012 551.585 488 607" stroke="black" stroke-width="4" stroke-dasharray="12 12"/>
<path d="M548.137 355.731C669.438 318.963 728.307 326.44 822.424 373.788" stroke="black" stroke-width="4" stroke-dasharray="12 12"/>
<path d="M588.68 111.452C608.364 220.202 592.848 269.59 533.001 343.81" stroke="black" stroke-width="4" stroke-dasharray="12 12"/>
<path d="M577.578 109.854V87.0862C575.422 86.5471 573.638 85.4066 572.228 83.6647C570.818 81.9229 570.113 79.8908 570.113 77.5684H575.09C575.09 78.8955 575.578 80.0467 576.553 81.0222C577.528 81.9976 578.679 82.4845 580.004 82.4828H582.555V77.1329C580.398 76.5938 578.615 75.4533 577.205 73.7115C575.795 71.9696 575.09 69.9375 575.09 67.6151H580.067C580.067 68.9422 580.554 70.0926 581.53 71.0664C582.505 72.0402 583.656 72.5279 584.981 72.5295H586.287L597.485 57.5996L608.682 72.5295H609.989C611.316 72.5295 612.467 72.0426 613.442 71.0689C614.418 70.0951 614.905 68.9439 614.903 67.6151H619.88C619.88 69.9375 619.175 71.9696 617.765 73.7115C616.355 75.4533 614.571 76.5938 612.415 77.1329V82.4828H614.965C616.292 82.4828 617.444 81.9959 618.419 81.0222C619.394 80.0484 619.881 78.8971 619.88 77.5684H624.856C624.856 79.8908 624.151 81.9229 622.741 83.6647C621.331 85.4066 619.548 86.5471 617.391 87.0862V109.854H599.973V99.901C599.973 99.196 599.734 98.6054 599.256 98.1293C598.779 97.6532 598.188 97.4144 597.485 97.4127C596.781 97.411 596.191 97.6499 595.713 98.1293C595.235 98.6088 594.996 99.1993 594.996 99.901V109.854H577.578ZM592.508 72.5295H602.461L597.485 65.8733L592.508 72.5295ZM587.532 82.4828H607.438V77.5062H587.532V82.4828ZM582.555 104.878H590.02V99.901C590.02 97.8274 590.746 96.0649 592.197 94.6133C593.649 93.1618 595.411 92.4361 597.485 92.4361C599.558 92.4361 601.321 93.1618 602.772 94.6133C604.224 96.0649 604.95 97.8274 604.95 99.901V104.878H612.415V87.4594H582.555V104.878Z" fill="url(#paint0_linear_289_4930)"/>
<path d="M550.34 85.5132C550.34 86.7735 549.839 87.9822 548.948 88.8734C548.057 89.7646 546.848 90.2652 545.588 90.2652C544.328 90.2652 543.119 89.7646 542.228 88.8734C541.337 87.9822 540.836 86.7735 540.836 85.5132C540.836 84.2529 541.337 83.0442 542.228 82.1531C543.119 81.2619 544.328 80.7612 545.588 80.7612C546.848 80.7612 548.057 81.2619 548.948 82.1531C549.839 83.0442 550.34 84.2529 550.34 85.5132Z" fill="black"/>
<path d="M530.381 85.5115C530.381 85.5115 536.083 75.0571 545.587 75.0571C555.091 75.0571 560.794 85.5115 560.794 85.5115C560.794 85.5115 555.091 95.9659 545.587 95.9659C536.083 95.9659 530.381 85.5115 530.381 85.5115ZM545.587 92.1643C547.352 92.1643 549.044 91.4634 550.291 90.2158C551.539 88.9681 552.24 87.276 552.24 85.5115C552.24 83.7471 551.539 82.0549 550.291 80.8073C549.044 79.5596 547.352 78.8587 545.587 78.8587C543.823 78.8587 542.131 79.5596 540.883 80.8073C539.635 82.0549 538.934 83.7471 538.934 85.5115C538.934 87.276 539.635 88.9681 540.883 90.2158C542.131 91.4634 543.823 92.1643 545.587 92.1643Z" fill="black"/>
<path d="M516.632 26H514.382V11.1091H514.288L508.128 25.8661H506.093L499.933 11.1091H499.839V26H497.59V6.67665H500.388L507.057 22.7995H507.164L513.833 6.67665H516.632V26ZM524.211 24.2592C526.407 24.2592 528.095 22.7192 528.095 20.7105V19.5723L524.372 19.7999C522.497 19.9204 521.426 20.7507 521.426 22.063C521.426 23.3887 522.537 24.2592 524.211 24.2592ZM523.689 26.241C520.917 26.241 519.056 24.5672 519.056 22.063C519.056 19.6794 520.89 18.1796 524.104 17.9921L528.095 17.7645V16.5994C528.095 14.8988 526.97 13.8811 525.041 13.8811C523.247 13.8811 522.122 14.7247 521.827 16.0906H519.578C519.738 13.6802 521.801 11.8322 525.095 11.8322C528.362 11.8322 530.425 13.5998 530.425 16.3718V26H528.215V23.603H528.161C527.331 25.1965 525.564 26.241 523.689 26.241ZM533.505 26V6.67665H535.835V14.2962H535.888C536.665 12.7428 538.191 11.8322 540.307 11.8322C543.36 11.8322 545.208 13.8944 545.208 17.0012V26H542.878V17.4297C542.878 15.2202 541.767 13.8944 539.584 13.8944C537.267 13.8944 535.835 15.4746 535.835 17.885V26H533.505ZM559.604 12.0733V26H557.394V23.7369H557.341C556.51 25.3438 555.064 26.241 552.922 26.241C549.882 26.241 548.101 24.2725 548.101 21.1122V12.0733H550.431V20.6971C550.431 22.9602 551.489 24.1788 553.645 24.1788C555.908 24.1788 557.274 22.6254 557.274 20.2552V12.0733H559.604ZM571 26H568.616V6.67665H570.959L581.538 21.8488H581.659V6.67665H584.043V26H581.699L571.12 10.8815H571V26ZM591.622 24.2592C593.818 24.2592 595.505 22.7192 595.505 20.7105V19.5723L591.783 19.7999C589.908 19.9204 588.837 20.7507 588.837 22.063C588.837 23.3887 589.948 24.2592 591.622 24.2592ZM591.1 26.241C588.328 26.241 586.466 24.5672 586.466 22.063C586.466 19.6794 588.301 18.1796 591.515 17.9921L595.505 17.7645V16.5994C595.505 14.8988 594.38 13.8811 592.452 13.8811C590.658 13.8811 589.533 14.7247 589.238 16.0906H586.989C587.149 13.6802 589.211 11.8322 592.506 11.8322C595.773 11.8322 597.835 13.5998 597.835 16.3718V26H595.626V23.603H595.572C594.742 25.1965 592.974 26.241 591.1 26.241ZM606.459 24.0583C608.883 24.0583 610.503 22.0496 610.503 18.9831C610.503 15.9165 608.883 13.8811 606.459 13.8811C604.062 13.8811 602.495 15.8629 602.495 18.9831C602.495 22.1032 604.062 24.0583 606.459 24.0583ZM606.54 31.2493C603.473 31.2493 601.049 29.5219 600.661 27.1516H603.058C603.513 28.4238 604.892 29.2674 606.633 29.2674C609.044 29.2674 610.503 27.8748 610.503 25.7991V23.603H610.45C609.593 25.1162 607.946 26.1071 605.991 26.1071C602.442 26.1071 600.112 23.3084 600.112 18.9831C600.112 14.6176 602.442 11.8322 606.044 11.8322C608.013 11.8322 609.646 12.7964 610.57 14.4167H610.61V12.0733H612.833V25.7188C612.833 29.0398 610.383 31.2493 606.54 31.2493ZM629.157 26H626.747V8.846H620.654V6.67665H635.25V8.846H629.157V26ZM639.401 13.8543C637.219 13.8543 635.692 15.5282 635.545 17.8448H643.111C643.057 15.5148 641.597 13.8543 639.401 13.8543ZM643.057 22.0095H645.347C644.945 24.4466 642.588 26.241 639.549 26.241C635.558 26.241 633.134 23.4691 633.134 19.0902C633.134 14.7649 635.598 11.8322 639.442 11.8322C643.204 11.8322 645.521 14.564 645.521 18.7822V19.666H635.531V19.7999C635.531 22.4648 637.098 24.219 639.602 24.219C641.37 24.219 642.669 23.3218 643.057 22.0095ZM647.878 26V12.0733H650.074V14.2962H650.128C650.784 12.8232 652.203 11.8322 654.078 11.8322C655.98 11.8322 657.386 12.7964 657.988 14.4837H658.042C658.818 12.8232 660.452 11.8322 662.407 11.8322C665.166 11.8322 666.947 13.6266 666.947 16.3852V26H664.617V16.9208C664.617 15.0193 663.559 13.8944 661.724 13.8944C659.876 13.8944 658.577 15.2603 658.577 17.1485V26H656.247V16.6664C656.247 14.9925 655.122 13.8944 653.395 13.8944C651.547 13.8944 650.208 15.3407 650.208 17.269V26H647.878ZM676.682 11.8322C680.231 11.8322 682.641 14.6711 682.641 19.0366C682.641 23.4021 680.244 26.241 676.736 26.241C674.74 26.241 673.134 25.2635 672.303 23.7369H672.25V30.6467H669.92V12.0733H672.129V14.4301H672.183C673.04 12.8633 674.66 11.8322 676.682 11.8322ZM676.227 24.1922C678.704 24.1922 680.258 22.1969 680.258 19.0366C680.258 15.8897 678.704 13.8811 676.227 13.8811C673.843 13.8811 672.236 15.9433 672.236 19.0366C672.236 22.1434 673.843 24.1922 676.227 24.1922ZM685.119 26V6.67665H687.449V26H685.119ZM696.18 13.8543C693.997 13.8543 692.47 15.5282 692.323 17.8448H699.889C699.835 15.5148 698.376 13.8543 696.18 13.8543ZM699.835 22.0095H702.125C701.724 24.4466 699.367 26.241 696.327 26.241C692.336 26.241 689.913 23.4691 689.913 19.0902C689.913 14.7649 692.377 11.8322 696.22 11.8322C699.983 11.8322 702.299 14.564 702.299 18.7822V19.666H692.31V19.7999C692.31 22.4648 693.876 24.219 696.38 24.219C698.148 24.219 699.447 23.3218 699.835 22.0095Z" fill="black"/>
<path d="M852.465 473.054V450.286C850.308 449.747 848.525 448.607 847.115 446.865C845.705 445.123 845 443.091 845 440.769H849.977C849.977 442.096 850.464 443.247 851.44 444.222C852.415 445.198 853.566 445.685 854.891 445.683H857.442V440.333C855.285 439.794 853.502 438.653 852.092 436.912C850.682 435.17 849.977 433.138 849.977 430.815H854.953C854.953 432.142 855.441 433.293 856.416 434.267C857.392 435.24 858.542 435.728 859.868 435.73H861.174L872.372 420.8L883.569 435.73H884.875C886.202 435.73 887.354 435.243 888.329 434.269C889.305 433.295 889.791 432.144 889.79 430.815H894.766C894.766 433.138 894.061 435.17 892.651 436.912C891.241 438.653 889.458 439.794 887.301 440.333V445.683H889.852C891.179 445.683 892.33 445.196 893.306 444.222C894.281 443.249 894.768 442.097 894.766 440.769H899.743C899.743 443.091 899.038 445.123 897.628 446.865C896.218 448.607 894.435 449.747 892.278 450.286V473.054H874.86V463.101C874.86 462.396 874.621 461.806 874.143 461.33C873.665 460.853 873.075 460.615 872.372 460.613C871.668 460.611 871.078 460.85 870.6 461.33C870.122 461.809 869.883 462.4 869.883 463.101V473.054H852.465ZM867.395 435.73H877.348L872.372 429.073L867.395 435.73ZM862.418 445.683H882.325V440.706H862.418V445.683ZM857.442 468.078H864.907V463.101C864.907 461.028 865.632 459.265 867.084 457.814C868.535 456.362 870.298 455.636 872.372 455.636C874.445 455.636 876.208 456.362 877.659 457.814C879.111 459.265 879.836 461.028 879.836 463.101V468.078H887.301V450.66H857.442V468.078Z" fill="url(#paint1_linear_289_4930)"/>
<path d="M825.227 448.713C825.227 449.974 824.726 451.182 823.835 452.074C822.944 452.965 821.735 453.465 820.475 453.465C819.214 453.465 818.006 452.965 817.114 452.074C816.223 451.182 815.723 449.974 815.723 448.713C815.723 447.453 816.223 446.244 817.114 445.353C818.006 444.462 819.214 443.961 820.475 443.961C821.735 443.961 822.944 444.462 823.835 445.353C824.726 446.244 825.227 447.453 825.227 448.713Z" fill="black"/>
<path d="M805.268 448.712C805.268 448.712 810.97 438.257 820.474 438.257C829.978 438.257 835.68 448.712 835.68 448.712C835.68 448.712 829.978 459.166 820.474 459.166C810.97 459.166 805.268 448.712 805.268 448.712ZM820.474 455.365C822.238 455.365 823.931 454.664 825.178 453.416C826.426 452.168 827.127 450.476 827.127 448.712C827.127 446.947 826.426 445.255 825.178 444.007C823.931 442.76 822.238 442.059 820.474 442.059C818.71 442.059 817.017 442.76 815.77 444.007C814.522 445.255 813.821 446.947 813.821 448.712C813.821 450.476 814.522 452.168 815.77 453.416C817.017 454.664 818.71 455.365 820.474 455.365Z" fill="black"/>
<path d="M766.301 413.2H763.891V404.402H753.285V413.2H750.875V393.877H753.285V402.233H763.891V393.877H766.301V413.2ZM773.881 411.459C776.077 411.459 777.764 409.919 777.764 407.911V406.772L774.041 407C772.167 407.121 771.095 407.951 771.095 409.263C771.095 410.589 772.207 411.459 773.881 411.459ZM773.358 413.441C770.586 413.441 768.725 411.767 768.725 409.263C768.725 406.88 770.56 405.38 773.774 405.192L777.764 404.965V403.8C777.764 402.099 776.639 401.081 774.711 401.081C772.917 401.081 771.792 401.925 771.497 403.291H769.247C769.408 400.88 771.47 399.032 774.764 399.032C778.032 399.032 780.094 400.8 780.094 403.572V413.2H777.885V410.803H777.831C777.001 412.397 775.233 413.441 773.358 413.441ZM783.803 395.912H786.134V399.273H788.839V401.188H786.134V409.464C786.134 410.736 786.669 411.312 787.861 411.312C788.129 411.312 788.664 411.272 788.825 411.245V413.2C788.544 413.267 787.901 413.307 787.352 413.307C784.794 413.307 783.803 412.263 783.803 409.585V401.188H781.728V399.273H783.803V395.912ZM802.765 399.273V413.2H800.556V410.937H800.502C799.672 412.544 798.226 413.441 796.083 413.441C793.043 413.441 791.262 411.473 791.262 408.312V399.273H793.592V407.897C793.592 410.16 794.65 411.379 796.806 411.379C799.069 411.379 800.435 409.826 800.435 407.455V399.273H802.765ZM830.82 413.2H828.57V398.309H828.476L822.316 413.066H820.281L814.121 398.309H814.027V413.2H811.777V393.877H814.576L821.245 410H821.352L828.021 393.877H830.82V413.2ZM838.399 411.459C840.595 411.459 842.282 409.919 842.282 407.911V406.772L838.56 407C836.685 407.121 835.614 407.951 835.614 409.263C835.614 410.589 836.725 411.459 838.399 411.459ZM837.877 413.441C835.105 413.441 833.243 411.767 833.243 409.263C833.243 406.88 835.078 405.38 838.292 405.192L842.282 404.965V403.8C842.282 402.099 841.158 401.081 839.229 401.081C837.435 401.081 836.31 401.925 836.015 403.291H833.766C833.926 400.88 835.989 399.032 839.283 399.032C842.55 399.032 844.612 400.8 844.612 403.572V413.2H842.403V410.803H842.349C841.519 412.397 839.751 413.441 837.877 413.441ZM848.322 395.912H850.652V399.273H853.357V401.188H850.652V409.464C850.652 410.736 851.187 411.312 852.379 411.312C852.647 411.312 853.183 411.272 853.343 411.245V413.2C853.062 413.267 852.419 413.307 851.87 413.307C849.313 413.307 848.322 412.263 848.322 409.585V401.188H846.246V399.273H848.322V395.912ZM860.173 411.459C862.369 411.459 864.056 409.919 864.056 407.911V406.772L860.334 407C858.459 407.121 857.388 407.951 857.388 409.263C857.388 410.589 858.499 411.459 860.173 411.459ZM859.651 413.441C856.879 413.441 855.017 411.767 855.017 409.263C855.017 406.88 856.852 405.38 860.066 405.192L864.056 404.965V403.8C864.056 402.099 862.931 401.081 861.003 401.081C859.209 401.081 858.084 401.925 857.789 403.291H855.54C855.7 400.88 857.762 399.032 861.057 399.032C864.324 399.032 866.386 400.8 866.386 403.572V413.2H864.177V410.803H864.123C863.293 412.397 861.525 413.441 859.651 413.441ZM875.72 395.912H878.05V399.273H880.755V401.188H878.05V409.464C878.05 410.736 878.586 411.312 879.777 411.312C880.045 411.312 880.581 411.272 880.742 411.245V413.2C880.46 413.267 879.818 413.307 879.269 413.307C876.711 413.307 875.72 412.263 875.72 409.585V401.188H873.644V399.273H875.72V395.912ZM888.428 401.054C886.245 401.054 884.719 402.728 884.571 405.045H892.137C892.084 402.715 890.624 401.054 888.428 401.054ZM892.084 409.21H894.374C893.972 411.647 891.615 413.441 888.575 413.441C884.585 413.441 882.161 410.669 882.161 406.29C882.161 401.965 884.625 399.032 888.468 399.032C892.231 399.032 894.548 401.764 894.548 405.982V406.866H884.558V407C884.558 409.665 886.125 411.419 888.629 411.419C890.397 411.419 891.696 410.522 892.084 409.21ZM896.905 413.2V399.273H899.101V401.496H899.154C899.811 400.023 901.23 399.032 903.105 399.032C905.006 399.032 906.412 399.997 907.015 401.684H907.069C907.845 400.023 909.479 399.032 911.434 399.032C914.193 399.032 915.974 400.827 915.974 403.585V413.2H913.644V404.121C913.644 402.219 912.586 401.095 910.751 401.095C908.903 401.095 907.604 402.461 907.604 404.349V413.2H905.274V403.867C905.274 402.193 904.149 401.095 902.422 401.095C900.574 401.095 899.235 402.541 899.235 404.469V413.2H896.905ZM925.709 399.032C929.258 399.032 931.668 401.871 931.668 406.237C931.668 410.602 929.271 413.441 925.762 413.441C923.767 413.441 922.16 412.464 921.33 410.937H921.276V417.847H918.946V399.273H921.156V401.63H921.21C922.067 400.064 923.687 399.032 925.709 399.032ZM925.254 411.392C927.731 411.392 929.284 409.397 929.284 406.237C929.284 403.09 927.731 401.081 925.254 401.081C922.87 401.081 921.263 403.143 921.263 406.237C921.263 409.344 922.87 411.392 925.254 411.392ZM934.145 413.2V393.877H936.475V413.2H934.145ZM945.206 401.054C943.024 401.054 941.497 402.728 941.35 405.045H948.916C948.862 402.715 947.403 401.054 945.206 401.054ZM948.862 409.21H951.152C950.75 411.647 948.393 413.441 945.354 413.441C941.363 413.441 938.939 410.669 938.939 406.29C938.939 401.965 941.403 399.032 945.247 399.032C949.009 399.032 951.326 401.764 951.326 405.982V406.866H941.336V407C941.336 409.665 942.903 411.419 945.407 411.419C947.175 411.419 948.474 410.522 948.862 409.21Z" fill="black"/>
<path d="M494.465 398.054V375.286C492.308 374.747 490.525 373.607 489.115 371.865C487.705 370.123 487 368.091 487 365.769H491.977C491.977 367.096 492.464 368.247 493.44 369.222C494.415 370.198 495.566 370.685 496.891 370.683H499.442V365.333C497.285 364.794 495.502 363.653 494.092 361.912C492.682 360.17 491.977 358.138 491.977 355.815H496.953C496.953 357.142 497.441 358.293 498.416 359.267C499.392 360.24 500.542 360.728 501.868 360.73H503.174L514.372 345.8L525.569 360.73H526.875C528.202 360.73 529.354 360.243 530.329 359.269C531.305 358.295 531.791 357.144 531.79 355.815H536.766C536.766 358.138 536.061 360.17 534.651 361.912C533.241 363.653 531.458 364.794 529.301 365.333V370.683H531.852C533.179 370.683 534.33 370.196 535.306 369.222C536.281 368.249 536.768 367.097 536.766 365.769H541.743C541.743 368.091 541.038 370.123 539.628 371.865C538.218 373.607 536.435 374.747 534.278 375.286V398.054H516.86V388.101C516.86 387.396 516.621 386.806 516.143 386.33C515.665 385.853 515.075 385.615 514.372 385.613C513.668 385.611 513.078 385.85 512.6 386.33C512.122 386.809 511.883 387.4 511.883 388.101V398.054H494.465ZM509.395 360.73H519.348L514.372 354.073L509.395 360.73ZM504.418 370.683H524.325V365.706H504.418V370.683ZM499.442 393.078H506.907V388.101C506.907 386.028 507.632 384.265 509.084 382.814C510.535 381.362 512.298 380.636 514.372 380.636C516.445 380.636 518.208 381.362 519.659 382.814C521.111 384.265 521.836 386.028 521.836 388.101V393.078H529.301V375.66H499.442V393.078Z" fill="url(#paint2_linear_289_4930)"/>
<path d="M467.227 373.713C467.227 374.974 466.726 376.182 465.835 377.074C464.944 377.965 463.735 378.465 462.475 378.465C461.214 378.465 460.006 377.965 459.114 377.074C458.223 376.182 457.723 374.974 457.723 373.713C457.723 372.453 458.223 371.244 459.114 370.353C460.006 369.462 461.214 368.961 462.475 368.961C463.735 368.961 464.944 369.462 465.835 370.353C466.726 371.244 467.227 372.453 467.227 373.713Z" fill="black"/>
<path d="M447.268 373.712C447.268 373.712 452.97 363.257 462.474 363.257C471.978 363.257 477.68 373.712 477.68 373.712C477.68 373.712 471.978 384.166 462.474 384.166C452.97 384.166 447.268 373.712 447.268 373.712ZM462.474 380.365C464.238 380.365 465.931 379.664 467.178 378.416C468.426 377.168 469.127 375.476 469.127 373.712C469.127 371.947 468.426 370.255 467.178 369.007C465.931 367.76 464.238 367.059 462.474 367.059C460.71 367.059 459.017 367.76 457.77 369.007C456.522 370.255 455.821 371.947 455.821 373.712C455.821 375.476 456.522 377.168 457.77 378.416C459.017 379.664 460.71 380.365 462.474 380.365Z" fill="black"/>
<path d="M431.285 424.055H428.875V404.731H431.285V414.159H431.419L439.949 404.731H442.989L435.048 413.288L443.699 424.055H440.619L433.374 415.002L431.285 417.306V424.055ZM449.577 422.314C451.774 422.314 453.461 420.774 453.461 418.765V417.627L449.738 417.855C447.863 417.975 446.792 418.805 446.792 420.118C446.792 421.443 447.904 422.314 449.577 422.314ZM449.055 424.296C446.283 424.296 444.422 422.622 444.422 420.118C444.422 417.734 446.256 416.234 449.47 416.047L453.461 415.819V414.654C453.461 412.953 452.336 411.936 450.408 411.936C448.613 411.936 447.488 412.779 447.194 414.145H444.944C445.105 411.735 447.167 409.887 450.461 409.887C453.729 409.887 455.791 411.655 455.791 414.426V424.055H453.581V421.658H453.528C452.698 423.251 450.93 424.296 449.055 424.296ZM458.871 424.055V404.731H461.201V424.055H458.871ZM464.468 424.055V410.128H466.798V424.055H464.468ZM465.633 407.785C464.843 407.785 464.187 407.128 464.187 406.338C464.187 405.535 464.843 404.892 465.633 404.892C466.437 404.892 467.093 405.535 467.093 406.338C467.093 407.128 466.437 407.785 465.633 407.785ZM483.229 424.055H475.931V404.731H483.256C486.564 404.731 488.8 406.66 488.8 409.552C488.8 411.561 487.327 413.436 485.466 413.77V413.877C488.09 414.212 489.777 416.06 489.777 418.631C489.777 422.033 487.34 424.055 483.229 424.055ZM478.341 406.861V413.061H481.957C484.809 413.061 486.363 411.922 486.363 409.833C486.363 407.918 485.05 406.861 482.707 406.861H478.341ZM478.341 421.926H482.868C485.774 421.926 487.3 420.747 487.3 418.511C487.3 416.274 485.72 415.136 482.64 415.136H478.341V421.926ZM496.741 422.314C498.937 422.314 500.624 420.774 500.624 418.765V417.627L496.902 417.855C495.027 417.975 493.955 418.805 493.955 420.118C493.955 421.443 495.067 422.314 496.741 422.314ZM496.219 424.296C493.447 424.296 491.585 422.622 491.585 420.118C491.585 417.734 493.42 416.234 496.634 416.047L500.624 415.819V414.654C500.624 412.953 499.499 411.936 497.571 411.936C495.777 411.936 494.652 412.779 494.357 414.145H492.108C492.268 411.735 494.33 409.887 497.625 409.887C500.892 409.887 502.954 411.655 502.954 414.426V424.055H500.745V421.658H500.691C499.861 423.251 498.093 424.296 496.219 424.296ZM505.914 424.055V410.128H508.11V412.404H508.163C508.619 410.864 509.904 409.887 511.538 409.887C511.94 409.887 512.288 409.954 512.475 409.981V412.244C512.288 412.177 511.792 412.11 511.23 412.11C509.422 412.11 508.244 413.409 508.244 415.377V424.055H505.914ZM514.497 424.055V410.128H516.827V424.055H514.497ZM515.662 407.785C514.872 407.785 514.216 407.128 514.216 406.338C514.216 405.535 514.872 404.892 515.662 404.892C516.466 404.892 517.122 405.535 517.122 406.338C517.122 407.128 516.466 407.785 515.662 407.785ZM533.258 424.055H530.848V406.901H524.755V404.731H539.351V406.901H533.258V424.055ZM543.503 411.909C541.32 411.909 539.793 413.583 539.646 415.9H547.212C547.158 413.569 545.699 411.909 543.503 411.909ZM547.158 420.064H549.448C549.046 422.501 546.69 424.296 543.65 424.296C539.659 424.296 537.236 421.524 537.236 417.145C537.236 412.82 539.699 409.887 543.543 409.887C547.306 409.887 549.622 412.619 549.622 416.837V417.721H539.633V417.855C539.633 420.519 541.199 422.274 543.703 422.274C545.471 422.274 546.77 421.376 547.158 420.064ZM551.979 424.055V410.128H554.175V412.351H554.229C554.885 410.878 556.304 409.887 558.179 409.887C560.081 409.887 561.487 410.851 562.089 412.538H562.143C562.92 410.878 564.553 409.887 566.508 409.887C569.267 409.887 571.048 411.681 571.048 414.44V424.055H568.718V414.976C568.718 413.074 567.66 411.949 565.826 411.949C563.978 411.949 562.679 413.315 562.679 415.203V424.055H560.349V414.721C560.349 413.047 559.224 411.949 557.496 411.949C555.648 411.949 554.309 413.395 554.309 415.324V424.055H551.979ZM580.783 409.887C584.332 409.887 586.742 412.726 586.742 417.091C586.742 421.457 584.345 424.296 580.837 424.296C578.842 424.296 577.235 423.318 576.404 421.792H576.351V428.701H574.021V410.128H576.23V412.485H576.284C577.141 410.918 578.761 409.887 580.783 409.887ZM580.328 422.247C582.805 422.247 584.359 420.252 584.359 417.091C584.359 413.944 582.805 411.936 580.328 411.936C577.944 411.936 576.338 413.998 576.338 417.091C576.338 420.198 577.944 422.247 580.328 422.247ZM589.22 424.055V404.731H591.55V424.055H589.22ZM600.281 411.909C598.098 411.909 596.571 413.583 596.424 415.9H603.99C603.937 413.569 602.477 411.909 600.281 411.909ZM603.937 420.064H606.226C605.825 422.501 603.468 424.296 600.428 424.296C596.438 424.296 594.014 421.524 594.014 417.145C594.014 412.82 596.478 409.887 600.321 409.887C604.084 409.887 606.401 412.619 606.401 416.837V417.721H596.411V417.855C596.411 420.519 597.978 422.274 600.482 422.274C602.249 422.274 603.548 421.376 603.937 420.064Z" fill="black"/>
<path d="M563.377 643.855V621.087C561.221 620.548 559.437 619.407 558.027 617.665C556.617 615.923 555.912 613.891 555.912 611.569H560.889C560.889 612.896 561.376 614.047 562.352 615.023C563.327 615.998 564.478 616.485 565.803 616.483H568.354V611.133C566.197 610.594 564.414 609.454 563.004 607.712C561.594 605.97 560.889 603.938 560.889 601.616H565.865C565.865 602.943 566.353 604.093 567.329 605.067C568.304 606.041 569.454 606.528 570.78 606.53H572.086L583.284 591.6L594.481 606.53H595.787C597.115 606.53 598.266 606.043 599.241 605.069C600.217 604.096 600.704 602.944 600.702 601.616H605.678C605.678 603.938 604.973 605.97 603.563 607.712C602.153 609.454 600.37 610.594 598.214 611.133V616.483H600.764C602.091 616.483 603.242 615.996 604.218 615.023C605.193 614.049 605.68 612.898 605.678 611.569H610.655C610.655 613.891 609.95 615.923 608.54 617.665C607.13 619.407 605.347 620.548 603.19 621.087V643.855H585.772V633.902C585.772 633.196 585.533 632.606 585.055 632.13C584.578 631.654 583.987 631.415 583.284 631.413C582.58 631.412 581.99 631.65 581.512 632.13C581.034 632.609 580.795 633.2 580.795 633.902V643.855H563.377ZM578.307 606.53H588.26L583.284 599.874L578.307 606.53ZM573.33 616.483H593.237V611.507H573.33V616.483ZM568.354 638.878H575.819V633.902C575.819 631.828 576.544 630.065 577.996 628.614C579.447 627.162 581.21 626.437 583.284 626.437C585.357 626.437 587.12 627.162 588.571 628.614C590.023 630.065 590.749 631.828 590.749 633.902V638.878H598.214V621.46H568.354V638.878Z" fill="url(#paint3_linear_289_4930)"/>
<path d="M536.139 619.514C536.139 620.774 535.638 621.983 534.747 622.874C533.856 623.765 532.647 624.266 531.387 624.266C530.126 624.266 528.918 623.765 528.027 622.874C527.135 621.983 526.635 620.774 526.635 619.514C526.635 618.253 527.135 617.045 528.027 616.154C528.918 615.262 530.126 614.762 531.387 614.762C532.647 614.762 533.856 615.262 534.747 616.154C535.638 617.045 536.139 618.253 536.139 619.514Z" fill="black"/>
<path d="M516.18 619.512C516.18 619.512 521.882 609.058 531.386 609.058C540.89 609.058 546.592 619.512 546.592 619.512C546.592 619.512 540.89 629.966 531.386 629.966C521.882 629.966 516.18 619.512 516.18 619.512ZM531.386 626.165C533.151 626.165 534.843 625.464 536.09 624.216C537.338 622.969 538.039 621.276 538.039 619.512C538.039 617.748 537.338 616.055 536.09 614.808C534.843 613.56 533.151 612.859 531.386 612.859C529.622 612.859 527.929 613.56 526.682 614.808C525.434 616.055 524.733 617.748 524.733 619.512C524.733 621.276 525.434 622.969 526.682 624.216C527.929 625.464 529.622 626.165 531.386 626.165Z" fill="black"/>
<path d="M497.676 579.461H500.073C500.126 581.095 501.372 582.233 503.126 582.233C505.255 582.233 506.407 580.961 506.407 578.604V564.677H508.817V578.617C508.817 582.286 506.701 584.456 503.139 584.456C499.925 584.456 497.676 582.394 497.676 579.461ZM516.798 582.26C518.994 582.26 520.682 580.72 520.682 578.711V577.573L516.959 577.8C515.084 577.921 514.013 578.751 514.013 580.064C514.013 581.389 515.124 582.26 516.798 582.26ZM516.276 584.242C513.504 584.242 511.643 582.568 511.643 580.064C511.643 577.68 513.477 576.18 516.691 575.993L520.682 575.765V574.6C520.682 572.899 519.557 571.882 517.628 571.882C515.834 571.882 514.709 572.725 514.415 574.091H512.165C512.326 571.681 514.388 569.833 517.682 569.833C520.949 569.833 523.012 571.6 523.012 574.372V584H520.802V581.603H520.749C519.918 583.197 518.151 584.242 516.276 584.242ZM528.422 576.26L534.582 570.074H537.407L531.368 576.086L537.595 584H534.89L529.721 577.519L528.422 578.751V584H526.092V564.677H528.422V576.26ZM539.402 584V564.677H541.732V572.297H541.786C542.563 570.743 544.089 569.833 546.205 569.833C549.258 569.833 551.106 571.895 551.106 575.002V584H548.776V575.43C548.776 573.221 547.665 571.895 545.482 571.895C543.165 571.895 541.732 573.475 541.732 575.885V584H539.402ZM565.502 570.074V584H563.292V581.737H563.239C562.408 583.344 560.962 584.242 558.819 584.242C555.78 584.242 553.999 582.273 553.999 579.113V570.074H556.329V578.698C556.329 580.961 557.387 582.179 559.543 582.179C561.806 582.179 563.172 580.626 563.172 578.256V570.074H565.502ZM581.812 584H579.402V566.846H573.309V564.677H587.905V566.846H581.812V584ZM592.056 571.855C589.873 571.855 588.347 573.529 588.2 575.845H595.766C595.712 573.515 594.252 571.855 592.056 571.855ZM595.712 580.01H598.002C597.6 582.447 595.243 584.242 592.203 584.242C588.213 584.242 585.789 581.47 585.789 577.091C585.789 572.765 588.253 569.833 592.096 569.833C595.859 569.833 598.176 572.564 598.176 576.783V577.666H588.186V577.8C588.186 580.465 589.753 582.219 592.257 582.219C594.025 582.219 595.324 581.322 595.712 580.01ZM600.533 584V570.074H602.729V572.297H602.782C603.439 570.824 604.858 569.833 606.733 569.833C608.634 569.833 610.04 570.797 610.643 572.484H610.697C611.473 570.824 613.107 569.833 615.062 569.833C617.821 569.833 619.602 571.627 619.602 574.386V584H617.272V574.921C617.272 573.02 616.214 571.895 614.379 571.895C612.531 571.895 611.232 573.261 611.232 575.149V584H608.902V574.667C608.902 572.993 607.777 571.895 606.05 571.895C604.202 571.895 602.863 573.341 602.863 575.269V584H600.533ZM629.337 569.833C632.886 569.833 635.296 572.672 635.296 577.037C635.296 581.403 632.899 584.242 629.391 584.242C627.395 584.242 625.788 583.264 624.958 581.737H624.905V588.647H622.574V570.074H624.784V572.431H624.838C625.695 570.864 627.315 569.833 629.337 569.833ZM628.882 582.193C631.359 582.193 632.912 580.197 632.912 577.037C632.912 573.89 631.359 571.882 628.882 571.882C626.498 571.882 624.891 573.944 624.891 577.037C624.891 580.144 626.498 582.193 628.882 582.193ZM637.773 584V564.677H640.103V584H637.773ZM648.834 571.855C646.652 571.855 645.125 573.529 644.978 575.845H652.544C652.49 573.515 651.031 571.855 648.834 571.855ZM652.49 580.01H654.78C654.378 582.447 652.022 584.242 648.982 584.242C644.991 584.242 642.567 581.47 642.567 577.091C642.567 572.765 645.031 569.833 648.875 569.833C652.637 569.833 654.954 572.564 654.954 576.783V577.666H644.964V577.8C644.964 580.465 646.531 582.219 649.035 582.219C650.803 582.219 652.102 581.322 652.49 580.01Z" fill="black"/>
<path d="M144.578 579.055V556.287C142.422 555.748 140.638 554.607 139.228 552.865C137.818 551.124 137.113 549.091 137.113 546.769H142.09C142.09 548.096 142.578 549.247 143.553 550.223C144.528 551.198 145.679 551.685 147.004 551.683H149.555V546.334C147.398 545.794 145.615 544.654 144.205 542.912C142.795 541.17 142.09 539.138 142.09 536.816H147.067C147.067 538.143 147.554 539.293 148.53 540.267C149.505 541.241 150.656 541.729 151.981 541.73H153.287L164.485 526.8L175.682 541.73H176.989C178.316 541.73 179.467 541.243 180.442 540.27C181.418 539.296 181.905 538.145 181.903 536.816H186.88C186.88 539.138 186.175 541.17 184.765 542.912C183.355 544.654 181.571 545.794 179.415 546.334V551.683H181.965C183.292 551.683 184.444 551.197 185.419 550.223C186.394 549.249 186.881 548.098 186.88 546.769H191.856C191.856 549.091 191.151 551.124 189.741 552.865C188.331 554.607 186.548 555.748 184.391 556.287V579.055H166.973V569.102C166.973 568.397 166.734 567.806 166.256 567.33C165.779 566.854 165.188 566.615 164.485 566.613C163.781 566.612 163.191 566.851 162.713 567.33C162.235 567.809 161.996 568.4 161.996 569.102V579.055H144.578ZM159.508 541.73H169.461L164.485 535.074L159.508 541.73ZM154.532 551.683H174.438V546.707H154.532V551.683ZM149.555 574.078H157.02V569.102C157.02 567.028 157.746 565.266 159.197 563.814C160.649 562.363 162.411 561.637 164.485 561.637C166.558 561.637 168.321 562.363 169.772 563.814C171.224 565.266 171.95 567.028 171.95 569.102V574.078H179.415V556.66H149.555V574.078Z" fill="url(#paint4_linear_289_4930)"/>
<path d="M117.34 554.714C117.34 555.974 116.839 557.183 115.948 558.074C115.057 558.965 113.848 559.466 112.588 559.466C111.328 559.466 110.119 558.965 109.228 558.074C108.337 557.183 107.836 555.974 107.836 554.714C107.836 553.454 108.337 552.245 109.228 551.354C110.119 550.463 111.328 549.962 112.588 549.962C113.848 549.962 115.057 550.463 115.948 551.354C116.839 552.245 117.34 553.454 117.34 554.714Z" fill="black"/>
<path d="M97.3809 554.712C97.3809 554.712 103.083 544.258 112.587 544.258C122.091 544.258 127.794 554.712 127.794 554.712C127.794 554.712 122.091 565.167 112.587 565.167C103.083 565.167 97.3809 554.712 97.3809 554.712ZM112.587 561.365C114.352 561.365 116.044 560.664 117.291 559.416C118.539 558.169 119.24 556.477 119.24 554.712C119.24 552.948 118.539 551.256 117.291 550.008C116.044 548.76 114.352 548.059 112.587 548.059C110.823 548.059 109.131 548.76 107.883 550.008C106.635 551.256 105.934 552.948 105.934 554.712C105.934 556.477 106.635 558.169 107.883 559.416C109.131 560.664 110.823 561.365 112.587 561.365Z" fill="black"/>
<path d="M69.6656 511.484H72.0894C72.317 513.573 74.2989 514.952 77.0575 514.952C79.6688 514.952 81.5703 513.573 81.5703 511.672C81.5703 510.038 80.4321 509.033 77.8342 508.364L75.3568 507.721C71.7948 506.811 70.2146 505.244 70.2146 502.619C70.2146 499.405 73.0268 497.156 77.0441 497.156C80.8874 497.156 83.6727 499.432 83.7798 502.673H81.3694C81.1552 500.597 79.4813 499.325 76.9638 499.325C74.4596 499.325 72.7188 500.624 72.7188 502.512C72.7188 503.972 73.7901 504.842 76.4147 505.525L78.4368 506.061C82.4407 507.065 84.061 508.605 84.061 511.377C84.061 514.912 81.2757 517.122 76.8298 517.122C72.7322 517.122 69.8933 514.899 69.6656 511.484ZM86.6321 516.8V497.477H88.9622V505.096H89.0157C89.7924 503.543 91.319 502.633 93.4348 502.633C96.488 502.633 98.336 504.695 98.336 507.801V516.8H96.0059V508.23C96.0059 506.02 94.8944 504.695 92.7117 504.695C90.395 504.695 88.9622 506.275 88.9622 508.685V516.8H86.6321ZM101.416 516.8V502.874H103.746V516.8H101.416ZM102.581 500.53C101.791 500.53 101.135 499.874 101.135 499.084C101.135 498.28 101.791 497.638 102.581 497.638C103.384 497.638 104.041 498.28 104.041 499.084C104.041 499.874 103.384 500.53 102.581 500.53ZM118.315 502.874L113.2 516.8H110.816L105.688 502.874H108.138L111.981 514.323H112.035L115.892 502.874H118.315ZM145.178 516.8H142.928V501.909H142.835L136.675 516.666H134.639L128.479 501.909H128.386V516.8H126.136V497.477H128.935L135.603 513.6H135.711L142.379 497.477H145.178V516.8ZM152.757 515.059C154.954 515.059 156.641 513.519 156.641 511.511V510.373L152.918 510.6C151.043 510.721 149.972 511.551 149.972 512.863C149.972 514.189 151.083 515.059 152.757 515.059ZM152.235 517.041C149.463 517.041 147.602 515.367 147.602 512.863C147.602 510.48 149.436 508.98 152.65 508.792L156.641 508.565V507.4C156.641 505.699 155.516 504.681 153.588 504.681C151.793 504.681 150.668 505.525 150.374 506.891H148.124C148.285 504.48 150.347 502.633 153.641 502.633C156.909 502.633 158.971 504.4 158.971 507.172V516.8H156.761V514.403H156.708C155.877 515.997 154.11 517.041 152.235 517.041ZM161.93 516.8V502.874H164.126V505.096H164.18C164.957 503.597 166.443 502.633 168.599 502.633C171.652 502.633 173.42 504.601 173.42 507.761V516.8H171.09V508.176C171.09 505.927 170.032 504.695 167.889 504.695C165.693 504.695 164.26 506.248 164.26 508.605V516.8H161.93ZM181.669 517.041C178.12 517.041 175.71 514.202 175.71 509.837C175.71 505.471 178.107 502.633 181.615 502.633C183.61 502.633 185.217 503.61 186.048 505.137H186.101V497.477H188.431V516.8H186.208V514.443H186.168C185.271 516.05 183.677 517.041 181.669 517.041ZM182.111 504.681C179.647 504.681 178.093 506.69 178.093 509.837C178.093 512.997 179.647 514.992 182.111 514.992C184.508 514.992 186.115 512.957 186.115 509.837C186.115 506.73 184.508 504.681 182.111 504.681ZM191.699 516.8V502.874H194.029V516.8H191.699ZM192.864 500.53C192.074 500.53 191.417 499.874 191.417 499.084C191.417 498.28 192.074 497.638 192.864 497.638C193.667 497.638 194.323 498.28 194.323 499.084C194.323 499.874 193.667 500.53 192.864 500.53ZM197.176 516.8V502.874H199.372V505.15H199.425C199.881 503.61 201.166 502.633 202.8 502.633C203.202 502.633 203.55 502.699 203.737 502.726V504.989C203.55 504.922 203.054 504.855 202.492 504.855C200.684 504.855 199.506 506.154 199.506 508.123V516.8H197.176Z" fill="black"/>
<path d="M467.379 847.855V825.087C465.222 824.548 463.439 823.407 462.029 821.665C460.619 819.923 459.914 817.891 459.914 815.569H464.891C464.891 816.896 465.378 818.047 466.354 819.023C467.329 819.998 468.48 820.485 469.805 820.483H472.356V815.133C470.199 814.594 468.416 813.454 467.006 811.712C465.596 809.97 464.891 807.938 464.891 805.616H469.867C469.867 806.943 470.355 808.093 471.33 809.067C472.306 810.041 473.456 810.528 474.782 810.53H476.088L487.286 795.6L498.483 810.53H499.789C501.116 810.53 502.268 810.043 503.243 809.069C504.219 808.096 504.705 806.944 504.704 805.616H509.68C509.68 807.938 508.975 809.97 507.565 811.712C506.155 813.454 504.372 814.594 502.215 815.133V820.483H504.766C506.093 820.483 507.244 819.996 508.22 819.023C509.195 818.049 509.682 816.898 509.68 815.569H514.657C514.657 817.891 513.952 819.923 512.542 821.665C511.132 823.407 509.349 824.548 507.192 825.087V847.855H489.774V837.902C489.774 837.196 489.535 836.606 489.057 836.13C488.579 835.654 487.989 835.415 487.286 835.413C486.582 835.412 485.992 835.65 485.514 836.13C485.036 836.609 484.797 837.2 484.797 837.902V847.855H467.379ZM482.309 810.53H492.262L487.286 803.874L482.309 810.53ZM477.332 820.483H497.239V815.507H477.332V820.483ZM472.356 842.878H479.821V837.902C479.821 835.828 480.546 834.065 481.998 832.614C483.449 831.162 485.212 830.437 487.286 830.437C489.359 830.437 491.122 831.162 492.573 832.614C494.025 834.065 494.751 835.828 494.751 837.902V842.878H502.215V825.46H472.356V842.878Z" fill="url(#paint5_linear_289_4930)"/>
<path d="M440.141 823.514C440.141 824.774 439.64 825.983 438.749 826.874C437.858 827.765 436.649 828.266 435.389 828.266C434.128 828.266 432.92 827.765 432.029 826.874C431.137 825.983 430.637 824.774 430.637 823.514C430.637 822.253 431.137 821.045 432.029 820.154C432.92 819.262 434.128 818.762 435.389 818.762C436.649 818.762 437.858 819.262 438.749 820.154C439.64 821.045 440.141 822.253 440.141 823.514Z" fill="black"/>
<path d="M420.182 823.512C420.182 823.512 425.884 813.058 435.388 813.058C444.892 813.058 450.594 823.512 450.594 823.512C450.594 823.512 444.892 833.966 435.388 833.966C425.884 833.966 420.182 823.512 420.182 823.512ZM435.388 830.165C437.152 830.165 438.845 829.464 440.092 828.216C441.34 826.969 442.041 825.276 442.041 823.512C442.041 821.748 441.34 820.055 440.092 818.808C438.845 817.56 437.152 816.859 435.388 816.859C433.624 816.859 431.931 817.56 430.684 818.808C429.436 820.055 428.735 821.748 428.735 823.512C428.735 825.276 429.436 826.969 430.684 828.216C431.931 829.464 433.624 830.165 435.388 830.165Z" fill="black"/>
<path d="M394.689 786.8H387.39V767.477H394.715C398.023 767.477 400.259 769.405 400.259 772.298C400.259 774.306 398.786 776.181 396.925 776.516V776.623C399.549 776.958 401.237 778.806 401.237 781.377C401.237 784.778 398.8 786.8 394.689 786.8ZM389.801 769.606V775.806H393.416C396.269 775.806 397.822 774.668 397.822 772.579C397.822 770.664 396.51 769.606 394.166 769.606H389.801ZM389.801 784.671H394.327C397.233 784.671 398.759 783.493 398.759 781.256C398.759 779.02 397.179 777.882 394.099 777.882H389.801V784.671ZM403.728 786.8V767.477H406.058V775.096H406.111C406.888 773.543 408.414 772.633 410.53 772.633C413.583 772.633 415.431 774.695 415.431 777.801V786.8H413.101V778.23C413.101 776.02 411.99 774.695 409.807 774.695C407.49 774.695 406.058 776.275 406.058 778.685V786.8H403.728ZM418.511 786.8V772.874H420.841V786.8H418.511ZM419.676 770.53C418.886 770.53 418.23 769.874 418.23 769.084C418.23 768.28 418.886 767.638 419.676 767.638C420.48 767.638 421.136 768.28 421.136 769.084C421.136 769.874 420.48 770.53 419.676 770.53ZM423.988 786.8V772.874H426.184V775.096H426.238C426.894 773.623 428.314 772.633 430.188 772.633C432.09 772.633 433.496 773.597 434.099 775.284H434.152C434.929 773.623 436.562 772.633 438.518 772.633C441.276 772.633 443.057 774.427 443.057 777.185V786.8H440.727V777.721C440.727 775.82 439.669 774.695 437.835 774.695C435.987 774.695 434.688 776.061 434.688 777.949V786.8H432.358V777.467C432.358 775.793 431.233 774.695 429.505 774.695C427.657 774.695 426.318 776.141 426.318 778.069V786.8H423.988ZM454.426 786.8H452.016V767.477H454.426V776.904H454.56L463.09 767.477H466.13L458.189 776.034L466.84 786.8H463.76L456.515 777.748L454.426 780.051V786.8ZM472.718 785.059C474.915 785.059 476.602 783.519 476.602 781.511V780.373L472.879 780.6C471.004 780.721 469.933 781.551 469.933 782.863C469.933 784.189 471.045 785.059 472.718 785.059ZM472.196 787.041C469.424 787.041 467.563 785.367 467.563 782.863C467.563 780.48 469.397 778.98 472.611 778.792L476.602 778.565V777.4C476.602 775.699 475.477 774.681 473.549 774.681C471.754 774.681 470.629 775.525 470.335 776.891H468.085C468.246 774.48 470.308 772.633 473.602 772.633C476.87 772.633 478.932 774.4 478.932 777.172V786.8H476.722V784.403H476.669C475.839 785.997 474.071 787.041 472.196 787.041ZM482.012 786.8V767.477H484.342V786.8H482.012ZM487.609 786.8V772.874H489.939V786.8H487.609ZM488.774 770.53C487.984 770.53 487.328 769.874 487.328 769.084C487.328 768.28 487.984 767.638 488.774 767.638C489.578 767.638 490.234 768.28 490.234 769.084C490.234 769.874 489.578 770.53 488.774 770.53ZM506.37 786.8H503.96V769.646H497.867V767.477H512.463V769.646H506.37V786.8ZM516.614 774.655C514.432 774.655 512.905 776.328 512.758 778.645H520.324C520.27 776.315 518.811 774.655 516.614 774.655ZM520.27 782.81H522.56C522.158 785.247 519.802 787.041 516.762 787.041C512.771 787.041 510.347 784.269 510.347 779.89C510.347 775.565 512.811 772.633 516.655 772.633C520.418 772.633 522.734 775.364 522.734 779.582V780.466H512.744V780.6C512.744 783.265 514.311 785.019 516.815 785.019C518.583 785.019 519.882 784.122 520.27 782.81ZM525.091 786.8V772.874H527.287V775.096H527.341C527.997 773.623 529.416 772.633 531.291 772.633C533.193 772.633 534.599 773.597 535.201 775.284H535.255C536.032 773.623 537.665 772.633 539.62 772.633C542.379 772.633 544.16 774.427 544.16 777.185V786.8H541.83V777.721C541.83 775.82 540.772 774.695 538.937 774.695C537.089 774.695 535.791 776.061 535.791 777.949V786.8H533.46V777.467C533.46 775.793 532.336 774.695 530.608 774.695C528.76 774.695 527.421 776.141 527.421 778.069V786.8H525.091ZM553.895 772.633C557.444 772.633 559.854 775.471 559.854 779.837C559.854 784.202 557.457 787.041 553.949 787.041C551.954 787.041 550.347 786.064 549.516 784.537H549.463V791.447H547.133V772.874H549.342V775.23H549.396C550.253 773.664 551.873 772.633 553.895 772.633ZM553.44 784.992C555.917 784.992 557.471 782.997 557.471 779.837C557.471 776.69 555.917 774.681 553.44 774.681C551.056 774.681 549.449 776.744 549.449 779.837C549.449 782.944 551.056 784.992 553.44 784.992ZM562.332 786.8V767.477H564.662V786.8H562.332ZM573.393 774.655C571.21 774.655 569.683 776.328 569.536 778.645H577.102C577.048 776.315 575.589 774.655 573.393 774.655ZM577.048 782.81H579.338C578.937 785.247 576.58 787.041 573.54 787.041C569.549 787.041 567.126 784.269 567.126 779.89C567.126 775.565 569.59 772.633 573.433 772.633C577.196 772.633 579.512 775.364 579.512 779.582V780.466H569.523V780.6C569.523 783.265 571.089 785.019 573.594 785.019C575.361 785.019 576.66 784.122 577.048 782.81Z" fill="black"/>
</g>
<defs>
<filter id="filter0_d_289_4930" x="0.920012" y="6.19676" width="1042.73" height="913.364" filterUnits="userSpaceOnUse" color-interpolation-filters="sRGB">
<feFlood flood-opacity="0" result="BackgroundImageFix"/>
<feColorMatrix in="SourceAlpha" type="matrix" values="0 0 0 0 0 0 0 0 0 0 0 0 0 0 0 0 0 0 127 0" result="hardAlpha"/>
<feOffset dx="-12" dy="9.59999"/>
<feGaussianBlur stdDeviation="5.04"/>
<feComposite in2="hardAlpha" operator="out"/>
<feColorMatrix type="matrix" values="0 0 0 0 0 0 0 0 0 0 0 0 0 0 0 0 0 0 0.44 0"/>
<feBlend mode="normal" in2="BackgroundImageFix" result="effect1_dropShadow_289_4930"/>
<feBlend mode="normal" in="SourceGraphic" in2="effect1_dropShadow_289_4930" result="shape"/>
</filter>
<linearGradient id="paint0_linear_289_4930" x1="578.875" y1="111.154" x2="613.675" y2="67.9543" gradientUnits="userSpaceOnUse">
<stop offset="0.373333" stop-color="#006B78"/>
<stop offset="1" stop-color="#2ADB87"/>
</linearGradient>
<linearGradient id="paint1_linear_289_4930" x1="853.762" y1="474.354" x2="888.562" y2="431.154" gradientUnits="userSpaceOnUse">
<stop offset="0.373333" stop-color="#006B78"/>
<stop offset="1" stop-color="#2ADB87"/>
</linearGradient>
<linearGradient id="paint2_linear_289_4930" x1="495.762" y1="399.354" x2="530.562" y2="356.154" gradientUnits="userSpaceOnUse">
<stop offset="0.373333" stop-color="#006B78"/>
<stop offset="1" stop-color="#2ADB87"/>
</linearGradient>
<linearGradient id="paint3_linear_289_4930" x1="564.674" y1="645.155" x2="599.474" y2="601.955" gradientUnits="userSpaceOnUse">
<stop offset="0.373333" stop-color="#006B78"/>
<stop offset="1" stop-color="#2ADB87"/>
</linearGradient>
<linearGradient id="paint4_linear_289_4930" x1="145.875" y1="580.355" x2="180.675" y2="537.155" gradientUnits="userSpaceOnUse">
<stop offset="0.373333" stop-color="#006B78"/>
<stop offset="1" stop-color="#2ADB87"/>
</linearGradient>
<linearGradient id="paint5_linear_289_4930" x1="468.676" y1="849.155" x2="503.476" y2="805.955" gradientUnits="userSpaceOnUse">
<stop offset="0.373333" stop-color="#006B78"/>
<stop offset="1" stop-color="#2ADB87"/>
</linearGradient>
</defs>
</svg>
