<svg width="27" height="31" viewBox="0 0 27 31" fill="none" xmlns="http://www.w3.org/2000/svg">
<path d="M19.4905 19.6418H18.3111L17.893 19.1752C19.4067 17.1431 20.2387 14.5489 20.237 11.8658C20.237 9.64431 19.6679 7.47272 18.6015 5.62563C17.5352 3.77854 16.0196 2.3389 14.2463 1.48878C12.4731 0.638656 10.5218 0.416225 8.63933 0.849614C6.75685 1.283 5.02769 2.35275 3.6705 3.92357C2.3133 5.49439 1.38905 7.49574 1.0146 9.67454C0.640149 11.8533 0.83233 14.1117 1.56684 16.1641C2.30134 18.2165 3.54519 19.9707 5.14108 21.2049C6.73696 22.439 8.61322 23.0978 10.5326 23.0978C12.9363 23.0978 15.1459 22.0783 16.8479 20.3848L17.251 20.8687V22.2338L24.716 30.8565L26.9406 28.2818L19.4905 19.6418ZM10.5326 19.6418C6.81503 19.6418 3.81411 16.1685 3.81411 11.8658C3.81411 7.56307 6.81503 4.08979 10.5326 4.08979C14.2501 4.08979 17.251 7.56307 17.251 11.8658C17.251 16.1685 14.2501 19.6418 10.5326 19.6418Z" fill="#666666"/>
</svg>
