<svg width="30" height="30" viewBox="0 0 30 30" fill="none" xmlns="http://www.w3.org/2000/svg">
<path d="M25.8003 6.59997L4.20029 6.59997C3.9816 6.60066 3.76724 6.66097 3.58028 6.77443C3.39332 6.88788 3.24084 7.05017 3.13926 7.24384C3.03767 7.4375 2.99083 7.6552 3.00377 7.87351C3.0167 8.09182 3.08894 8.30246 3.21269 8.48277L14.0127 24.0828C14.4603 24.7296 15.5379 24.7296 15.9867 24.0828L26.7867 8.48277C26.9117 8.30284 26.985 8.09209 26.9986 7.87342C27.0123 7.65475 26.9657 7.43652 26.8641 7.24244C26.7624 7.04837 26.6095 6.88587 26.4219 6.7726C26.2344 6.65933 26.0194 6.59963 25.8003 6.59997Z" fill="#00FF94"/>
</svg>
