<svg width="122" height="146" viewBox="0 0 122 146" fill="none" xmlns="http://www.w3.org/2000/svg">
<path d="M0.98175 82.9824C1.43929 81.8772 2.21428 80.9325 3.20873 80.2677C4.20318 79.603 5.37241 79.248 6.56859 79.2478H54.9526V6.67177C54.9526 5.06773 55.5898 3.5294 56.724 2.39519C57.8582 1.26096 59.3966 0.623764 61.0006 0.623764C62.6046 0.623764 64.1429 1.26096 65.2772 2.39519C66.4114 3.5294 67.0486 5.06773 67.0486 6.67177L67.0486 79.2478H115.433C116.629 79.2468 117.8 79.601 118.795 80.2655C119.791 80.93 120.567 81.8749 121.025 82.9806C121.483 84.0864 121.603 85.3032 121.369 86.477C121.135 87.6508 120.558 88.7289 119.712 89.5747L65.2796 144.007C64.7179 144.569 64.0508 145.015 63.3166 145.319C62.5824 145.624 61.7954 145.781 61.0006 145.781C60.2058 145.781 59.4188 145.624 58.6846 145.319C57.9504 145.015 57.2833 144.569 56.7216 144.007L2.28963 89.5747C1.44408 88.7284 0.8685 87.6504 0.635696 86.477C0.402885 85.3035 0.523323 84.0874 0.98175 82.9824Z" fill="white"/>
</svg>
