<svg width="904" height="229" viewBox="0 0 904 229" fill="none" xmlns="http://www.w3.org/2000/svg">
<g filter="url(#filter0_b_18_342)">
<rect x="0.0195312" y="0.695068" width="903.96" height="227.61" rx="21.87" fill="url(#paint0_radial_18_342)"/>
<rect x="0.424531" y="1.10007" width="903.15" height="226.8" rx="21.465" stroke="url(#paint1_linear_18_342)" stroke-width="0.81"/>
</g>
<path opacity="0.996" fill-rule="evenodd" clip-rule="evenodd" d="M181.516 44.0508C185.96 43.918 189.825 45.3238 193.114 48.2684C193.159 49.2661 193.159 50.2637 193.114 51.2614C191.664 54.0038 189.657 56.2599 187.094 58.0299C184.956 59.5075 182.688 60.7772 180.291 61.8392C176.587 63.4077 172.891 64.995 169.203 66.6009C167.658 67.3108 166.173 68.1158 164.748 69.0158C160.906 79.7915 157.051 90.5621 153.183 101.327C152.177 104.424 151.202 107.53 150.258 110.647C149.767 112.247 148.917 113.619 147.707 114.762C146.45 115.698 145.066 116.4 143.558 116.871C141.853 117.387 140.164 117.942 138.49 118.538C138.456 115.492 138.592 112.454 138.898 109.422C139.646 102.481 140.418 95.5429 141.211 88.6069C141.506 85.6623 141.687 82.7146 141.755 79.7637C138.874 81.4029 135.869 82.7747 132.742 83.8792C127.62 85.5712 122.473 87.1811 117.3 88.7089C114.544 89.5121 111.733 89.9543 108.865 90.0354C107.384 90.0618 105.933 89.869 104.512 89.4572C103.174 88.8338 101.949 88.0402 100.839 87.0763C98.9267 85.3913 97.1014 83.6113 95.3626 81.7364C93.8182 80.0788 92.299 78.4009 90.8049 76.7026C89.2915 74.9115 87.9197 73.0182 86.6895 71.0225C88.76 69.6515 91.0274 69.1753 93.4919 69.594C94.798 69.8299 96.0678 70.1926 97.3013 70.6824C99.3581 71.552 101.399 72.459 103.423 73.4034C105.143 74.1808 106.935 74.725 108.797 75.036C110.014 75.2167 111.216 75.1487 112.403 74.8319C113.823 74.3824 115.206 73.8382 116.552 73.1993C120.407 71.204 124.262 69.2085 128.116 67.2132C141.645 60.6643 155.182 54.134 168.727 47.6221C171.94 46.0978 175.295 45.0094 178.795 44.3569C179.708 44.2226 180.616 44.1206 181.516 44.0508Z" fill="url(#paint2_linear_18_342)"/>
<path opacity="0.991" fill-rule="evenodd" clip-rule="evenodd" d="M118.184 47.3839C120.831 47.3754 123.416 47.7721 125.939 48.5744C127.41 49.0192 128.861 49.5181 130.293 50.0709C133.139 51.2313 135.996 52.365 138.864 53.4721C140.392 54.008 141.934 54.4955 143.489 54.9346C139.437 57.3803 135.22 59.523 130.837 61.3629C129.348 62.0053 127.852 62.6288 126.347 63.2336C125.034 62.2039 123.673 61.2402 122.266 60.3426C119.101 58.4464 115.971 56.4963 112.878 54.4925C111.615 53.5921 110.391 52.6398 109.205 51.6355C111.616 48.9901 114.609 47.5729 118.184 47.3839Z" fill="url(#paint3_linear_18_342)"/>
<path d="M104.386 175.838H101.311V151.183H116.278V153.951H104.386V162.425H115.304V165.159H104.386V175.838ZM119.49 175.838V151.183H122.463V175.838H119.49ZM126.632 175.838V158.068H129.605V175.838H126.632ZM128.119 155.078C127.111 155.078 126.274 154.241 126.274 153.233C126.274 152.208 127.111 151.388 128.119 151.388C129.144 151.388 129.981 152.208 129.981 153.233C129.981 154.241 129.144 155.078 128.119 155.078ZM140.848 173.36C143.94 173.36 146.008 170.797 146.008 166.885C146.008 162.972 143.94 160.375 140.848 160.375C137.789 160.375 135.79 162.904 135.79 166.885C135.79 170.866 137.789 173.36 140.848 173.36ZM140.95 182.535C137.038 182.535 133.945 180.331 133.45 177.307H136.508C137.089 178.93 138.849 180.007 141.07 180.007C144.145 180.007 146.008 178.23 146.008 175.581V172.779H145.939C144.846 174.71 142.744 175.974 140.25 175.974C135.722 175.974 132.749 172.403 132.749 166.885C132.749 161.315 135.722 157.761 140.318 157.761C142.83 157.761 144.914 158.991 146.093 161.058H146.144V158.068H148.981V175.479C148.981 179.716 145.854 182.535 140.95 182.535ZM153.013 175.838V151.183H155.986V160.905H156.054C157.045 158.923 158.993 157.761 161.693 157.761C165.588 157.761 167.946 160.392 167.946 164.356V175.838H164.973V164.903C164.973 162.083 163.555 160.392 160.77 160.392C157.814 160.392 155.986 162.408 155.986 165.484V175.838H153.013ZM172.679 153.78H175.652V158.068H179.103V160.512H175.652V171.071C175.652 172.694 176.335 173.429 177.856 173.429C178.198 173.429 178.881 173.377 179.086 173.343V175.838C178.727 175.923 177.907 175.974 177.207 175.974C173.943 175.974 172.679 174.642 172.679 171.224V160.512H170.031V158.068H172.679V153.78Z" fill="white"/>
<path fill-rule="evenodd" clip-rule="evenodd" d="M313.902 48.5708C313.902 45.6664 315.056 42.8809 317.11 40.8272C319.164 38.7734 321.949 37.6196 324.854 37.6196H379.61C382.514 37.6196 385.299 38.7734 387.353 40.8272C389.407 42.8809 390.561 45.6664 390.561 48.5708V54.0464H396.036C397.489 54.0464 398.881 54.6233 399.908 55.6502C400.935 56.6771 401.512 58.0698 401.512 59.522C401.512 60.9742 400.935 62.367 399.908 63.3939C398.881 64.4207 397.489 64.9976 396.036 64.9976V125.229C397.489 125.229 398.881 125.806 399.908 126.833C400.935 127.86 401.512 129.253 401.512 130.705C401.512 132.157 400.935 133.55 399.908 134.577C398.881 135.604 397.489 136.18 396.036 136.18H308.427C306.975 136.18 305.582 135.604 304.555 134.577C303.528 133.55 302.951 132.157 302.951 130.705C302.951 129.253 303.528 127.86 304.555 126.833C305.582 125.806 306.975 125.229 308.427 125.229V64.9976C306.975 64.9976 305.582 64.4207 304.555 63.3939C303.528 62.367 302.951 60.9742 302.951 59.522C302.951 58.0698 303.528 56.6771 304.555 55.6502C305.582 54.6233 306.975 54.0464 308.427 54.0464H313.902V48.5708ZM379.61 48.5708V54.0464H324.854V48.5708H379.61ZM385.085 64.9976V125.229H365.921V111.54C365.921 107.91 364.478 104.428 361.911 101.861C359.344 99.2935 355.862 97.8512 352.232 97.8512C348.601 97.8512 345.119 99.2935 342.552 101.861C339.985 104.428 338.543 107.91 338.543 111.54V125.229H319.378V64.9976H385.085ZM352.232 108.802C352.958 108.802 353.654 109.091 354.167 109.604C354.681 110.118 354.969 110.814 354.969 111.54V125.229H349.494V111.54C349.494 110.814 349.782 110.118 350.296 109.604C350.809 109.091 351.505 108.802 352.232 108.802ZM330.329 92.3756C331.781 92.3756 333.174 92.9525 334.201 93.9794C335.228 95.0063 335.805 96.399 335.805 97.8512V103.327C335.805 104.779 335.228 106.172 334.201 107.199C333.174 108.226 331.781 108.802 330.329 108.802C328.877 108.802 327.484 108.226 326.457 107.199C325.43 106.172 324.854 104.779 324.854 103.327V97.8512C324.854 96.399 325.43 95.0063 326.457 93.9794C327.484 92.9525 328.877 92.3756 330.329 92.3756ZM374.134 92.3756C375.475 92.3758 376.77 92.8682 377.772 93.7594C378.774 94.6506 379.414 95.8786 379.571 97.2106L379.61 97.8512V103.327C379.608 104.722 379.074 106.065 378.116 107.08C377.158 108.094 375.848 108.705 374.455 108.787C373.062 108.869 371.69 108.415 370.62 107.52C369.549 106.624 368.862 105.353 368.697 103.967L368.658 103.327V97.8512C368.658 96.399 369.235 95.0063 370.262 93.9794C371.289 92.9525 372.682 92.3756 374.134 92.3756ZM330.329 70.4732C331.67 70.4734 332.965 70.9658 333.967 71.857C334.969 72.7482 335.61 73.9762 335.766 75.3082L335.805 75.9488V81.4244C335.803 82.82 335.269 84.1624 334.311 85.1772C333.353 86.1921 332.043 86.8028 330.65 86.8845C329.257 86.9663 327.885 86.513 326.815 85.6173C325.745 84.7215 325.057 83.4509 324.892 82.0651L324.854 81.4244V75.9488C324.854 74.4966 325.43 73.1039 326.457 72.077C327.484 71.0501 328.877 70.4732 330.329 70.4732ZM352.232 70.4732C353.573 70.4734 354.867 70.9658 355.869 71.857C356.872 72.7482 357.512 73.9762 357.669 75.3082L357.707 75.9488V81.4244C357.706 82.82 357.171 84.1624 356.213 85.1772C355.255 86.1921 353.946 86.8028 352.552 86.8845C351.159 86.9663 349.787 86.513 348.717 85.6173C347.647 84.7215 346.959 83.4509 346.794 82.0651L346.756 81.4244V75.9488C346.756 74.4966 347.333 73.1039 348.36 72.077C349.387 71.0501 350.779 70.4732 352.232 70.4732ZM374.134 70.4732C375.586 70.4732 376.979 71.0501 378.006 72.077C379.033 73.1039 379.61 74.4966 379.61 75.9488V81.4244C379.61 82.8766 379.033 84.2694 378.006 85.2963C376.979 86.3231 375.586 86.9 374.134 86.9C372.682 86.9 371.289 86.3231 370.262 85.2963C369.235 84.2694 368.658 82.8766 368.658 81.4244V75.9488C368.658 74.4966 369.235 73.1039 370.262 72.077C371.289 71.0501 372.682 70.4732 374.134 70.4732Z" fill="url(#paint4_linear_18_342)"/>
<path d="M335.021 175.887H331.946V164.662H318.414V175.887H315.338V151.232H318.414V161.894H331.946V151.232H335.021V175.887ZM346.708 176.195C341.787 176.195 338.473 172.658 338.473 167.003C338.473 161.33 341.787 157.81 346.708 157.81C351.612 157.81 354.926 161.33 354.926 167.003C354.926 172.658 351.612 176.195 346.708 176.195ZM346.708 173.581C349.852 173.581 351.902 171.189 351.902 167.003C351.902 162.816 349.852 160.424 346.708 160.424C343.564 160.424 341.497 162.816 341.497 167.003C341.497 171.189 343.564 173.581 346.708 173.581ZM358.89 153.829H361.863V158.118H365.315V160.561H361.863V171.12C361.863 172.743 362.547 173.478 364.067 173.478C364.409 173.478 365.093 173.427 365.298 173.393V175.887C364.939 175.973 364.119 176.024 363.418 176.024C360.155 176.024 358.89 174.691 358.89 171.274V160.561H356.242V158.118H358.89V153.829ZM375.105 160.39C372.32 160.39 370.372 162.526 370.184 165.482H379.838C379.769 162.509 377.907 160.39 375.105 160.39ZM379.769 170.796H382.691C382.179 173.905 379.171 176.195 375.293 176.195C370.201 176.195 367.109 172.658 367.109 167.071C367.109 161.552 370.253 157.81 375.156 157.81C379.957 157.81 382.913 161.296 382.913 166.678V167.806H370.167V167.976C370.167 171.377 372.166 173.615 375.361 173.615C377.617 173.615 379.274 172.47 379.769 170.796ZM386.074 175.887V151.232H389.047V175.887H386.074Z" fill="white"/>
<path d="M546.988 42.6365C543.699 42.6365 541.043 45.2933 541.043 48.5819V54.5645C533.871 54.9732 527.61 59.6367 525.213 66.4739L518.673 85.1463C514.362 86.9299 511.315 91.1846 511.315 96.1453V131.818C511.315 135.106 513.972 137.763 517.261 137.763H523.206C526.495 137.763 529.152 135.106 529.152 131.818V122.9H588.606V131.818C588.606 135.106 591.263 137.763 594.551 137.763H600.497C603.785 137.763 606.442 135.106 606.442 131.818V96.1453C606.442 91.1846 603.395 86.9299 599.085 85.1463L592.545 66.4739C590.148 59.6367 583.887 54.9547 576.715 54.5645V48.5819C576.715 45.2933 574.058 42.6365 570.77 42.6365H546.988ZM542.046 66.4182H575.712C578.239 66.4182 580.487 68.016 581.323 70.3942L586.172 84.2545H531.586L536.435 70.3942C537.271 68.016 539.519 66.4182 542.046 66.4182ZM529.152 96.1453C530.729 96.1453 532.241 96.7717 533.356 97.8867C534.471 99.0017 535.097 100.514 535.097 102.091C535.097 103.668 534.471 105.18 533.356 106.295C532.241 107.41 530.729 108.036 529.152 108.036C527.575 108.036 526.063 107.41 524.948 106.295C523.833 105.18 523.206 103.668 523.206 102.091C523.206 100.514 523.833 99.0017 524.948 97.8867C526.063 96.7717 527.575 96.1453 529.152 96.1453ZM582.661 102.091C582.661 100.514 583.287 99.0017 584.402 97.8867C585.517 96.7717 587.029 96.1453 588.606 96.1453C590.183 96.1453 591.695 96.7717 592.81 97.8867C593.925 99.0017 594.551 100.514 594.551 102.091C594.551 103.668 593.925 105.18 592.81 106.295C591.695 107.41 590.183 108.036 588.606 108.036C587.029 108.036 585.517 107.41 584.402 106.295C583.287 105.18 582.661 103.668 582.661 102.091Z" fill="url(#paint5_linear_18_342)"/>
<path d="M540.92 177.653C534.12 177.653 529.814 172.715 529.814 164.907C529.814 157.167 534.171 152.178 540.92 152.178C546.285 152.178 550.369 155.442 551.154 160.362H548.045C547.259 157.133 544.44 155.014 540.92 155.014C536.102 155.014 532.975 158.91 532.975 164.907C532.975 170.956 536.068 174.817 540.937 174.817C544.559 174.817 547.156 173.074 548.045 170.067H551.154C550.027 174.937 546.37 177.653 540.92 177.653ZM560.193 175.022C562.995 175.022 565.148 173.057 565.148 170.494V169.042L560.398 169.332C558.006 169.486 556.639 170.545 556.639 172.22C556.639 173.911 558.057 175.022 560.193 175.022ZM559.527 177.551C555.99 177.551 553.615 175.415 553.615 172.22C553.615 169.179 555.956 167.265 560.056 167.026L565.148 166.735V165.249C565.148 163.079 563.713 161.78 561.252 161.78C558.963 161.78 557.528 162.857 557.152 164.6H554.281C554.486 161.524 557.117 159.166 561.321 159.166C565.49 159.166 568.121 161.422 568.121 164.958V177.243H565.302V174.185H565.233C564.174 176.218 561.919 177.551 559.527 177.551ZM580.73 177.551C578.133 177.551 576.1 176.286 574.955 174.236H574.887V177.243H572.051V152.588H575.024V162.447H575.092C576.202 160.414 578.27 159.166 580.781 159.166C585.258 159.166 588.282 162.788 588.282 168.358C588.282 173.946 585.275 177.551 580.73 177.551ZM580.149 161.78C577.142 161.78 575.006 164.412 575.006 168.358C575.006 172.322 577.142 174.937 580.149 174.937C583.293 174.937 585.241 172.425 585.241 168.358C585.241 164.326 583.293 161.78 580.149 161.78Z" fill="white"/>
<path d="M764.095 66.1192V50.0005C763.843 48.6533 731.111 54.0064 731.368 55.3536V71.4722C731.623 72.8211 764.35 67.4681 764.095 66.1192ZM800.656 71.4739V55.3553C800.915 54.0081 768.184 48.655 767.929 50.0022V66.1192C767.674 67.4681 800.401 72.8211 800.656 71.4739Z" fill="url(#paint6_linear_18_342)"/>
<path d="M732.739 79.6437C734.218 79.6437 735.416 78.4747 735.416 77.0327C735.416 75.5906 734.218 74.4216 732.739 74.4216C731.26 74.4216 730.062 75.5906 730.062 77.0327C730.062 78.4747 731.26 79.6437 732.739 79.6437Z" fill="url(#paint7_linear_18_342)"/>
<path d="M740.528 120.046L753.185 122.22L753.813 118.752L741.156 116.578L740.528 120.046ZM778.212 118.752L778.84 122.22L791.497 120.046L790.869 116.578L778.212 118.752Z" fill="url(#paint8_linear_18_342)"/>
<path d="M799.287 79.642C800.767 79.642 801.967 78.473 801.967 77.031C801.967 75.5889 800.767 74.4199 799.287 74.4199C797.808 74.4199 796.608 75.5889 796.608 77.031C796.608 78.473 797.808 79.642 799.287 79.642Z" fill="url(#paint9_linear_18_342)"/>
<path d="M766.012 84.0987C769.161 84.0987 771.714 81.6122 771.714 78.545C771.714 75.4777 769.161 72.9912 766.012 72.9912C762.863 72.9912 760.311 75.4777 760.311 78.545C760.311 81.6122 762.863 84.0987 766.012 84.0987Z" fill="url(#paint10_linear_18_342)"/>
<path d="M762.122 93.8197C762.122 95.9119 763.866 97.6112 766.012 97.6112C768.159 97.6112 769.902 95.9136 769.902 93.8197C769.902 91.7258 768.159 90.0333 766.012 90.0333C763.866 90.0333 762.122 91.7275 762.122 93.8197ZM767.836 93.8197C767.836 94.7995 767.019 95.5973 766.012 95.5973C765.536 95.6018 765.076 95.4173 764.735 95.0842C764.394 94.7511 764.199 94.2964 764.192 93.8197C764.192 92.8433 765.009 92.0456 766.012 92.0456C767.019 92.0473 767.836 92.8433 767.836 93.8197ZM788.77 83.4844L788.285 86.155C788.142 86.9409 788.794 87.7097 789.734 87.8713L803.356 90.2119C804.297 90.3718 805.176 89.8666 805.316 89.0824L805.8 86.4102C805.943 85.6243 805.295 84.8571 804.351 84.6956L790.729 82.355C789.791 82.1934 788.909 82.7003 788.77 83.4844Z" fill="url(#paint11_linear_18_342)"/>
<path d="M796.62 121.711V121.427L807.228 137.585H817.042L803.324 119.61C806.452 118.558 808.153 117.028 808.153 114.579V90.4536C808.187 90.3328 808.23 90.2155 808.253 90.0896L808.907 86.475C808.993 86.0055 808.985 85.5234 808.883 85.0572C808.78 84.5909 808.585 84.1499 808.309 83.7602C808.264 83.6921 808.202 83.6394 808.153 83.5747V53.1779C808.153 50.2437 805.05 49.1448 802.558 48.262C801.931 48.0416 801.3 47.8323 800.665 47.6343V46.4521C800.665 45.935 796.535 44.5385 790.31 43.2423C790.335 42.9991 790.383 42.7644 790.383 42.5143C790.383 38.6598 787.185 35.5249 783.254 35.5249C779.802 35.5249 776.916 37.9454 776.268 41.1484C772.859 40.8155 769.437 40.6418 766.012 40.6279C762.546 40.6279 759.093 40.8354 755.764 41.1484C755.114 37.9454 752.228 35.5249 748.776 35.5249C744.843 35.5249 741.647 38.6598 741.647 42.5143C741.647 42.7627 741.695 42.9991 741.72 43.2406C735.493 44.5368 731.365 45.9333 731.365 46.4504V47.6309C730.691 47.8418 730.055 48.0528 729.472 48.2586C726.978 49.1414 723.875 50.2403 723.875 53.1745L723.879 83.5679C723.828 83.6343 723.766 83.687 723.717 83.7568C723.443 84.1472 723.249 84.5883 723.147 85.0543C723.044 85.5204 723.036 86.0022 723.122 86.4716L723.775 90.0845C723.799 90.2155 723.841 90.3379 723.88 90.4621V100.785H723.875V114.575C723.875 117.025 725.576 118.554 728.704 119.609L714.982 137.585H724.799L735.405 121.431V121.711C735.405 123.895 736.754 125.688 739.387 127.098L732.739 137.585H799.284L792.64 127.097C795.275 125.688 796.62 123.895 796.62 121.711ZM783.245 97.375V97.7135C783.245 98.8855 781.468 99.6798 780.53 99.8363C779.248 100.051 777.703 100.224 776.006 100.36V97.375H783.245ZM776.006 93.8199V90.8329C777.521 90.9462 779.03 91.1216 780.53 91.3585C781.468 91.515 783.245 92.3094 783.245 93.4814V93.8199H776.006ZM807.231 86.1705L806.576 89.7834C806.477 90.3005 806.177 90.7573 805.742 91.054C805.307 91.3507 804.772 91.4632 804.254 91.367L788.481 88.6556C788.225 88.6152 787.979 88.5243 787.758 88.3883C787.538 88.2523 787.346 88.0739 787.195 87.8633C787.043 87.6528 786.935 87.4143 786.876 87.1617C786.818 86.909 786.81 86.6473 786.853 86.3916L787.508 82.7821C787.607 82.2638 787.907 81.8059 788.343 81.509C788.779 81.212 789.315 81.1003 789.833 81.1985L805.607 83.9064C806.697 84.097 807.425 85.1073 807.231 86.1705ZM783.252 37.2259C786.249 37.2259 788.68 39.5937 788.68 42.5143C788.68 45.4349 786.248 47.8027 783.252 47.8027C780.257 47.8027 777.824 45.4332 777.824 42.5143C777.822 39.5937 780.255 37.2259 783.252 37.2259ZM748.776 37.2259C751.773 37.2259 754.204 39.5937 754.204 42.5143C754.204 45.4349 751.772 47.8027 748.776 47.8027C745.781 47.8027 743.348 45.4332 743.348 42.5143C743.348 39.5937 745.779 37.2259 748.776 37.2259ZM744.379 47.9762C745.141 48.576 746.017 49.0144 746.954 49.2646C747.891 49.5148 748.87 49.5716 749.829 49.4315C750.789 49.2915 751.71 48.9575 752.536 48.45C753.363 47.9424 754.077 47.2719 754.636 46.4793C758.415 46.0691 762.212 45.8567 766.012 45.8432H766.023C769.865 45.8432 773.701 46.0881 777.392 46.4776C777.951 47.27 778.666 47.9402 779.492 48.4477C780.318 48.9551 781.239 49.2891 782.199 49.4293C783.158 49.5694 784.136 49.5129 785.073 49.2631C786.01 49.0133 786.887 48.5755 787.649 47.9762C797.597 49.8388 804.751 52.3665 804.751 53.1779V82.037L790.121 79.5247C789.909 79.489 789.695 79.4708 789.481 79.4702C788.616 79.4645 787.776 79.7634 787.109 80.3144C786.442 80.8655 785.99 81.6337 785.832 82.4844L785.179 86.0922C785.093 86.5634 785.102 87.0471 785.205 87.5148C785.308 87.9825 785.504 88.4247 785.781 88.8155C786.35 89.6286 787.207 90.1678 788.193 90.3362L803.965 93.0476C804.181 93.0833 804.392 93.102 804.601 93.102C804.651 93.102 804.698 93.0901 804.748 93.0901V93.8233H786.853V92.408C786.853 90.6407 784.706 89.4449 783.574 89.2119C781.507 88.7815 778.892 88.4566 776.006 88.2338V71.3888C776.006 67.0699 756.022 67.0699 756.022 71.3888V88.2338C753.134 88.4566 750.52 88.7815 748.455 89.2119C747.322 89.4449 745.175 90.6407 745.175 92.408V93.8233H727.281V93.0901C727.328 93.0901 727.376 93.102 727.424 93.102C727.633 93.102 727.845 93.0833 728.058 93.0476L743.831 90.3362C744.314 90.2556 744.776 90.0797 745.19 89.819C745.604 89.5582 745.962 89.2177 746.243 88.8172C746.52 88.426 746.715 87.9837 746.818 87.5162C746.922 87.0486 746.931 86.5651 746.846 86.0939L746.191 82.481C746.033 81.6308 745.582 80.8632 744.915 80.3124C744.249 79.7616 743.41 79.4629 742.545 79.4685C742.335 79.4685 742.12 79.4872 741.906 79.523L727.277 82.0353V53.1762C727.277 52.3648 734.432 49.8388 744.379 47.9762ZM766.012 86.6621C761.411 86.6621 757.681 83.027 757.681 78.5449C757.681 74.0628 761.411 70.4277 766.012 70.4277C770.614 70.4277 774.344 74.0628 774.344 78.5449C774.344 83.027 770.614 86.6621 766.012 86.6621ZM771.701 93.8199C771.701 96.8834 769.152 99.3651 766.012 99.3651C762.872 99.3651 760.328 96.8834 760.328 93.8199C760.328 90.7632 762.872 88.2814 766.012 88.2814C769.152 88.2814 771.701 90.7649 771.701 93.8199ZM751.494 99.838C750.557 99.6815 748.783 98.8872 748.783 97.7152V97.3767H756.022V100.362C754.321 100.224 752.78 100.052 751.494 99.838ZM748.783 93.8199V93.4814C748.783 92.3094 750.557 91.515 751.494 91.3585C752.996 91.1216 754.507 90.9462 756.022 90.8329V93.8199H748.783ZM725.447 89.7834L724.794 86.1705C724.75 85.9149 724.758 85.6532 724.816 85.4006C724.875 85.148 724.983 84.9094 725.134 84.6989C725.285 84.4883 725.477 84.3098 725.698 84.1738C725.918 84.0378 726.164 83.9469 726.42 83.9064L742.193 81.1985C742.45 81.1497 742.713 81.152 742.969 81.2052C743.225 81.2584 743.467 81.3615 743.683 81.5086C743.898 81.6557 744.083 81.8439 744.226 82.0624C744.369 82.281 744.467 82.5255 744.515 82.7821L745.17 86.3916C745.214 86.6474 745.207 86.9094 745.148 87.1622C745.09 87.4151 744.982 87.6539 744.83 87.8646C744.679 88.0753 744.487 88.2538 744.266 88.3896C744.045 88.5254 743.799 88.6158 743.542 88.6556L727.772 91.3687C727.254 91.4636 726.719 91.3503 726.284 91.0535C725.849 90.7568 725.548 90.3004 725.447 89.7834ZM793.218 121.711C793.218 124.603 785.567 126.411 776.002 127.134V122.22H756.022V127.134C746.458 126.411 738.807 124.605 738.807 121.711V118.035C731.87 117.255 727.277 116.101 727.277 114.579V108.923H753.711V115.259H758.848V119.828H762.493V115.259H769.537V119.828H773.186V115.259H778.319V108.923H804.754V114.577C804.754 116.101 800.163 117.253 793.223 118.034V121.711H793.218Z" fill="url(#paint12_linear_18_342)"/>
<path d="M728.674 90.2123L742.295 87.8717C743.236 87.7067 743.884 86.9378 743.741 86.152L743.26 83.4848C743.117 82.7006 742.239 82.192 741.297 82.3553L727.672 84.6959C726.733 84.8575 726.083 85.6247 726.224 86.4105L726.707 89.0828C726.85 89.8669 727.731 90.3721 728.674 90.2123ZM748.773 46.1308C750.823 46.1308 752.488 44.5132 752.488 42.5145C752.488 40.5158 750.823 38.8965 748.773 38.8965C746.727 38.8965 745.061 40.5158 745.061 42.5145C745.061 44.5132 746.727 46.1308 748.773 46.1308Z" fill="url(#paint13_linear_18_342)"/>
<path d="M783.252 46.1306C785.304 46.1306 786.967 44.5115 786.967 42.5143C786.967 40.517 785.304 38.8979 783.252 38.8979C781.2 38.8979 779.537 40.517 779.537 42.5143C779.537 44.5115 781.2 46.1306 783.252 46.1306Z" fill="url(#paint14_linear_18_342)"/>
<path d="M742.217 184.355H739.141V162.468H731.367V159.7H749.991V162.468H742.217V184.355ZM748.846 184.355V166.586H751.648V169.49H751.716C752.297 167.525 753.938 166.278 756.022 166.278C756.535 166.278 756.979 166.363 757.218 166.398V169.285C756.979 169.2 756.347 169.114 755.629 169.114C753.322 169.114 751.819 170.772 751.819 173.283V184.355H748.846ZM765.163 182.134C767.965 182.134 770.118 180.169 770.118 177.606V176.154L765.368 176.444C762.976 176.598 761.609 177.657 761.609 179.332C761.609 181.023 763.027 182.134 765.163 182.134ZM764.497 184.663C760.96 184.663 758.585 182.527 758.585 179.332C758.585 176.29 760.926 174.377 765.026 174.138L770.118 173.847V172.361C770.118 170.191 768.683 168.892 766.222 168.892C763.933 168.892 762.498 169.969 762.122 171.711H759.251C759.456 168.636 762.088 166.278 766.291 166.278C770.46 166.278 773.091 168.533 773.091 172.07V184.355H770.272V181.297H770.203C769.144 183.33 766.889 184.663 764.497 184.663ZM777.021 184.355V166.586H779.994V184.355H777.021ZM778.507 163.596C777.499 163.596 776.662 162.758 776.662 161.75C776.662 160.725 777.499 159.905 778.507 159.905C779.532 159.905 780.369 160.725 780.369 161.75C780.369 162.758 779.532 163.596 778.507 163.596ZM784.009 184.355V166.586H786.811V169.422H786.879C787.87 167.508 789.767 166.278 792.518 166.278C796.413 166.278 798.668 168.79 798.668 172.822V184.355H795.696V173.352C795.696 170.481 794.346 168.909 791.612 168.909C788.81 168.909 786.982 170.891 786.982 173.898V184.355H784.009Z" fill="white"/>
<path d="M57.5293 225.875C57.5293 219.165 62.969 213.725 69.6793 213.725H209.809C216.52 213.725 221.959 219.165 221.959 225.875V228.305H57.5293V225.875Z" fill="#D9D9D9"/>
<defs>
<filter id="filter0_b_18_342" x="-40.4805" y="-39.8049" width="984.96" height="308.61" filterUnits="userSpaceOnUse" color-interpolation-filters="sRGB">
<feFlood flood-opacity="0" result="BackgroundImageFix"/>
<feGaussianBlur in="BackgroundImageFix" stdDeviation="20.25"/>
<feComposite in2="SourceAlpha" operator="in" result="effect1_backgroundBlur_18_342"/>
<feBlend mode="normal" in="SourceGraphic" in2="effect1_backgroundBlur_18_342" result="shape"/>
</filter>
<radialGradient id="paint0_radial_18_342" cx="0" cy="0" r="1" gradientUnits="userSpaceOnUse" gradientTransform="translate(452.318 -23.1246) rotate(-156.752) scale(1064.62 912.608)">
<stop stop-color="white" stop-opacity="0.35"/>
<stop offset="0.4" stop-color="#C4C4C4" stop-opacity="0.1"/>
</radialGradient>
<linearGradient id="paint1_linear_18_342" x1="465.059" y1="-422.324" x2="469.335" y2="228.292" gradientUnits="userSpaceOnUse">
<stop stop-color="#666666" stop-opacity="0"/>
<stop offset="1" stop-color="white" stop-opacity="0.6"/>
</linearGradient>
<linearGradient id="paint2_linear_18_342" x1="138.285" y1="43.5266" x2="139.919" y2="118.538" gradientUnits="userSpaceOnUse">
<stop stop-color="white"/>
<stop offset="1" stop-color="#383838"/>
</linearGradient>
<linearGradient id="paint3_linear_18_342" x1="125.821" y1="47.2741" x2="126.051" y2="63.2379" gradientUnits="userSpaceOnUse">
<stop stop-color="white"/>
<stop offset="1" stop-color="#383838"/>
</linearGradient>
<linearGradient id="paint4_linear_18_342" x1="352.232" y1="37.6196" x2="352.232" y2="136.18" gradientUnits="userSpaceOnUse">
<stop stop-color="white"/>
<stop offset="1" stop-color="#3D3D3D"/>
</linearGradient>
<linearGradient id="paint5_linear_18_342" x1="558.879" y1="42.6365" x2="558.879" y2="137.763" gradientUnits="userSpaceOnUse">
<stop stop-color="white"/>
<stop offset="1" stop-color="#494949"/>
</linearGradient>
<linearGradient id="paint6_linear_18_342" x1="768.393" y1="50.5672" x2="768.155" y2="71.7137" gradientUnits="userSpaceOnUse">
<stop stop-color="white"/>
<stop offset="1" stop-color="#999999"/>
</linearGradient>
<linearGradient id="paint7_linear_18_342" x1="732.923" y1="74.6081" x2="732.748" y2="79.644" gradientUnits="userSpaceOnUse">
<stop stop-color="white"/>
<stop offset="1" stop-color="#999999"/>
</linearGradient>
<linearGradient id="paint8_linear_18_342" x1="767.764" y1="116.779" x2="767.742" y2="122.227" gradientUnits="userSpaceOnUse">
<stop stop-color="white"/>
<stop offset="1" stop-color="#999999"/>
</linearGradient>
<linearGradient id="paint9_linear_18_342" x1="799.472" y1="74.6064" x2="799.297" y2="79.6423" gradientUnits="userSpaceOnUse">
<stop stop-color="white"/>
<stop offset="1" stop-color="#999999"/>
</linearGradient>
<linearGradient id="paint10_linear_18_342" x1="766.404" y1="73.3879" x2="766.032" y2="84.0994" gradientUnits="userSpaceOnUse">
<stop stop-color="white"/>
<stop offset="1" stop-color="#999999"/>
</linearGradient>
<linearGradient id="paint11_linear_18_342" x1="785.473" y1="82.8709" x2="785.289" y2="97.6277" gradientUnits="userSpaceOnUse">
<stop stop-color="white"/>
<stop offset="1" stop-color="#999999"/>
</linearGradient>
<linearGradient id="paint12_linear_18_342" x1="769.519" y1="39.1699" x2="766.012" y2="137.585" gradientUnits="userSpaceOnUse">
<stop stop-color="white"/>
<stop offset="1" stop-color="#999999"/>
</linearGradient>
<linearGradient id="paint13_linear_18_342" x1="740.25" y1="40.7302" x2="736.815" y2="90.0656" gradientUnits="userSpaceOnUse">
<stop stop-color="white"/>
<stop offset="1" stop-color="#999999"/>
</linearGradient>
<linearGradient id="paint14_linear_18_342" x1="783.507" y1="39.1563" x2="783.265" y2="46.1311" gradientUnits="userSpaceOnUse">
<stop stop-color="white"/>
<stop offset="1" stop-color="#999999"/>
</linearGradient>
</defs>
</svg>
