<svg width="96" height="96" viewBox="0 0 96 96" fill="none" xmlns="http://www.w3.org/2000/svg">
<path d="M35.988 0.636475C32.6994 0.636475 30.0426 3.29334 30.0426 6.5819V12.5645C22.8709 12.9732 16.6096 17.6367 14.2129 24.4739L7.67289 43.1463C3.36246 44.9299 0.31543 49.1846 0.31543 54.1453V89.8179C0.31543 93.1064 2.97229 95.7633 6.26086 95.7633H12.2063C15.4948 95.7633 18.1517 93.1064 18.1517 89.8179V80.8997H77.606V89.8179C77.606 93.1064 80.2628 95.7633 83.5514 95.7633H89.4968C92.7854 95.7633 95.4422 93.1064 95.4422 89.8179V54.1453C95.4422 49.1846 92.3952 44.9299 88.0848 43.1463L81.5448 24.4739C79.1481 17.6367 72.8868 12.9547 65.7151 12.5645V6.5819C65.7151 3.29334 63.0583 0.636475 59.7697 0.636475H35.988ZM31.0458 24.4182H64.7118C67.2386 24.4182 69.4867 26.016 70.3228 28.3942L75.1721 42.2545H20.5856L25.4349 28.3942C26.2709 26.016 28.519 24.4182 31.0458 24.4182ZM18.1517 54.1453C19.7285 54.1453 21.2408 54.7717 22.3558 55.8867C23.4707 57.0017 24.0971 58.5139 24.0971 60.0907C24.0971 61.6676 23.4707 63.1798 22.3558 64.2948C21.2408 65.4098 19.7285 66.0362 18.1517 66.0362C16.5749 66.0362 15.0626 65.4098 13.9477 64.2948C12.8327 63.1798 12.2063 61.6676 12.2063 60.0907C12.2063 58.5139 12.8327 57.0017 13.9477 55.8867C15.0626 54.7717 16.5749 54.1453 18.1517 54.1453ZM71.6605 60.0907C71.6605 58.5139 72.2869 57.0017 73.4019 55.8867C74.5169 54.7717 76.0291 54.1453 77.606 54.1453C79.1828 54.1453 80.695 54.7717 81.81 55.8867C82.925 57.0017 83.5514 58.5139 83.5514 60.0907C83.5514 61.6676 82.925 63.1798 81.81 64.2948C80.695 65.4098 79.1828 66.0362 77.606 66.0362C76.0291 66.0362 74.5169 65.4098 73.4019 64.2948C72.2869 63.1798 71.6605 61.6676 71.6605 60.0907Z" fill="url(#paint0_linear_18_325)"/>
<defs>
<linearGradient id="paint0_linear_18_325" x1="47.8788" y1="0.636475" x2="47.8788" y2="95.7633" gradientUnits="userSpaceOnUse">
<stop stop-color="white"/>
<stop offset="1" stop-color="#494949"/>
</linearGradient>
</defs>
</svg>
