<svg width="72" height="52" viewBox="0 0 72 52" fill="none" xmlns="http://www.w3.org/2000/svg">
<path d="M57.5925 18.8167C57.5925 17.862 57.2132 16.9463 56.5381 16.2711C55.8629 15.596 54.9473 15.2167 53.9925 15.2167H12.2685L20.5485 6.97273C21.2264 6.29484 21.6072 5.37542 21.6072 4.41673C21.6072 3.45805 21.2264 2.53863 20.5485 1.86073C19.8706 1.18284 18.9512 0.802002 17.9925 0.802002C17.0338 0.802002 16.1144 1.18284 15.4365 1.86073L1.03649 16.2607C0.536967 16.767 0.19858 17.4098 0.0640335 18.1082C-0.0705133 18.8066 0.00480826 19.5291 0.280494 20.1847C0.550567 20.8422 1.0092 21.4049 1.59859 21.8021C2.18798 22.1993 2.88176 22.4132 3.59249 22.4167H53.9925C54.9473 22.4167 55.8629 22.0374 56.5381 21.3623C57.2132 20.6872 57.5925 19.7715 57.5925 18.8167ZM71.7045 31.8487C71.4344 31.1913 70.9758 30.6285 70.3864 30.2313C69.797 29.8341 69.1032 29.6203 68.3925 29.6167H17.9925C17.0377 29.6167 16.122 29.996 15.4469 30.6712C14.7718 31.3463 14.3925 32.262 14.3925 33.2167C14.3925 34.1715 14.7718 35.0872 15.4469 35.7623C16.122 36.4375 17.0377 36.8167 17.9925 36.8167H59.7165L51.4365 45.0607C51.0991 45.3954 50.8312 45.7936 50.6485 46.2323C50.4657 46.6709 50.3716 47.1415 50.3716 47.6167C50.3716 48.092 50.4657 48.5625 50.6485 49.0012C50.8312 49.4399 51.0991 49.8381 51.4365 50.1727C51.7712 50.5102 52.1693 50.778 52.608 50.9607C53.0467 51.1435 53.5173 51.2376 53.9925 51.2376C54.4677 51.2376 54.9383 51.1435 55.377 50.9607C55.8157 50.778 56.2138 50.5102 56.5485 50.1727L70.9485 35.7727C71.448 35.2665 71.7864 34.6236 71.921 33.9253C72.0555 33.2269 71.9802 32.5043 71.7045 31.8487Z" fill="#00FF94"/>
</svg>
