<svg width="108" height="75" viewBox="0 0 108 75" fill="none" xmlns="http://www.w3.org/2000/svg">
<path opacity="0.996" fill-rule="evenodd" clip-rule="evenodd" d="M95.5155 0.0508395C99.9596 -0.0820123 103.825 1.32378 107.114 4.26836C107.159 5.26607 107.159 6.26372 107.114 7.26143C105.664 10.0038 103.657 12.2599 101.094 14.0299C98.9555 15.5075 96.6883 16.7772 94.2911 17.8392C90.5872 19.4077 86.8914 20.995 83.2031 22.6009C81.6583 23.3108 80.1726 24.1158 78.7475 25.0158C74.9062 35.7915 71.0512 46.5621 67.1834 57.3274C66.1766 60.4236 65.2018 63.5299 64.2583 66.6468C63.7672 68.2474 62.9169 69.6194 61.7074 70.7623C60.4496 71.6976 59.066 72.4003 57.5579 72.871C55.8532 73.3866 54.1642 73.9417 52.4901 74.5376C52.4561 71.4922 52.5921 68.4535 52.8982 65.4223C53.6465 58.4814 54.4179 51.5429 55.2111 44.6069C55.5056 41.6623 55.6872 38.7146 55.7552 35.7637C52.8737 37.4029 49.8691 38.7747 46.742 39.8792C41.6204 41.5712 36.4732 43.1811 31.3005 44.7089C28.5444 45.5121 25.7327 45.9543 22.8654 46.0354C21.384 46.0618 19.9328 45.869 18.5119 45.4572C17.1738 44.8338 15.9494 44.0402 14.8385 43.0763C12.9267 41.3913 11.1014 39.6113 9.36257 37.7364C7.81821 36.0788 6.29902 34.4009 4.80493 32.7026C3.29152 30.9115 1.91974 29.0182 0.689453 27.0225C2.75998 25.6515 5.02744 25.1753 7.4919 25.594C8.79804 25.8299 10.0678 26.1926 11.3013 26.6824C13.3581 27.552 15.3988 28.459 17.4235 29.4034C19.1435 30.1808 20.9348 30.725 22.7974 31.036C24.0141 31.2167 25.2158 31.1487 26.4027 30.8319C27.8233 30.3824 29.2064 29.8382 30.5522 29.1993C34.4069 27.204 38.2616 25.2085 42.1163 23.2132C55.6451 16.6643 69.1819 10.134 82.7269 3.62212C85.9397 2.09776 89.2954 1.00937 92.7946 0.356949C93.7081 0.222601 94.6156 0.120565 95.5155 0.0508395Z" fill="url(#paint0_linear_16_310)"/>
<path opacity="0.991" fill-rule="evenodd" clip-rule="evenodd" d="M32.1843 3.38392C34.8311 3.37535 37.416 3.77214 39.9391 4.57435C41.4099 5.01923 42.8611 5.51812 44.2927 6.07089C47.1388 7.23125 49.9958 8.36501 52.8637 9.47211C54.3923 10.008 55.9337 10.4955 57.4894 10.9346C53.4372 13.3803 49.2197 15.523 44.8369 17.3629C43.3481 18.0053 41.8516 18.6288 40.3472 19.2336C39.034 18.2039 37.6735 17.2402 36.2658 16.3426C33.1005 14.4464 29.9714 12.4963 26.8784 10.4925C25.615 9.59211 24.3906 8.63976 23.2051 7.63545C25.6161 4.99012 28.6092 3.5729 32.1843 3.38392Z" fill="url(#paint1_linear_16_310)"/>
<defs>
<linearGradient id="paint0_linear_16_310" x1="52.2851" y1="-0.473407" x2="53.9187" y2="74.5376" gradientUnits="userSpaceOnUse">
<stop stop-color="white"/>
<stop offset="1" stop-color="#383838"/>
</linearGradient>
<linearGradient id="paint1_linear_16_310" x1="39.8212" y1="3.27408" x2="40.0508" y2="19.2379" gradientUnits="userSpaceOnUse">
<stop stop-color="white"/>
<stop offset="1" stop-color="#383838"/>
</linearGradient>
</defs>
</svg>
