<svg width="132" height="132" viewBox="0 0 132 132" fill="none" xmlns="http://www.w3.org/2000/svg">
<path fill-rule="evenodd" clip-rule="evenodd" d="M27.9024 27.5708C27.9024 24.6664 29.0562 21.8809 31.1099 19.8272C33.1637 17.7734 35.9491 16.6196 38.8536 16.6196H93.6096C96.514 16.6196 99.2995 17.7734 101.353 19.8272C103.407 21.8809 104.561 24.6664 104.561 27.5708V33.0464H110.036C111.489 33.0464 112.881 33.6233 113.908 34.6502C114.935 35.6771 115.512 37.0698 115.512 38.522C115.512 39.9742 114.935 41.367 113.908 42.3939C112.881 43.4207 111.489 43.9976 110.036 43.9976V104.229C111.489 104.229 112.881 104.806 113.908 105.833C114.935 106.86 115.512 108.253 115.512 109.705C115.512 111.157 114.935 112.55 113.908 113.577C112.881 114.604 111.489 115.18 110.036 115.18H22.4268C20.9746 115.18 19.5818 114.604 18.5549 113.577C17.5281 112.55 16.9512 111.157 16.9512 109.705C16.9512 108.253 17.5281 106.86 18.5549 105.833C19.5818 104.806 20.9746 104.229 22.4268 104.229V43.9976C20.9746 43.9976 19.5818 43.4207 18.5549 42.3939C17.5281 41.367 16.9512 39.9742 16.9512 38.522C16.9512 37.0698 17.5281 35.6771 18.5549 34.6502C19.5818 33.6233 20.9746 33.0464 22.4268 33.0464H27.9024V27.5708ZM93.6096 27.5708V33.0464H38.8536V27.5708H93.6096ZM99.0852 43.9976V104.229H79.9206V90.5402C79.9206 86.9097 78.4783 83.4278 75.9112 80.8606C73.344 78.2935 69.8621 76.8512 66.2316 76.8512C62.601 76.8512 59.1192 78.2935 56.552 80.8606C53.9848 83.4278 52.5426 86.9097 52.5426 90.5402V104.229H33.378V43.9976H99.0852ZM66.2316 87.8024C66.9577 87.8024 67.6541 88.0909 68.1675 88.6043C68.6809 89.1177 68.9694 89.8141 68.9694 90.5402V104.229H63.4938V90.5402C63.4938 89.8141 63.7822 89.1177 64.2957 88.6043C64.8091 88.0909 65.5055 87.8024 66.2316 87.8024ZM44.3292 71.3756C45.7814 71.3756 47.1741 71.9525 48.201 72.9794C49.2279 74.0063 49.8048 75.399 49.8048 76.8512V82.3268C49.8048 83.779 49.2279 85.1718 48.201 86.1987C47.1741 87.2255 45.7814 87.8024 44.3292 87.8024C42.877 87.8024 41.4842 87.2255 40.4573 86.1987C39.4305 85.1718 38.8536 83.779 38.8536 82.3268V76.8512C38.8536 75.399 39.4305 74.0063 40.4573 72.9794C41.4842 71.9525 42.877 71.3756 44.3292 71.3756ZM88.134 71.3756C89.4751 71.3758 90.7696 71.8682 91.7718 72.7594C92.774 73.6506 93.4143 74.8786 93.5712 76.2106L93.6096 76.8512V82.3268C93.608 83.7224 93.0736 85.0648 92.1156 86.0796C91.1575 87.0945 89.8481 87.7052 88.4549 87.7869C87.0616 87.8687 85.6898 87.4154 84.6196 86.5197C83.5493 85.6239 82.8615 84.3533 82.6967 82.9675L82.6584 82.3268V76.8512C82.6584 75.399 83.2353 74.0063 84.2621 72.9794C85.289 71.9525 86.6818 71.3756 88.134 71.3756ZM44.3292 49.4732C45.6703 49.4734 46.9648 49.9658 47.967 50.857C48.9692 51.7482 49.6095 52.9762 49.7664 54.3082L49.8048 54.9488V60.4244C49.8032 61.82 49.2688 63.1624 48.3108 64.1772C47.3527 65.1921 46.0433 65.8028 44.6501 65.8845C43.2568 65.9663 41.885 65.513 40.8148 64.6173C39.7445 63.7215 39.0567 62.4509 38.8919 61.0651L38.8536 60.4244V54.9488C38.8536 53.4966 39.4305 52.1039 40.4573 51.077C41.4842 50.0501 42.877 49.4732 44.3292 49.4732ZM66.2316 49.4732C67.5727 49.4734 68.8672 49.9658 69.8694 50.857C70.8716 51.7482 71.5119 52.9762 71.6688 54.3082L71.7072 54.9488V60.4244C71.7056 61.82 71.1712 63.1624 70.2132 64.1772C69.2551 65.1921 67.9457 65.8028 66.5525 65.8845C65.1592 65.9663 63.7874 65.513 62.7172 64.6173C61.6469 63.7215 60.9591 62.4509 60.7943 61.0651L60.756 60.4244V54.9488C60.756 53.4966 61.3329 52.1039 62.3597 51.077C63.3866 50.0501 64.7794 49.4732 66.2316 49.4732ZM88.134 49.4732C89.5862 49.4732 90.9789 50.0501 92.0058 51.077C93.0327 52.1039 93.6096 53.4966 93.6096 54.9488V60.4244C93.6096 61.8766 93.0327 63.2694 92.0058 64.2963C90.9789 65.3231 89.5862 65.9 88.134 65.9C86.6818 65.9 85.289 65.3231 84.2621 64.2963C83.2353 63.2694 82.6584 61.8766 82.6584 60.4244V54.9488C82.6584 53.4966 83.2353 52.1039 84.2621 51.077C85.289 50.0501 86.6818 49.4732 88.134 49.4732Z" fill="url(#paint0_linear_16_314)"/>
<defs>
<linearGradient id="paint0_linear_16_314" x1="66.2316" y1="16.6196" x2="66.2316" y2="115.18" gradientUnits="userSpaceOnUse">
<stop stop-color="white"/>
<stop offset="1" stop-color="#3D3D3D"/>
</linearGradient>
</defs>
</svg>
