<svg width="53" height="53" viewBox="0 0 53 53" fill="none" xmlns="http://www.w3.org/2000/svg">
<path fill-rule="evenodd" clip-rule="evenodd" d="M35.9998 19.4C35.9998 21.9461 34.9884 24.3879 33.188 26.1883C31.3877 27.9886 28.9459 29 26.3998 29C23.8537 29 21.4119 27.9886 19.6116 26.1883C17.8112 24.3879 16.7998 21.9461 16.7998 19.4C16.7998 16.854 17.8112 14.4122 19.6116 12.6118C21.4119 10.8115 23.8537 9.80005 26.3998 9.80005C28.9459 9.80005 31.3877 10.8115 33.188 12.6118C34.9884 14.4122 35.9998 16.854 35.9998 19.4ZM31.1998 19.4C31.1998 20.6731 30.6941 21.894 29.7939 22.7942C28.8937 23.6943 27.6728 24.2 26.3998 24.2C25.1268 24.2 23.9059 23.6943 23.0057 22.7942C22.1055 21.894 21.5998 20.6731 21.5998 19.4C21.5998 18.127 22.1055 16.9061 23.0057 16.0059C23.9059 15.1058 25.1268 14.6 26.3998 14.6C27.6728 14.6 28.8937 15.1058 29.7939 16.0059C30.6941 16.9061 31.1998 18.127 31.1998 19.4Z" fill="white"/>
<path fill-rule="evenodd" clip-rule="evenodd" d="M26.4 0.199951C11.82 0.199951 0 12.02 0 26.5999C0 41.1799 11.82 52.9999 26.4 52.9999C40.98 52.9999 52.8 41.1799 52.8 26.5999C52.8 12.02 40.98 0.199951 26.4 0.199951ZM4.8 26.5999C4.8 31.6159 6.5112 36.2335 9.3792 39.9007C11.3934 37.2557 13.9918 35.1121 16.9714 33.6375C19.9511 32.1629 23.2314 31.3971 26.556 31.4C29.8376 31.3968 33.0766 32.1428 36.0262 33.581C38.9759 35.0192 41.5583 37.1118 43.5768 39.6992C45.6563 36.9718 47.0564 33.7885 47.6613 30.4126C48.2663 27.0367 48.0586 23.5652 47.0556 20.2855C46.0525 17.0058 44.2829 14.0121 41.8932 11.552C39.5034 9.09202 36.5622 7.23641 33.3129 6.13877C30.0636 5.04113 26.5997 4.733 23.2077 5.23989C19.8157 5.74677 16.5931 7.05409 13.8066 9.05368C11.0202 11.0533 8.74995 13.6876 7.18375 16.7388C5.61755 19.79 4.80043 23.1703 4.8 26.5999ZM26.4 48.1999C21.4415 48.2074 16.6326 46.5016 12.7872 43.3712C14.335 41.1553 16.3952 39.3462 18.7925 38.0976C21.1897 36.849 23.8531 36.198 26.556 36.1999C29.2252 36.1978 31.8564 36.8325 34.231 38.0514C36.6057 39.2702 38.6553 41.038 40.2096 43.208C36.3343 46.44 31.4462 48.207 26.4 48.1999Z" fill="white"/>
</svg>
