<svg width="49" height="46" viewBox="0 0 49 46" fill="none" xmlns="http://www.w3.org/2000/svg">
<path d="M7.56 0.639893C7.15899 0.639893 6.77441 0.799192 6.49086 1.08275C6.2073 1.3663 6.048 1.75089 6.048 2.15189V12.7359H4.536C3.33298 12.7359 2.17923 13.2138 1.32856 14.0645C0.477899 14.9151 6.2366e-07 16.0689 6.2366e-07 17.2719V38.4399C-0.00049134 39.3783 0.290086 40.2938 0.831685 41.0602C1.37329 41.8265 2.13924 42.406 3.024 42.7189V43.7319C3.024 44.3334 3.26295 44.9103 3.68828 45.3356C4.11362 45.7609 4.69049 45.9999 5.292 45.9999C5.89351 45.9999 6.47039 45.7609 6.89572 45.3356C7.32105 44.9103 7.56 44.3334 7.56 43.7319V42.9759H12.096V39.9519H4.536C4.13499 39.9519 3.75041 39.7926 3.46686 39.509C3.1833 39.2255 3.024 38.8409 3.024 38.4399V17.2719C3.024 16.8709 3.1833 16.4863 3.46686 16.2027C3.75041 15.9192 4.13499 15.7599 4.536 15.7599H19.656C20.057 15.7599 20.4416 15.9192 20.7251 16.2027C21.0087 16.4863 21.168 16.8709 21.168 17.2719V18.7839H24.192V17.2719C24.192 16.0689 23.7141 14.9151 22.8634 14.0645C22.0128 13.2138 20.859 12.7359 19.656 12.7359H18.144V2.15189C18.144 1.75089 17.9847 1.3663 17.7011 1.08275C17.4176 0.799192 17.033 0.639893 16.632 0.639893H7.56ZM15.12 12.7359H9.072V3.66389H15.12V12.7359Z" fill="white"/>
<path d="M9.07185 20.296C9.07185 19.895 8.91255 19.5104 8.629 19.2269C8.34544 18.9433 7.96086 18.784 7.55985 18.784C7.15884 18.784 6.77426 18.9433 6.49071 19.2269C6.20715 19.5104 6.04785 19.895 6.04785 20.296V35.416C6.04785 35.817 6.20715 36.2016 6.49071 36.4852C6.77426 36.7687 7.15884 36.928 7.55985 36.928C7.96086 36.928 8.34544 36.7687 8.629 36.4852C8.91255 36.2016 9.07185 35.817 9.07185 35.416V20.296ZM33.2639 15.76C34.4669 15.76 35.6206 16.2379 36.4713 17.0886C37.322 17.9392 37.7999 19.093 37.7999 20.296V21.808H43.8479C45.0509 21.808 46.2046 22.2859 47.0553 23.1366C47.906 23.9872 48.3839 25.141 48.3839 26.344V41.464C48.3839 42.667 47.906 43.8208 47.0553 44.6714C46.2046 45.5221 45.0509 46 43.8479 46H19.6559C18.4528 46 17.2991 45.5221 16.4484 44.6714C15.5977 43.8208 15.1199 42.667 15.1199 41.464V26.344C15.1199 25.141 15.5977 23.9872 16.4484 23.1366C17.2991 22.2859 18.4528 21.808 19.6559 21.808H25.7039V20.296C25.7039 19.093 26.1817 17.9392 27.0324 17.0886C27.8831 16.2379 29.0368 15.76 30.2399 15.76H33.2639ZM28.7279 20.296V21.808H34.7759V20.296C34.7759 19.895 34.6166 19.5104 34.333 19.2269C34.0494 18.9433 33.6649 18.784 33.2639 18.784H30.2399C29.8388 18.784 29.4543 18.9433 29.1707 19.2269C28.8871 19.5104 28.7279 19.895 28.7279 20.296ZM18.1439 26.344V41.464C18.1439 41.865 18.3032 42.2496 18.5867 42.5332C18.8703 42.8167 19.2548 42.976 19.6559 42.976H21.1679V24.832H19.6559C19.2548 24.832 18.8703 24.9913 18.5867 25.2749C18.3032 25.5584 18.1439 25.943 18.1439 26.344ZM39.3119 42.976V24.832H24.1919V42.976H39.3119ZM43.8479 42.976C44.2489 42.976 44.6334 42.8167 44.917 42.5332C45.2006 42.2496 45.3599 41.865 45.3599 41.464V26.344C45.3599 25.943 45.2006 25.5584 44.917 25.2749C44.6334 24.9913 44.2489 24.832 43.8479 24.832H42.3358V42.976H43.8479Z" fill="white"/>
</svg>
