<svg width="104" height="103" viewBox="0 0 104 103" fill="none" xmlns="http://www.w3.org/2000/svg">
<path d="M50.095 31.1192V15.0005C49.8432 13.6533 17.1109 19.0064 17.3677 20.3536V36.4722C17.6229 37.8211 50.3501 32.4681 50.095 31.1192ZM86.6562 36.4739V20.3553C86.9148 19.0081 54.1842 13.655 53.929 15.0022V31.1192C53.6739 32.4681 86.4011 37.8211 86.6562 36.4739Z" fill="url(#paint0_linear_18_338)"/>
<path d="M18.7389 44.6437C20.2176 44.6437 21.4163 43.4747 21.4163 42.0327C21.4163 40.5906 20.2176 39.4216 18.7389 39.4216C17.2602 39.4216 16.0615 40.5906 16.0615 42.0327C16.0615 43.4747 17.2602 44.6437 18.7389 44.6437Z" fill="url(#paint1_linear_18_338)"/>
<path d="M26.5283 85.046L39.1855 87.2198L39.8131 83.7515L27.156 81.5776L26.5283 85.046ZM64.2123 83.7515L64.8399 87.2198L77.4971 85.046L76.8694 81.5776L64.2123 83.7515Z" fill="url(#paint2_linear_18_338)"/>
<path d="M85.2875 44.642C86.7671 44.642 87.9666 43.473 87.9666 42.031C87.9666 40.5889 86.7671 39.4199 85.2875 39.4199C83.8079 39.4199 82.6084 40.5889 82.6084 42.031C82.6084 43.473 83.8079 44.642 85.2875 44.642Z" fill="url(#paint3_linear_18_338)"/>
<path d="M52.0123 49.0987C55.1613 49.0987 57.7141 46.6122 57.7141 43.545C57.7141 40.4777 55.1613 37.9912 52.0123 37.9912C48.8633 37.9912 46.3105 40.4777 46.3105 43.545C46.3105 46.6122 48.8633 49.0987 52.0123 49.0987Z" fill="url(#paint4_linear_18_338)"/>
<path d="M48.1221 58.8197C48.1221 60.9119 49.8656 62.6112 52.0123 62.6112C54.1589 62.6112 55.9024 60.9136 55.9024 58.8197C55.9024 56.7258 54.1589 55.0333 52.0123 55.0333C49.8656 55.0333 48.1221 56.7275 48.1221 58.8197ZM53.8357 58.8197C53.8357 59.7995 53.0192 60.5973 52.0123 60.5973C51.5355 60.6018 51.0764 60.4173 50.7353 60.0842C50.3942 59.7511 50.1989 59.2964 50.1922 58.8197C50.1922 57.8433 51.0087 57.0456 52.0123 57.0456C53.0192 57.0473 53.8357 57.8433 53.8357 58.8197ZM74.7699 48.4844L74.2852 51.155C74.1423 51.9409 74.7937 52.7097 75.7344 52.8713L89.356 55.2119C90.2967 55.3718 91.1761 54.8666 91.3156 54.0824L91.8003 51.4102C91.9432 50.6243 91.2952 49.8571 90.3511 49.6956L76.7295 47.355C75.7905 47.1934 74.9094 47.7003 74.7699 48.4844Z" fill="url(#paint5_linear_18_338)"/>
<path d="M82.6202 86.7112V86.4271L93.2277 102.585H103.042L89.3239 84.6104C92.452 83.5575 94.153 82.0283 94.153 79.5789V55.4536C94.187 55.3328 94.2295 55.2155 94.2534 55.0896L94.9065 51.475C94.9933 51.0055 94.9852 50.5234 94.8826 50.0572C94.7801 49.5909 94.5852 49.1499 94.3095 48.7602C94.2636 48.6921 94.2023 48.6394 94.153 48.5747V18.1779C94.153 15.2437 91.0504 14.1448 88.5584 13.262C87.9311 13.0416 87.2999 12.8323 86.6652 12.6343V11.4521C86.6652 10.935 82.5352 9.5385 76.3095 8.24234C76.335 7.9991 76.3826 7.76436 76.3826 7.51431C76.3826 3.65985 73.1848 0.524902 69.2538 0.524902C65.8024 0.524902 62.9158 2.94543 62.2677 6.14841C58.8593 5.81545 55.4371 5.64176 52.0124 5.6279C48.5458 5.6279 45.0928 5.83542 41.7639 6.14841C41.1141 2.94543 38.2275 0.524902 34.7762 0.524902C30.8435 0.524902 27.6473 3.65985 27.6473 7.51431C27.6473 7.76266 27.6949 7.9991 27.7204 8.24064C21.4931 9.5368 17.3648 10.9333 17.3648 11.4504V12.6309C16.6912 12.8418 16.055 13.0528 15.4715 13.2586C12.9779 14.1414 9.87525 15.2403 9.87525 18.1745L9.87865 48.5679C9.82762 48.6343 9.76639 48.687 9.71706 48.7568C9.44275 49.1472 9.24885 49.5883 9.14664 50.0543C9.04443 50.5204 9.03595 51.0022 9.12171 51.4716L9.77489 55.0845C9.79871 55.2155 9.84123 55.3379 9.88035 55.4621V65.7855H9.87525V79.5755C9.87525 82.0249 11.5763 83.5541 14.7044 84.6087L0.982422 102.585H10.7989L21.4046 86.4305V86.7112C21.4046 88.8952 22.7535 90.6881 25.3867 92.0982L18.7392 102.585H85.284L78.6399 92.0965C81.2747 90.6881 82.6202 88.8952 82.6202 86.7112ZM69.2453 62.375V62.7135C69.2453 63.8855 67.4677 64.6798 66.5305 64.8363C65.2479 65.0506 63.7034 65.2241 62.0058 65.3602V62.375H69.2453ZM62.0058 58.8199V55.8329C63.5206 55.9462 65.0301 56.1216 66.5305 56.3585C67.4677 56.515 69.2453 57.3094 69.2453 58.4814V58.8199H62.0058ZM93.231 51.1705L92.5762 54.7834C92.4767 55.3005 92.1768 55.7573 91.7418 56.054C91.3067 56.3507 90.772 56.4632 90.2543 56.367L74.4809 53.6556C74.2248 53.6152 73.9792 53.5243 73.7584 53.3883C73.5376 53.2523 73.3459 53.0739 73.1945 52.8633C73.0431 52.6528 72.935 52.4143 72.8764 52.1617C72.8178 51.909 72.8099 51.6473 72.8531 51.3916L73.508 47.7821C73.6065 47.2638 73.9068 46.8059 74.3428 46.509C74.7788 46.212 75.3149 46.1003 75.8332 46.1985L91.6066 48.9064C92.6969 49.097 93.425 50.1073 93.231 51.1705ZM69.2521 2.2259C72.2492 2.2259 74.6799 4.59369 74.6799 7.51431C74.6799 10.4349 72.2475 12.8027 69.2521 12.8027C66.2566 12.8027 63.8242 10.4332 63.8242 7.51431C63.8225 4.59369 66.2549 2.2259 69.2521 2.2259ZM34.7762 2.2259C37.7733 2.2259 40.2041 4.59369 40.2041 7.51431C40.2041 10.4349 37.7717 12.8027 34.7762 12.8027C31.7807 12.8027 29.3483 10.4332 29.3483 7.51431C29.3483 4.59369 31.779 2.2259 34.7762 2.2259ZM30.3791 12.9762C31.1412 13.576 32.0174 14.0144 32.9544 14.2646C33.8914 14.5148 34.8696 14.5716 35.8292 14.4315C36.7889 14.2915 37.71 13.9575 38.5364 13.45C39.3628 12.9424 40.0772 12.2719 40.6361 11.4793C44.4145 11.0691 48.2118 10.8567 52.0124 10.8432H52.0226C55.8652 10.8432 59.7009 11.0881 63.3921 11.4776C63.9512 12.27 64.6657 12.9402 65.492 13.4477C66.3184 13.9551 67.2393 14.2891 68.1989 14.4293C69.1584 14.5694 70.1364 14.5129 71.0734 14.2631C72.0104 14.0133 72.8867 13.5755 73.6491 12.9762C83.5966 14.8388 90.751 17.3665 90.751 18.1779V47.037L76.1207 44.5247C75.9094 44.489 75.6954 44.4708 75.4811 44.4702C74.6159 44.4645 73.7762 44.7634 73.1092 45.3144C72.4421 45.8655 71.9902 46.6337 71.8325 47.4844L71.1793 51.0922C71.0929 51.5634 71.1016 52.0471 71.205 52.5148C71.3084 52.9825 71.5044 53.4247 71.7814 53.8155C72.3496 54.6286 73.2069 55.1678 74.1935 55.3362L89.9651 58.0476C90.1812 58.0833 90.3921 58.102 90.6013 58.102C90.6506 58.102 90.6983 58.0901 90.7476 58.0901V58.8233H72.8531V57.408C72.8531 55.6407 70.7064 54.4449 69.5735 54.2119C67.5068 53.7815 64.8924 53.4566 62.0058 53.2338V36.3888C62.0058 32.0699 42.0224 32.0699 42.0224 36.3888V53.2338C39.1342 53.4566 36.5197 53.7815 34.4547 54.2119C33.3218 54.4449 31.1752 55.6407 31.1752 57.408V58.8233H13.2807V58.0901C13.3283 58.0901 13.3759 58.102 13.4235 58.102C13.6328 58.102 13.8454 58.0833 14.058 58.0476L29.8314 55.3362C30.314 55.2556 30.7758 55.0797 31.1899 54.819C31.604 54.5582 31.9621 54.2177 32.2434 53.8172C32.5196 53.426 32.715 52.9837 32.8184 52.5162C32.9218 52.0486 32.931 51.5651 32.8456 51.0939L32.1907 47.481C32.0333 46.6308 31.5819 45.8632 30.9155 45.3124C30.249 44.7616 29.41 44.4629 28.5454 44.4685C28.3345 44.4685 28.1202 44.4872 27.9058 44.523L13.2772 47.0353V18.1762C13.2772 17.3648 20.4317 14.8388 30.3791 12.9762ZM52.0124 51.6621C47.4112 51.6621 43.6809 48.027 43.6809 43.5449C43.6809 39.0628 47.4112 35.4277 52.0124 35.4277C56.6136 35.4277 60.3439 39.0628 60.3439 43.5449C60.3439 48.027 56.6136 51.6621 52.0124 51.6621ZM57.7006 58.8199C57.7006 61.8834 55.1525 64.3651 52.0124 64.3651C48.8724 64.3651 46.3277 61.8834 46.3277 58.8199C46.3277 55.7632 48.8724 53.2814 52.0124 53.2814C55.1525 53.2814 57.7006 55.7649 57.7006 58.8199ZM37.4944 64.838C36.5571 64.6815 34.783 63.8872 34.783 62.7152V62.3767H42.0224V65.3619C40.3214 65.2241 38.7803 65.0523 37.4944 64.838ZM34.783 58.8199V58.4814C34.783 57.3094 36.5571 56.515 37.4944 56.3585C38.9959 56.1216 40.5066 55.9462 42.0224 55.8329V58.8199H34.783ZM11.447 54.7834L10.7938 51.1705C10.7503 50.9149 10.758 50.6532 10.8164 50.4006C10.8748 50.148 10.9828 49.9094 11.1341 49.6989C11.2853 49.4883 11.4769 49.3098 11.6976 49.1738C11.9183 49.0378 12.1638 48.9469 12.4199 48.9064L28.1933 46.1985C28.4498 46.1497 28.7134 46.152 28.9689 46.2052C29.2245 46.2584 29.4671 46.3615 29.6828 46.5086C29.8984 46.6557 30.083 46.8439 30.2258 47.0624C30.3687 47.281 30.467 47.5255 30.5152 47.7821L31.1701 51.3916C31.214 51.6474 31.2066 51.9094 31.1482 52.1622C31.0899 52.4151 30.9819 52.6539 30.8304 52.8646C30.6789 53.0753 30.4869 53.2538 30.2658 53.3896C30.0446 53.5254 29.7987 53.6158 29.5422 53.6556L13.7722 56.3687C13.254 56.4636 12.7193 56.3503 12.2841 56.0535C11.8488 55.7568 11.548 55.3004 11.447 54.7834ZM79.2182 86.7112C79.2182 89.6029 71.5671 91.411 62.0024 92.134V87.2198H42.0224V92.134C32.4577 91.411 24.8066 89.6046 24.8066 86.7112V83.0353C17.87 82.2545 13.2772 81.1013 13.2772 79.5789V73.9231H39.7108V80.2593H44.8478V84.8282H48.4931V80.2593H55.5369V84.8282H59.1855V80.2593H64.3192V73.9231H90.7544V79.5772C90.7544 81.1013 86.1634 82.2528 79.2233 83.0336V86.7112H79.2182Z" fill="url(#paint6_linear_18_338)"/>
<path d="M14.6738 55.2123L28.2954 52.8717C29.236 52.7067 29.8841 51.9378 29.7412 51.152L29.2599 48.4848C29.117 47.7006 28.2393 47.192 27.2969 47.3553L13.6719 49.6959C12.7329 49.8575 12.0832 50.6247 12.2244 51.4105L12.7074 54.0828C12.8503 54.8669 13.7314 55.3721 14.6738 55.2123ZM34.7728 11.1308C36.8225 11.1308 38.4878 9.51319 38.4878 7.51451C38.4878 5.51584 36.8225 3.89648 34.7728 3.89648C32.7265 3.89648 31.0612 5.51584 31.0612 7.51451C31.0612 9.51319 32.7265 11.1308 34.7728 11.1308Z" fill="url(#paint7_linear_18_338)"/>
<path d="M69.2521 11.1306C71.3038 11.1306 72.9671 9.51152 72.9671 7.51428C72.9671 5.51703 71.3038 3.89795 69.2521 3.89795C67.2004 3.89795 65.5371 5.51703 65.5371 7.51428C65.5371 9.51152 67.2004 11.1306 69.2521 11.1306Z" fill="url(#paint8_linear_18_338)"/>
<defs>
<linearGradient id="paint0_linear_18_338" x1="54.3928" y1="15.5672" x2="54.1546" y2="36.7137" gradientUnits="userSpaceOnUse">
<stop stop-color="white"/>
<stop offset="1" stop-color="#999999"/>
</linearGradient>
<linearGradient id="paint1_linear_18_338" x1="18.9229" y1="39.6081" x2="18.7479" y2="44.644" gradientUnits="userSpaceOnUse">
<stop stop-color="white"/>
<stop offset="1" stop-color="#999999"/>
</linearGradient>
<linearGradient id="paint2_linear_18_338" x1="53.764" y1="81.7791" x2="53.7425" y2="87.2267" gradientUnits="userSpaceOnUse">
<stop stop-color="white"/>
<stop offset="1" stop-color="#999999"/>
</linearGradient>
<linearGradient id="paint3_linear_18_338" x1="85.4716" y1="39.6064" x2="85.2967" y2="44.6423" gradientUnits="userSpaceOnUse">
<stop stop-color="white"/>
<stop offset="1" stop-color="#999999"/>
</linearGradient>
<linearGradient id="paint4_linear_18_338" x1="52.4041" y1="38.3879" x2="52.0323" y2="49.0994" gradientUnits="userSpaceOnUse">
<stop stop-color="white"/>
<stop offset="1" stop-color="#999999"/>
</linearGradient>
<linearGradient id="paint5_linear_18_338" x1="71.4725" y1="47.8709" x2="71.2886" y2="62.6277" gradientUnits="userSpaceOnUse">
<stop stop-color="white"/>
<stop offset="1" stop-color="#999999"/>
</linearGradient>
<linearGradient id="paint6_linear_18_338" x1="55.5192" y1="4.1699" x2="52.0124" y2="102.585" gradientUnits="userSpaceOnUse">
<stop stop-color="white"/>
<stop offset="1" stop-color="#999999"/>
</linearGradient>
<linearGradient id="paint7_linear_18_338" x1="26.2495" y1="5.73025" x2="22.8152" y2="55.0656" gradientUnits="userSpaceOnUse">
<stop stop-color="white"/>
<stop offset="1" stop-color="#999999"/>
</linearGradient>
<linearGradient id="paint8_linear_18_338" x1="69.5074" y1="4.15626" x2="69.2655" y2="11.1311" gradientUnits="userSpaceOnUse">
<stop stop-color="white"/>
<stop offset="1" stop-color="#999999"/>
</linearGradient>
</defs>
</svg>
