<svg width="870" height="777" viewBox="0 0 870 777" fill="none" xmlns="http://www.w3.org/2000/svg">
<g filter="url(#filter0_d_112_1590)">
<path fill-rule="evenodd" clip-rule="evenodd" d="M767.208 307.268C765.638 308.23 764.215 309.446 762.949 310.919C762.365 309.765 762.158 308.548 762.341 307.268C761.124 307.268 759.907 307.268 758.691 307.268C761.684 303.661 763.91 299.605 765.383 295.101C765.991 292.7 766.186 290.267 765.991 287.8C762.949 287.216 760.102 286 757.474 284.15C756.659 284.555 755.856 284.962 755.04 285.367C752.595 281.914 749.553 279.074 745.915 276.85C745.318 275.276 745.112 273.653 745.306 271.983C740.61 270.591 735.743 269.779 730.705 269.549C730.705 267.927 730.705 266.304 730.705 264.682C728.15 264.71 725.923 263.898 724.013 262.248C719.937 264.394 715.678 266.016 711.237 267.115C706.565 266.584 701.905 266.177 697.244 265.899C693.473 269.671 689.615 273.524 685.685 277.458C683.848 278.492 682.023 279.506 680.21 280.5C678.178 279.283 676.158 278.066 674.126 276.85C669.904 280.31 666.047 279.905 662.567 275.633C658.539 277.146 654.488 277.146 650.399 275.633C648.112 276.27 645.873 277.082 643.707 278.066C642.125 276.598 640.3 275.786 638.232 275.633C636.37 271.656 634.74 267.601 633.365 263.465C630.213 263.592 627.378 262.78 624.847 261.032C622.56 261.669 620.321 262.481 618.155 263.465C615.783 260.594 613.142 257.958 610.246 255.556C608.677 254.96 607.046 254.757 605.379 254.948C605.379 253.326 605.379 251.703 605.379 250.081C602.775 249.834 600.756 248.617 599.296 246.431C597.787 247.338 596.169 247.744 594.429 247.647C595.292 239.679 592.457 233.595 585.911 229.396C585.181 226.127 583.563 223.49 581.044 221.487C581.969 219.734 582.784 217.909 583.478 216.012C581.896 212.443 580.679 208.793 579.827 205.061C578.611 205.061 577.394 205.061 576.177 205.061C575.131 201.967 573.513 199.127 571.31 196.544C569.862 198.174 568.037 198.986 565.835 198.977C562.44 198.106 558.984 197.701 555.492 197.76C555.456 195.227 556.271 192.996 557.926 191.068C556.879 190.23 556.076 189.216 555.492 188.026C557.196 186.381 557.999 184.353 557.926 181.943C556.758 178.802 556.758 175.76 557.926 172.817C556.466 168.159 554.434 163.292 551.842 158.216C551.477 153.224 552.292 148.357 554.276 143.615C553.996 140.539 553.594 137.497 553.059 134.489C551.781 134.671 550.564 134.469 549.409 133.881C546.269 130.525 543.836 126.672 542.108 122.322C541.11 121.244 539.894 120.838 538.458 121.105C538.251 119.496 538.656 118.076 539.675 116.846C538.632 116.008 537.821 114.994 537.241 113.804C541.5 107.534 543.933 100.639 544.542 93.1196C540.903 93.2145 540.1 91.7945 542.108 88.8609C539.881 87.0285 539.48 85.0001 540.891 82.7771C538.045 75.2844 532.773 70.6205 525.073 68.7845C523.497 62.0023 521.063 55.5133 517.773 49.3164C515.599 48.3235 513.57 47.1067 511.689 45.6661C510.724 46.1905 509.709 46.5969 508.647 46.8829C504.383 45.744 501.139 43.3105 498.913 39.5823C495.615 41.3174 492.573 40.911 489.788 38.3656C482.936 41.3844 476.244 44.6294 469.711 48.0996C466.339 44.947 462.892 44.947 459.369 48.0996C458.212 47.0946 456.995 46.8926 455.718 47.4912C450.256 55.2006 444.984 63.1095 439.901 71.218C441.187 73.9751 440.578 76.4086 438.075 78.5185C437.473 80.9192 437.27 83.3527 437.467 85.819C438.684 85.819 439.901 85.819 441.117 85.819C441.021 87.559 441.426 89.1821 442.334 90.686C444.34 91.4745 445.962 92.6913 447.201 94.3363C444.788 97.3587 442.152 100.197 439.292 102.854C437.103 107.023 435.684 111.485 435.034 116.238C438.004 123.941 439.626 131.648 439.901 139.356C441.522 139.356 443.146 139.356 444.768 139.356C444.768 140.573 444.768 141.79 444.768 143.007C445.984 143.007 447.201 143.007 448.418 143.007C448.488 148.894 451.327 152.138 456.935 152.741C456.801 155.854 457.612 158.693 459.369 161.258C462.933 164.451 466.988 166.479 471.536 167.342C471.682 169.409 472.089 171.436 472.753 173.425C470.529 177.167 469.717 181.02 470.319 184.985C472.956 189.727 474.984 194.392 476.403 198.977C468.02 206.246 461.124 214.763 455.718 224.529C446.284 230.058 436.55 234.925 426.516 239.13C425.678 241.496 425.07 243.929 424.691 246.431C422.602 248.241 421.182 250.472 420.432 253.123C420.729 259.006 421.946 264.888 424.083 270.766C425.299 270.766 426.516 270.766 427.733 270.766C425.898 273.978 426.305 276.817 428.95 279.283C427.508 284.206 424.263 287.045 419.216 287.8C417.347 286.889 415.725 285.672 414.349 284.15C411.347 285.822 409.115 285.01 407.657 281.717C407.153 282.273 406.544 282.679 405.831 282.933C404.466 281.558 402.843 280.747 400.964 280.5C396.044 279.485 391.177 279.08 386.363 279.283C388.207 277.358 390.234 275.735 392.447 274.416C395.433 274.198 398.07 275.009 400.356 276.85C401.92 276.302 403.339 275.49 404.615 274.416C409.219 278.417 414.289 281.661 419.824 284.15C421.097 282.602 421.705 280.777 421.649 278.675C421.142 275.635 420.735 272.593 420.432 269.549C419.216 269.549 417.999 269.549 416.782 269.549C416.991 267.125 416.18 265.098 414.349 263.465C415.478 260.7 415.478 257.861 414.349 254.948C416.538 248.113 418.768 241.218 421.041 234.263C424.673 232.651 428.323 231.029 431.992 229.396C433.054 229.682 434.069 230.088 435.034 230.613C439.65 228.913 444.112 226.885 448.418 224.529C451.169 220.124 453.804 215.663 456.327 211.145C460.639 209.272 463.072 206.027 463.627 201.411C466.08 199.781 467.5 197.551 467.886 194.719C466.237 191.207 465.02 187.557 464.236 183.768C468.205 177.474 467.394 171.998 461.802 167.342C458.679 168.685 456.043 167.873 453.893 164.908C451.797 161.196 449.972 157.342 448.418 153.349C446.845 152.753 445.221 152.55 443.551 152.741C443.339 149.868 442.934 147.029 442.334 144.223C440.712 144.223 439.089 144.223 437.467 144.223C437.467 142.195 437.467 140.168 437.467 138.139C433.406 138.615 432.189 137.195 433.817 133.881C432.178 127.26 430.556 120.974 428.95 115.021C430.738 111.604 431.752 107.954 431.992 104.07C434.628 101.434 437.264 98.7981 439.901 96.1614C436.413 92.6219 433.371 88.7684 430.775 84.6023C430.37 82.7199 430.978 81.098 432.6 79.7352C431.613 78.8641 430.802 77.8493 430.166 76.6934C434.688 68.5034 439.757 60.5945 445.376 52.9666C448.928 50.7655 450.551 47.9256 450.243 44.4494C452.507 42.9114 454.941 41.6946 457.544 40.7991C460.382 42.421 463.222 42.421 466.061 40.7991C467.624 41.3466 469.044 42.1582 470.319 43.2326C475.795 40.939 481.067 38.3023 486.137 35.3237C489.638 34.4415 492.882 35.0499 495.871 37.1488C499.576 33.8989 502.415 34.7104 504.389 39.5823C507.229 37.9507 509.257 38.7622 510.472 42.0158C511.623 41.4233 512.84 41.0181 514.123 40.7991C516.106 41.9197 518.134 42.9345 520.206 43.841C521.277 45.4909 521.684 47.316 521.423 49.3164C523.045 49.3164 524.668 49.3164 526.29 49.3164C527.305 56.6388 530.144 63.1278 534.808 68.7845C536.311 67.8768 537.935 67.4716 539.675 67.5677C539.675 69.1896 539.675 70.8128 539.675 72.4347C540.891 72.4347 542.108 72.4347 543.325 72.4347C544.335 76.3052 545.551 80.1587 546.975 83.9939C546.683 85.0561 546.282 86.0709 545.758 87.0358C547.377 89.8428 548.995 92.6827 550.625 95.5531C549.798 102.396 547.766 109.088 544.542 115.63C545.247 117.715 546.659 119.135 548.8 119.888C550.187 123.054 551.197 126.299 551.842 129.622C553.448 129.415 554.872 129.821 556.101 130.839C558.279 134.352 560.104 138.002 561.576 141.79C560.14 146.273 558.924 150.735 557.926 155.174C559.97 159.686 561.6 164.35 562.793 169.167C560.968 171.608 561.369 173.635 564.01 175.251C563.791 178.97 563.791 182.62 564.01 186.201C560.177 190.299 560.785 193.341 565.835 195.327C568.536 193.267 571.578 192.05 574.96 191.677C574.96 192.893 574.96 194.11 574.96 195.327C576.579 195.327 578.209 195.327 579.827 195.327C581.409 200.508 583.441 205.375 585.911 209.928C587.128 209.928 588.345 209.928 589.562 209.928C589.452 212.577 588.649 215.01 587.128 217.229C588.369 220.516 589.586 223.761 590.778 226.963C591.995 226.963 593.212 226.963 594.429 226.963C594.429 228.179 594.429 229.396 594.429 230.613C595.645 230.613 596.862 230.613 598.079 230.613C598.48 234.668 598.894 238.725 599.296 242.78C601.839 242.855 603.664 244.071 604.771 246.431C605.647 245.274 606.657 245.072 607.813 245.822C611.329 250.76 615.393 255.019 619.98 258.598C624.215 255.207 628.072 255.612 631.54 259.815C632.769 258.797 634.192 258.391 635.798 258.598C635.397 262.248 637.015 263.87 640.665 263.465C640.629 267.769 642.454 271.014 646.141 273.199C649.28 272.133 652.529 272.133 655.875 273.199C658.771 273.221 661.411 272.41 663.784 270.766C665.451 272.239 667.276 273.456 669.259 274.416C671.291 273.604 673.311 272.794 675.343 271.983C677.326 272.943 679.151 274.159 680.818 275.633C685.624 271.643 690.078 267.181 694.203 262.248C695.955 261.27 697.78 260.459 699.678 259.815C703.255 261.866 707.1 263.083 711.237 263.465C715.836 261.774 720.302 259.746 724.621 257.381C726.288 258.855 728.114 260.072 730.097 261.032C733.309 259.556 734.733 260.773 734.355 264.682C737.361 265.046 740.001 266.263 742.264 268.332C744.418 267.44 746.645 267.034 748.957 267.115C749.833 270.55 751.049 273.795 752.607 276.85C754.639 276.85 756.659 276.85 758.691 276.85C760.212 282.229 763.862 284.257 769.641 282.933C769.641 284.555 769.641 286.178 769.641 287.8C770.858 287.8 772.075 287.8 773.292 287.8C773.438 290.214 772.622 292.241 770.858 293.884C772.659 297.59 771.649 300.429 767.816 302.401C767.22 303.975 767.013 305.598 767.208 307.268Z" fill="black"/>
<path fill-rule="evenodd" clip-rule="evenodd" d="M362.029 308.485C361.218 307.269 360.407 306.052 359.596 304.835C359.998 300.81 361.824 297.565 365.071 295.101C367.007 290.519 369.237 286.057 371.763 281.717C373.385 280.905 375.008 280.095 376.63 279.283C379.897 279.933 383.142 281.555 386.364 284.15C388.43 282.713 390.459 282.713 392.448 284.15C388.815 289.836 384.758 290.243 380.281 285.367C378.315 286.163 376.287 286.771 374.197 287.192C372.777 291.046 371.358 294.898 369.938 298.751C366.511 301.549 363.875 304.792 362.029 308.485Z" fill="black"/>
<path fill-rule="evenodd" clip-rule="evenodd" d="M758.691 307.27C759.908 307.27 761.125 307.27 762.342 307.27C762.159 308.55 762.366 309.766 762.95 310.92C764.215 309.448 765.639 308.231 767.209 307.27C767.513 310.24 768.73 312.673 770.859 314.57C767.854 314.069 766.223 315.286 765.992 318.22C764.86 316.921 764.447 315.299 764.775 313.353C763.558 313.353 762.342 313.353 761.125 313.353C761.283 310.854 760.48 308.826 758.691 307.27Z" fill="black"/>
<path fill-rule="evenodd" clip-rule="evenodd" d="M359.596 304.836C360.408 306.053 361.218 307.269 362.03 308.486C360.529 311.891 358.096 314.527 354.729 316.395C349.53 317.241 344.258 317.849 338.911 318.22C339.178 316.791 338.773 315.574 337.695 314.57C334.604 313.472 331.562 312.256 328.569 310.92C325.074 313.369 321.222 314.992 317.01 315.787C316.268 314.703 315.862 313.486 315.793 312.136C320.122 310.176 324.583 308.553 329.177 307.269C331.92 307.794 334.557 308.604 337.086 309.703C338.578 309.527 339.998 309.121 341.345 308.486C342.423 309.49 342.828 310.707 342.562 312.136C345.393 311.829 347.826 312.64 349.862 314.57C353.153 313.27 354.979 310.837 355.338 307.269C356.33 305.66 357.75 304.849 359.596 304.836Z" fill="black"/>
<path fill-rule="evenodd" clip-rule="evenodd" d="M770.859 314.571C772.575 315.146 773.378 316.363 773.293 318.221C773.293 319.843 772.477 320.654 770.859 320.654C769.898 318.703 768.28 317.891 765.992 318.221C766.223 315.286 767.854 314.069 770.859 314.571Z" fill="black"/>
<path fill-rule="evenodd" clip-rule="evenodd" d="M291.457 324.302C293.103 323.054 294.32 321.432 295.107 319.435C297.779 317.899 300.619 316.682 303.625 315.785C305.367 316.069 305.975 316.88 305.45 318.219C301.157 321.074 296.493 323.102 291.457 324.302Z" fill="black"/>
<path fill-rule="evenodd" clip-rule="evenodd" d="M276.855 303.617C276.586 305.12 275.775 306.337 274.422 307.268C274.827 307.673 275.233 308.079 275.638 308.484C277.55 307.5 279.578 307.094 281.722 307.268C281.641 309.043 282.046 310.665 282.939 312.135C282.939 313.351 282.939 314.568 282.939 315.785C286.283 315.666 287.093 316.882 285.372 319.435C284.561 319.435 284.156 319.84 284.156 320.652C282.547 320.859 281.127 320.453 279.897 319.435C278.532 317.099 277.517 314.665 276.855 312.135C273.173 310.824 269.523 310.824 265.904 312.135C264.324 311.417 263.31 310.2 262.863 308.484C260.002 309.961 256.96 310.976 253.737 311.526C250.432 315.494 246.985 319.347 243.394 323.085C238.615 335.508 235.168 347.676 233.052 359.588C227.603 363.615 222.331 367.874 217.234 372.364C215.379 373.592 213.35 374.2 211.15 374.189C213.377 370.87 215.202 367.219 216.626 363.238C222.605 359.543 227.675 354.879 231.835 349.246C231.031 343.982 231.031 338.913 231.835 334.036C234.965 327.467 238.818 321.383 243.394 315.785C243.394 314.163 243.394 312.54 243.394 310.918C247.963 308.329 252.627 305.895 257.387 303.617C258.199 304.429 259.009 305.239 259.821 306.051C262.702 302.992 265.541 302.992 268.338 306.051C270.855 303.334 273.695 302.522 276.855 303.617Z" fill="black"/>
<path fill-rule="evenodd" clip-rule="evenodd" d="M24.9862 358.373C30.1148 360.18 32.9535 363.83 33.5035 369.324C36.5125 369.688 39.1492 370.904 41.4124 372.974C43.195 371.964 45.0201 371.762 46.8878 372.366C48.9514 375.414 51.7913 377.239 55.4051 377.841C55.9113 381.428 57.5332 382.24 60.2721 380.275C62.337 380.76 64.3641 381.368 66.3559 382.1C66.9716 385.181 68.3915 387.816 70.6146 390.009C75.7517 390.73 81.0239 390.73 86.4324 390.009C90.9587 391.667 95.6225 392.884 100.425 393.659C96.641 404.265 99.6828 406.699 109.551 400.959C111.296 401.483 112.716 402.497 113.809 404.001C115.026 404.813 116.243 404.813 117.46 404.001C122.838 399.441 127.298 394.168 130.844 388.184C133.813 386.598 136.855 385.178 139.97 383.925C140.909 384.101 141.721 384.507 142.403 385.142C142.637 387.669 143.245 390.102 144.228 392.442C148.938 388.338 153.4 384.079 157.613 379.666C160.564 379.725 163.403 379.521 166.13 379.058C167.923 380.197 169.14 381.82 169.78 383.925C170.833 385.243 172.049 385.445 173.43 384.533C178.979 379.154 184.657 374.085 190.465 369.324C194.155 370.519 196.184 372.952 196.549 376.624C200.153 375.942 203.6 374.725 206.891 372.974C208.844 373.705 210.466 374.922 211.758 376.624C213.576 375.107 215.401 375.107 217.234 376.624C213.611 380.973 209.556 381.379 205.066 377.841C201.866 379.441 198.621 381.064 195.332 382.708C193.542 381.636 192.529 380.014 192.29 377.841C185.127 382.231 177.827 386.288 170.389 390.009C168.023 388.563 166.198 386.536 164.913 383.925C162.59 384.957 160.157 385.363 157.613 385.142C157.613 386.764 157.613 388.387 157.613 390.009C150.989 392.215 144.498 394.648 138.145 397.309C138.536 392.516 136.914 391.503 133.277 394.267C132.181 397.396 130.559 400.234 128.41 402.785C123.949 405.015 119.488 407.246 115.026 409.477C113.354 408.003 111.529 406.787 109.551 405.826C106.212 406.804 102.967 408.02 99.8167 409.477C97.6679 408.585 95.4376 408.178 93.1245 408.26C92.6902 404.115 92.2838 400.261 91.9078 396.701C86.1598 396.61 80.4812 395.596 74.8732 393.659C71.0477 395.908 68.0058 395.097 65.7475 391.225C64.5174 392.244 63.0974 392.649 61.4889 392.442C62.3102 385.407 59.4703 383.379 52.9716 386.358C52.9716 384.736 52.9716 383.113 52.9716 381.491C49.5829 380.965 46.743 379.343 44.4543 376.624C40.7067 378.577 37.6648 377.766 35.3286 374.191C34.0097 375.608 32.9961 377.23 32.2867 379.058C32.2867 382.708 32.2867 386.358 32.2867 390.009C30.2499 392.258 29.0331 394.895 28.6365 397.918C29.5454 403.837 31.5725 409.312 34.7203 414.344C31.2927 417.509 30.4811 421.159 32.2867 425.295C34.4623 424.948 36.4906 425.353 38.3705 426.511C39.0726 429.006 40.6945 430.222 43.2375 430.162C41.7348 432.927 42.14 435.158 44.4543 436.854C40.5303 440.631 36.88 444.686 33.5035 449.021C34.5219 450.251 34.9271 451.671 34.7203 453.28C36.0003 453.099 37.217 453.301 38.3705 453.888C37.9203 455.847 38.7319 457.672 40.804 459.364C41.8079 460.442 43.0246 460.847 44.4543 460.58C45.2622 463.461 46.8842 465.894 49.3213 467.881C50.9433 472.343 50.9433 476.803 49.3213 481.265C47.4098 482.25 45.3815 482.656 43.2375 482.482C43.5089 480.241 43.9153 478.01 44.4543 475.79C43.6293 472.143 42.4126 468.696 40.804 465.447C39.5873 465.447 38.3705 465.447 37.1538 465.447C37.1538 464.231 37.1538 463.014 37.1538 461.797C35.937 461.797 34.7203 461.797 33.5035 461.797C33.5692 456.59 31.1357 453.75 26.203 453.28C26.0728 450.356 27.2895 448.126 29.8532 446.588C26.95 447.015 24.1114 446.813 21.3359 445.979C25.7601 442.375 30.2207 438.725 34.7203 435.029C35.8506 433.582 36.2558 431.96 35.937 430.162C34.197 430.065 32.5739 430.471 31.07 431.378C29.3239 429.767 28.1072 427.74 27.4197 425.295C25.2746 427.064 23.6514 426.657 22.5527 424.078C25.2928 421.639 26.916 418.598 27.4197 414.952C26.613 409.085 24.5847 403.812 21.3359 399.134C22.0672 397.181 23.284 395.56 24.9862 394.267C25.2223 390.905 25.2223 387.457 24.9862 383.925C26.7176 380.03 27.9344 375.975 28.6365 371.757C24.8256 369.566 22.3921 366.321 21.3359 362.023C22.358 360.521 23.5748 359.304 24.9862 358.373Z" fill="black"/>
<path fill-rule="evenodd" clip-rule="evenodd" d="M548.193 521.416C547.257 522.234 546.454 523.248 545.76 524.458C548.157 526.283 549.775 528.514 550.627 531.15C551.686 534.173 552.501 537.418 553.061 540.885C552.927 542.031 552.525 543.044 551.844 543.926C553.997 549.401 556.431 554.876 559.144 560.353C557.344 562.765 555.312 564.996 553.061 567.045C555.02 567.022 557.039 566.82 559.144 566.436C559.327 567.716 559.12 568.933 558.536 570.087C553.888 573.518 549.629 577.371 545.76 581.646C547.695 585.577 546.685 588.619 542.718 590.771C540.759 594.569 539.749 598.624 539.676 602.939C541.708 602.939 543.728 602.939 545.76 602.939C545.76 604.156 545.76 605.373 545.76 606.589C546.977 606.589 548.193 606.589 549.41 606.589C549.337 609.135 548.12 610.96 545.76 612.065C546.162 612.47 546.575 612.876 546.977 613.281C542.56 619.048 538.097 619.454 533.592 614.498C522.813 615.142 516.324 610.072 514.124 599.289C500.016 600.005 493.932 607.306 495.873 621.19C498.887 626.207 501.726 631.277 504.39 636.4C505.816 636.829 507.235 636.627 508.649 635.791C510.762 637.154 512.994 638.371 515.341 639.442C520.208 637.008 525.075 634.575 529.942 632.141C532.202 636.738 534.635 641.403 537.243 646.134C534.832 651.965 532.601 657.846 530.551 663.777C528.69 665.272 527.27 667.097 526.292 669.252C531.346 677.822 529.319 683.704 520.208 686.895C518.725 685.967 517.508 684.75 516.558 683.245C515.054 684.153 513.431 684.558 511.691 684.462C511.538 682.393 510.726 680.568 509.257 678.986C509.805 677.423 510.616 676.003 511.691 674.728C511.22 673.243 510.206 672.432 508.649 672.294C503.036 674.471 497.561 676.904 492.223 679.595C493.887 682.195 495.104 685.033 495.873 688.112C497.73 689.823 499.758 691.241 501.957 692.371C501.401 692.874 500.994 693.483 500.74 694.196C503.07 696.107 504.287 698.541 504.39 701.496C506.012 701.496 507.635 701.496 509.257 701.496C509.048 703.92 509.86 705.947 511.691 707.58C508.328 715.226 503.257 721.715 496.481 727.048C495.829 729.931 494.409 732.364 492.223 734.349C492.628 735.16 493.034 735.97 493.439 736.782C490.929 742.304 487.887 747.576 484.314 752.6C480.347 756.294 475.683 758.727 470.321 759.9C468.003 759.213 465.976 757.996 464.237 756.25C462.733 757.158 461.11 757.563 459.37 757.467C459.398 754.912 458.587 752.681 456.937 750.775C458.536 746.841 457.724 743.394 454.503 740.432C453.019 741.906 451.599 741.906 450.245 740.432C448.525 737.814 447.512 734.974 447.203 731.915C445.305 731.938 443.479 732.343 441.727 733.132C439.648 731.83 437.823 730.208 436.252 728.265C433.463 730.119 431.03 729.714 428.951 727.048C426.658 728.397 424.224 729.412 421.651 730.09C416.702 740.709 408.59 748.009 397.316 751.991C391.025 751.184 384.738 751.387 378.456 752.6C375.967 749.841 373.33 749.841 370.547 752.6C369.33 752.6 368.114 752.6 366.897 752.6C366.628 749.219 367.033 745.973 368.114 742.866C370.107 745.057 372.337 747.084 374.806 748.95C376.07 748.044 376.678 746.828 376.631 745.299C388.475 749.859 399.628 748.237 410.092 740.432C412.084 734.827 414.72 729.555 418.001 724.615C419.754 723.636 421.579 722.825 423.476 722.181C425.734 723.685 427.965 723.685 430.168 722.181C432.076 724.668 434.308 725.074 436.86 723.398C439.25 724.571 441.277 726.193 442.944 728.265C445.093 727.373 447.323 726.966 449.636 727.048C449.636 728.67 449.636 730.293 449.636 731.915C450.916 731.734 452.133 731.936 453.287 732.523C455.614 734.703 457.643 737.136 459.37 739.824C460.944 740.42 462.567 740.623 464.237 740.432C463.252 743.94 463.252 747.389 464.237 750.775C466.318 752.735 468.548 754.56 470.929 756.25C475.311 754.365 479.163 751.729 482.489 748.341C481.854 747.659 481.448 746.847 481.272 745.908C484.328 740.789 486.56 735.313 487.964 729.482C490.194 727.251 492.426 725.02 494.656 722.789C493.613 721.951 492.803 720.937 492.223 719.747C496.637 716.148 500.693 712.295 504.39 708.188C503.058 703.671 500.219 700.629 495.873 699.063C497.222 696.977 496.411 696.166 493.439 696.629C492.052 693.557 491.241 690.312 491.006 686.895C489.789 686.895 488.572 686.895 487.356 686.895C487.202 684.827 486.391 683.001 484.922 681.42C485.118 679.04 485.523 676.606 486.139 674.119C489.131 672.298 492.173 672.095 495.265 673.511C499.768 671.474 504.23 669.446 508.649 667.427C511.197 670.127 514.036 671.344 517.166 671.077C516.278 675.495 517.698 679.146 521.425 682.028C522.872 678.624 522.466 675.38 520.208 672.294C523.353 664.667 526.395 657.367 529.334 650.392C529.543 646.346 529.34 642.29 528.725 638.225C524.165 639.488 519.703 641.11 515.341 643.092C511.839 640.832 508.189 640.426 504.39 641.875C502.362 641.47 501.145 640.253 500.74 638.225C499.293 637.095 497.671 636.689 495.873 637.008C494.718 634.286 493.907 631.446 493.439 628.491C492.223 628.491 491.006 628.491 489.789 628.491C491.777 623.902 490.967 619.847 487.356 616.323C488.978 614.701 488.978 613.078 487.356 611.456C492.044 606.567 496.504 601.497 500.74 596.247C503.732 594.425 506.774 594.222 509.866 595.638C511.429 595.091 512.849 594.279 514.124 593.205C515.629 596.257 517.86 598.69 520.816 600.505C522.713 602.595 523.727 605.028 523.858 607.806C526.282 607.597 528.309 608.408 529.942 610.24C530.754 609.834 531.564 609.428 532.376 609.023C534.449 610.898 536.679 612.521 539.068 613.89C542.28 613.159 543.691 611.131 543.326 607.806C541.587 607.71 539.968 608.115 538.459 609.023C537.332 607.06 536.317 605.033 535.418 602.939C534.187 603.957 532.767 604.363 531.159 604.156C532.387 601.054 533.4 597.81 534.201 594.422C537.407 592.036 539.64 588.994 540.893 585.296C539.847 584.458 539.04 583.444 538.459 582.254C540.26 581.062 541.879 579.642 543.326 577.996C541.964 577.693 540.747 577.084 539.676 576.17C544.227 571.627 548.279 566.76 551.844 561.569C550.676 556.477 549.045 551.61 546.977 546.968C547.378 546.157 547.792 545.346 548.193 544.535C547.184 538.239 545.553 532.156 543.326 526.283C542.11 526.283 540.893 526.283 539.676 526.283C541.197 519.644 545.249 515.182 551.844 512.899C553.499 515.756 555.531 515.959 557.928 513.508C560.154 511.277 562.393 509.046 564.62 506.815C564.376 504.837 564.376 502.809 564.62 500.732C569.888 496.27 575.169 491.809 580.438 487.347C580.596 483.358 581.411 479.302 582.871 475.18C584.903 473.151 586.923 471.124 588.955 469.096C591.632 465.056 593.871 460.798 595.647 456.32C598.166 455.484 600.599 455.687 602.948 456.928C614.555 453.385 626.321 450.14 638.233 447.194C641.3 449.34 644.135 451.773 646.751 454.495C649.318 453.111 651.946 451.895 654.66 450.845C656.74 451.546 658.164 452.965 658.918 455.103C660.342 455.533 661.766 455.331 663.177 454.495C664.394 455.306 665.61 456.117 666.827 456.928C670.563 451.565 675.235 446.9 680.82 442.936C679.348 440.218 680.163 438.189 683.253 436.852C687.865 433.895 692.732 432.882 697.854 433.81C699.071 432.999 700.288 432.188 701.505 431.377C702.855 432.728 704.474 433.54 706.372 433.81C710.825 432.72 715.278 432.517 719.756 433.202C725.219 430.672 730.5 427.833 735.574 424.684C737.168 421.554 739.188 418.715 741.658 416.167C748.678 411.863 755.164 406.996 761.126 401.566C764.448 401.835 767.696 401.633 770.86 400.958C773.172 401.645 775.204 402.862 776.944 404.608C777.905 404.084 778.927 403.677 779.986 403.391C782.103 404.754 784.329 405.971 786.678 407.041C790.06 406.51 793.309 406.51 796.412 407.041C797.604 407.622 798.614 408.432 799.454 409.475C802.118 406.219 804.345 402.772 806.146 399.133C808.555 398.3 810.587 398.909 812.23 400.958C813.446 400.146 814.663 399.336 815.88 398.524C817.948 400.399 820.187 402.022 822.572 403.391C824.555 402.931 826.38 402.121 828.047 400.958C826.758 400.464 825.139 400.464 823.18 400.958C823.582 397.783 825.407 395.755 828.656 394.874C829.057 395.279 829.471 395.685 829.872 396.091C835.19 390.921 839.448 385.04 842.648 378.448C844.68 377.434 846.7 376.419 848.732 375.406C851.725 377.215 854.56 379.243 857.25 381.49C859.16 380.505 861.192 380.099 863.333 380.273C862.567 377.123 862.567 374.081 863.333 371.147C861.764 365.574 858.113 362.533 852.382 362.022C852.407 360.123 852.808 358.298 853.599 356.546C852.784 355.329 851.981 354.113 851.166 352.896C853.903 347.646 854.706 342.17 853.599 336.47C850.314 335.916 847.065 335.104 843.865 334.036C841.918 334.57 840.093 335.382 838.39 336.47C836.905 335.53 835.689 334.314 834.74 332.819C833.511 333.838 832.087 334.243 830.481 334.036C830.481 332.819 830.481 331.603 830.481 330.386C828.863 330.386 827.232 330.386 825.614 330.386C825.614 328.764 825.614 327.141 825.614 325.519C816.245 328.113 807.119 331.358 798.237 335.253C794.793 334.045 791.752 332.22 789.111 329.778C785.729 328.977 782.48 327.963 779.377 326.736C778.842 326.815 778.44 326.613 778.16 326.127C779.146 324.773 779.949 323.354 780.594 321.869C782.103 320.759 783.721 320.556 785.461 321.26C787.992 323.387 790.425 325.619 792.761 327.952C795.621 326.476 797.847 327.287 799.454 330.386C804.868 328.184 810.344 326.155 815.88 324.302C818.532 318.109 822.791 316.892 828.656 320.652C829.252 322.225 829.459 323.848 829.264 325.519C833.413 326.3 836.869 328.328 839.607 331.603C845.824 331.962 852.115 331.962 858.466 331.603C860.802 335.432 861.618 339.487 860.9 343.77C859.148 347.441 857.931 351.295 857.25 355.329C859.805 357.903 862.238 360.538 864.55 363.238C865.548 364.316 866.765 364.722 868.2 364.455C868.273 368.336 868.675 372.19 869.417 376.014C869.6 378.489 868.784 380.517 866.984 382.098C863.078 382.835 859.427 384.255 856.033 386.357C853.502 383.332 850.265 382.115 846.299 382.706C846.481 383.986 846.274 385.203 845.69 386.357C842.223 389.538 839.181 392.987 836.565 396.699C837.124 397.203 837.526 397.811 837.781 398.524C832.452 402.031 826.977 405.275 821.355 408.258C818.995 407.116 816.963 405.493 815.271 403.391C813.617 404.462 811.792 404.868 809.796 404.608C809.82 406.607 809.005 408.229 807.362 409.475C807.764 410.287 808.178 411.097 808.579 411.908C806.754 413.432 804.722 414.649 802.495 415.559C800.147 414.488 797.92 413.271 795.803 411.908C792.445 412.292 789.196 412.292 786.069 411.908C784.329 411.385 782.906 410.371 781.811 408.867C777.649 408.744 773.792 407.73 770.251 405.825C767.684 407.664 765.044 408.071 762.343 407.041C757.05 408.857 753.399 412.304 751.392 417.384C742.23 425.313 732.094 431.802 720.973 436.852C717.87 437.655 714.828 437.452 711.847 436.244C708.185 438.734 704.328 439.141 700.288 437.46C697.064 438.2 693.827 438.809 690.554 439.285C686.003 443.686 681.343 447.945 676.561 452.061C676.878 453.827 676.683 455.449 675.953 456.928C667.91 463.566 660.403 463.161 653.443 455.712C650.158 457.463 646.702 458.679 643.1 459.362C643.563 455.758 642.346 454.541 639.45 455.712C638.367 454.708 637.966 453.491 638.233 452.061C624.594 454.412 611.209 457.657 598.08 461.795C598.275 463.466 598.068 465.089 597.472 466.662C591.133 472.371 587.884 479.267 587.738 487.347C582.664 490.383 579.014 494.44 576.787 499.515C572.383 503.097 568.939 507.356 566.445 512.291C562.393 514.724 558.329 517.158 554.277 519.591C552.72 520.424 551.296 520.22 550.019 518.983C549.143 519.645 548.534 520.456 548.193 521.416Z" fill="black"/>
<path fill-rule="evenodd" clip-rule="evenodd" d="M340.128 729.483C339.403 731.229 339.403 733.258 340.128 735.567C343.264 735.512 345.697 736.729 347.429 739.217C347.429 740.434 347.429 741.651 347.429 742.868C347.356 743.528 346.95 743.934 346.212 744.084C341.341 741.771 336.879 738.933 332.828 735.567C335.143 728.644 334.333 721.952 330.394 715.491C331.032 711.531 331.437 707.679 331.611 703.932C328.744 697.473 326.107 690.984 323.702 684.463C320.052 686.887 316.198 686.887 312.143 684.463C310.251 684.734 308.628 685.545 307.276 686.897C305.639 685.866 304.422 684.448 303.625 682.638C300.549 682.013 297.913 680.594 295.717 678.38C297.475 674.473 298.083 670.417 297.542 666.212C292.523 659.853 289.481 652.553 288.416 644.311C287.186 643.292 285.766 642.887 284.157 643.094C283.976 641.814 284.178 640.597 284.766 639.444C289.864 635.265 294.731 630.805 299.367 626.059C300.918 622.758 301.933 619.31 302.409 615.717C301.261 612.205 301.261 608.757 302.409 605.374C300.646 600.868 298.212 596.811 295.108 593.207C293.661 592.076 292.039 591.671 290.241 591.99C289.899 588.993 288.682 586.357 286.591 584.081C282.829 582.717 279.178 581.298 275.64 579.823C275.64 577.794 275.64 575.767 275.64 573.739C270.571 570.955 265.298 568.725 259.822 567.047C260.294 568.902 260.294 570.93 259.822 573.13C254.144 575.969 248.466 578.809 242.788 581.648C240.826 582.524 239.001 582.322 237.312 581.039C234.32 582.925 233.509 585.359 234.879 588.34C231.837 590.57 228.795 592.802 225.753 595.032C226.388 595.715 226.793 596.526 226.97 597.465C222.332 602.104 217.668 606.768 212.977 611.458C212.432 616.426 209.593 619.266 204.46 619.975C202.877 619.806 201.863 618.996 201.418 617.542C205.314 614.662 208.558 611.215 211.152 607.2C209.402 606.933 207.78 606.325 206.285 605.374C210.798 600.662 215.868 596.606 221.494 593.207C224.942 588.137 228.39 583.068 231.837 577.997C234.991 575.008 238.033 574.805 240.963 577.389C246.867 572.698 252.343 567.628 257.389 562.18C259.417 561.166 261.444 560.151 263.473 559.138C267.208 561.486 270.453 564.325 273.207 567.655C275.086 568.813 277.115 569.219 279.29 568.872C278.944 571.047 279.349 573.076 280.507 574.956C282.201 576.3 283.621 577.923 284.766 579.823C287.461 578.216 289.286 579.028 290.241 582.256C292.121 583.414 294.149 583.82 296.325 583.473C296.73 585.906 297.136 588.34 297.542 590.773C299.34 590.455 300.962 590.86 302.409 591.99C303.941 595.036 305.563 598.078 307.276 601.116C305.768 603.808 306.173 606.242 308.492 608.416C306.871 610.445 306.871 612.472 308.492 614.5C308.002 616.292 307.191 617.914 306.059 619.367C307.775 619.815 308.991 620.828 309.709 622.409C304.04 627.872 298.16 633.144 292.066 638.227C291.47 639.8 291.267 641.423 291.458 643.094C292.675 643.094 293.891 643.094 295.108 643.094C294.839 650.299 297.273 656.383 302.409 661.345C303.372 663.736 304.184 666.17 304.842 668.646C302.809 671.091 301.997 673.93 302.409 677.163C304.031 677.163 305.654 677.163 307.276 677.163C307.276 678.38 307.276 679.596 307.276 680.813C309.174 680.79 310.999 680.385 312.751 679.596C314.779 680.408 316.807 681.218 318.835 682.03C322.149 680.586 325.596 679.775 329.177 679.596C329.596 683.322 330.407 686.972 331.611 690.547C337.201 696.393 338.823 703.288 336.478 711.232C338.034 717.272 339.251 723.356 340.128 729.483Z" fill="black"/>
<path fill-rule="evenodd" clip-rule="evenodd" d="M201.418 617.542C195.143 621.994 189.464 627.065 184.383 632.752C180.408 635.082 178.786 633.662 179.516 628.493C178.299 628.493 177.083 628.493 175.866 628.493C175.889 626.595 176.294 624.77 177.083 623.018C174.638 620.799 173.015 618.163 172.216 615.109C170.936 615.29 169.719 615.088 168.565 614.5C164.875 610.113 160.413 608.693 155.181 610.242C153.547 600.674 149.897 591.955 144.23 584.081C141.304 583.901 138.464 584.51 135.713 585.907C132.569 583.895 129.324 583.49 125.979 584.69C124.07 583.213 123.056 581.184 122.937 578.606C119.685 582.149 117.048 581.744 115.028 577.389C113.871 578.394 112.654 578.596 111.378 577.998C108.201 574.592 105.361 570.942 102.86 567.047C100.724 566.877 98.6967 567.485 96.7767 568.872C95.083 567.528 93.663 565.904 92.518 564.005C91.2879 565.023 89.8679 565.429 88.2594 565.222C88.2594 564.005 88.2594 562.788 88.2594 561.572C85.703 558.931 82.0527 556.498 77.3086 554.271C75.2425 555.708 73.2142 555.708 71.2248 554.271C72.3479 551.322 74.173 548.888 76.7002 546.97C77.3025 544.57 77.5057 542.136 77.3086 539.67C76.0918 539.67 74.8751 539.67 73.6583 539.67C74.4273 536.004 74.8337 532.354 74.8751 528.719C74.9323 526.894 74.1219 525.677 72.4416 525.069C70.4522 526.079 68.4238 526.282 66.3578 525.677C62.3376 530.723 57.4706 534.575 51.7567 537.236C48.7671 534.198 45.5233 532.576 42.0227 532.369C42.4534 528.135 44.0753 524.485 46.8897 521.419C44.9842 522.101 43.3623 521.29 42.0227 518.985C46.2022 516.39 50.4609 513.956 54.7986 511.685C58.5024 514.961 60.7327 513.948 61.4908 508.643C60.7595 506.69 59.5427 505.068 57.8405 503.776C51.6204 505.247 45.5367 507.478 39.5891 510.468C35.0275 507.702 30.5669 507.702 26.2048 510.468C24.8238 507.782 24.0135 504.944 23.7713 501.951C21.973 502.269 20.351 501.864 18.9043 500.734C21.5702 494.8 24.8141 489.121 28.6383 483.699C33.0941 483.674 37.556 483.267 42.0227 482.482C42.0227 483.699 42.0227 484.916 42.0227 486.133C37.9636 487.475 33.9069 488.895 29.8551 490.391C31.2763 492.668 30.6679 494.493 28.03 495.867C27.2184 497.489 27.2184 499.112 28.03 500.734C28.5337 500.178 29.1421 499.771 29.8551 499.517C31.5002 500.756 32.7169 502.378 33.5054 504.384C35.6894 505.315 37.9198 506.126 40.1975 506.818C45.6875 503.667 51.3649 500.827 57.2321 498.3C59.5975 499.443 61.6258 501.066 63.3159 503.167C64.1895 502.01 65.2031 501.808 66.3578 502.559C66.2531 506.309 66.4563 510.162 66.9662 514.118C62.5116 516.446 57.8478 518.271 52.9735 519.593C50.7042 522.742 49.6907 526.191 49.9316 529.936C50.95 531.77 52.37 532.378 54.1902 531.761C55.6856 529.901 57.5107 528.481 59.6656 527.502C62.7136 519.629 68.189 517.398 76.0918 520.81C76.7428 523.376 77.9595 523.985 79.7421 522.635C80.9589 523.041 81.7704 523.852 82.1756 525.069C81.0404 529.849 80.6352 534.716 80.9589 539.67C82.1756 539.67 83.3924 539.67 84.6091 539.67C83.6674 543.175 82.0454 546.42 79.7421 549.404C81.3433 552.851 83.7769 553.865 87.0426 552.446C88.6646 553.663 88.6646 554.879 87.0426 556.096C88.1961 556.684 89.4129 556.886 90.6929 556.704C90.6929 557.921 90.6929 559.138 90.6929 560.355C93.7944 560.283 96.2279 561.5 97.9934 564.005C99.8904 562.853 101.919 562.042 104.077 561.572C105.97 562.845 107.999 563.657 110.161 564.005C110.913 567.531 112.333 570.776 114.42 573.739C116.957 572.343 118.782 573.155 119.895 576.173C121.931 574.243 124.364 573.431 127.196 573.739C127.196 575.361 127.196 576.984 127.196 578.606C130.75 578.175 133.588 579.392 135.713 582.256C138.417 580.701 141.256 579.485 144.23 578.606C146.258 579.011 147.475 580.228 147.88 582.256C149.327 583.387 150.949 583.792 152.747 583.473C155.815 590.297 158.654 597.192 161.265 604.158C165.976 605.91 170.438 607.937 174.649 610.242C174.649 611.458 174.649 612.675 174.649 613.892C176.648 613.868 178.27 614.679 179.516 616.325C181.02 615.418 182.643 615.013 184.383 615.109C184.278 617.758 183.467 620.191 181.95 622.409C182.677 623.985 183.286 625.607 183.775 627.276C185.6 625.451 187.425 623.626 189.25 621.801C187.628 620.584 187.628 619.367 189.25 618.151C192.793 616.48 196.242 614.655 199.593 612.675C201.038 613.969 201.646 615.592 201.418 617.542Z" fill="black"/>
<path fill-rule="evenodd" clip-rule="evenodd" d="M376.63 736.786C373.764 739.592 373.764 742.43 376.63 745.303C376.678 746.831 376.069 748.048 374.805 748.953C372.336 747.088 370.106 745.061 368.113 742.87C372.426 735.415 370.398 732.981 362.029 735.569C361.378 733.201 359.756 731.985 357.162 731.919C358.374 730.501 359.996 729.69 362.029 729.485C364.685 730.984 367.321 730.984 369.938 729.485C371.452 732.011 373.682 733.228 376.63 733.136C376.63 734.352 376.63 735.569 376.63 736.786Z" fill="black"/>
<path fill-rule="evenodd" clip-rule="evenodd" d="M354.728 739.216C355.559 741.256 357.182 742.067 359.595 741.65C358.269 744.265 356.037 745.887 352.903 746.517C351.537 744.57 349.712 743.353 347.428 742.867C347.428 741.65 347.428 740.433 347.428 739.216C349.675 737.911 352.109 737.911 354.728 739.216Z" fill="black"/>
<path d="M308.964 418.769H317.624C318.04 422.311 321.73 424.632 326.491 424.632C331.283 424.632 334.556 422.34 334.556 419.186C334.556 416.389 332.503 414.841 327.325 413.681L321.73 412.461C313.815 410.765 309.916 406.747 309.916 400.468C309.916 392.553 316.761 387.315 326.343 387.315C336.341 387.315 342.62 392.463 342.769 400.23H334.348C334.05 396.6 330.866 394.398 326.372 394.398C321.939 394.398 318.963 396.51 318.963 399.695C318.963 402.343 321.046 403.831 325.986 404.962L331.193 406.063C339.793 407.908 343.543 411.598 343.543 418.145C343.543 426.477 336.788 431.744 326.134 431.744C315.808 431.744 309.232 426.834 308.964 418.769ZM348.542 431V388.059H357.083V404.783H357.261C358.957 400.766 362.439 398.504 367.29 398.504C374.372 398.504 378.419 403.087 378.419 410.467V431H369.73V412.312C369.73 408.205 367.706 405.706 363.749 405.706C359.642 405.706 357.232 408.592 357.232 412.788V431H348.542ZM384.133 431V399.099H392.822V431H384.133ZM388.477 395.588C385.859 395.588 383.835 393.594 383.835 391.095C383.835 388.565 385.859 386.601 388.477 386.601C391.096 386.601 393.12 388.565 393.12 391.095C393.12 393.594 391.096 395.588 388.477 395.588ZM398.625 431V399.099H407.017V404.872H407.195C408.534 401.034 411.957 398.504 416.301 398.504C420.914 398.504 424.128 400.885 425.199 405.051H425.377C426.806 401.034 430.615 398.504 435.287 398.504C441.536 398.504 445.732 402.789 445.732 409.217V431H437.043V411.389C437.043 407.699 435.198 405.676 431.835 405.676C428.532 405.676 426.359 408.086 426.359 411.628V431H417.997V411.122C417.997 407.699 416.063 405.676 412.849 405.676C409.546 405.676 407.314 408.176 407.314 411.747V431H398.625ZM451.445 431V388.059H460.135V431H451.445ZM478.317 425.227C482.096 425.227 485.221 422.757 485.221 419.305V416.984L478.495 417.401C475.252 417.639 473.407 419.097 473.407 421.358C473.407 423.739 475.371 425.227 478.317 425.227ZM475.46 431.506C469.389 431.506 464.777 427.578 464.777 421.835C464.777 416.032 469.241 412.669 477.186 412.193L485.221 411.717V409.604C485.221 406.628 483.138 404.902 479.864 404.902C476.621 404.902 474.567 406.509 474.151 408.86H466.205C466.533 402.67 471.8 398.415 480.251 398.415C488.435 398.415 493.761 402.641 493.761 409.068V431H485.37V426.12H485.191C483.405 429.512 479.448 431.506 475.46 431.506Z" fill="black"/>

<path id="Kali Bari Temple" d="M423.221 328.546V309.572C421.424 309.123 419.938 308.172 418.763 306.721C417.588 305.269 417 303.576 417 301.641H421.147C421.147 302.747 421.554 303.706 422.366 304.519C423.179 305.332 424.138 305.737 425.243 305.736H427.368V301.278C425.571 300.828 424.085 299.878 422.91 298.427C421.735 296.975 421.147 295.282 421.147 293.346H425.294C425.294 294.452 425.701 295.411 426.514 296.222C427.327 297.034 428.285 297.44 429.39 297.442H430.478L439.81 285L449.141 297.442H450.229C451.335 297.442 452.295 297.036 453.108 296.224C453.92 295.413 454.326 294.454 454.325 293.346H458.472C458.472 295.282 457.884 296.975 456.709 298.427C455.534 299.878 454.048 300.828 452.251 301.278V305.736H454.377C455.483 305.736 456.442 305.33 457.255 304.519C458.068 303.707 458.473 302.748 458.472 301.641H462.619C462.619 303.576 462.032 305.269 460.857 306.721C459.682 308.172 458.196 309.123 456.398 309.572V328.546H441.883V320.251C441.883 319.664 441.684 319.172 441.286 318.775C440.888 318.378 440.396 318.179 439.81 318.178C439.223 318.176 438.731 318.375 438.333 318.775C437.935 319.174 437.736 319.666 437.736 320.251V328.546H423.221ZM435.662 297.442H443.957L439.81 291.895L435.662 297.442ZM431.515 305.736H448.104V301.589H431.515V305.736ZM427.368 324.398H433.589V320.251C433.589 318.523 434.194 317.054 435.403 315.845C436.613 314.635 438.082 314.03 439.81 314.03C441.538 314.03 443.006 314.635 444.216 315.845C445.426 317.054 446.03 318.523 446.03 320.251V324.398H452.251V309.883H427.368V324.398Z" fill="url(#paint0_linear_112_1590)"/>
<path id="Kali Bari Temple" d="M400.522 308.261C400.522 309.312 400.104 310.319 399.362 311.061C398.619 311.804 397.612 312.221 396.562 312.221C395.511 312.221 394.504 311.804 393.761 311.061C393.019 310.319 392.602 309.312 392.602 308.261C392.602 307.211 393.019 306.204 393.761 305.461C394.504 304.718 395.511 304.301 396.562 304.301C397.612 304.301 398.619 304.718 399.362 305.461C400.104 306.204 400.522 307.211 400.522 308.261Z" fill="black"/>
<path id="Kali Bari Temple" d="M383.889 308.26C383.889 308.26 388.641 299.548 396.561 299.548C404.481 299.548 409.233 308.26 409.233 308.26C409.233 308.26 404.481 316.972 396.561 316.972C388.641 316.972 383.889 308.26 383.889 308.26ZM396.561 313.804C398.031 313.804 399.441 313.22 400.481 312.18C401.521 311.14 402.105 309.73 402.105 308.26C402.105 306.789 401.521 305.379 400.481 304.34C399.441 303.3 398.031 302.716 396.561 302.716C395.09 302.716 393.68 303.3 392.64 304.34C391.601 305.379 391.017 306.789 391.017 308.26C391.017 309.73 391.601 311.14 392.64 312.18C393.68 313.22 395.09 313.804 396.561 313.804Z" fill="black"/>
<path id="Kali Bari Temple" d="M370.571 355H368.562V338.897H370.571V346.753H370.683L377.791 338.897H380.324L373.707 346.028L380.916 355H378.349L372.312 347.456L370.571 349.376V355ZM385.815 353.549C387.645 353.549 389.051 352.266 389.051 350.592V349.644L385.948 349.833C384.386 349.934 383.493 350.626 383.493 351.719C383.493 352.824 384.42 353.549 385.815 353.549ZM385.379 355.201C383.069 355.201 381.518 353.806 381.518 351.719C381.518 349.733 383.047 348.483 385.725 348.327L389.051 348.137V347.166C389.051 345.749 388.113 344.901 386.506 344.901C385.011 344.901 384.074 345.604 383.828 346.742H381.953C382.087 344.733 383.806 343.194 386.551 343.194C389.274 343.194 390.992 344.667 390.992 346.976V355H389.151V353.002H389.106C388.415 354.33 386.942 355.201 385.379 355.201ZM393.559 355V338.897H395.501V355H393.559ZM398.224 355V343.394H400.165V355H398.224ZM399.194 341.442C398.536 341.442 397.989 340.895 397.989 340.236C397.989 339.567 398.536 339.031 399.194 339.031C399.864 339.031 400.411 339.567 400.411 340.236C400.411 340.895 399.864 341.442 399.194 341.442ZM413.858 355H407.776V338.897H413.88C416.636 338.897 418.5 340.504 418.5 342.915C418.5 344.588 417.272 346.151 415.721 346.43V346.519C417.909 346.798 419.315 348.338 419.315 350.481C419.315 353.315 417.284 355 413.858 355ZM409.785 340.672V345.838H412.798C415.175 345.838 416.469 344.89 416.469 343.149C416.469 341.553 415.375 340.672 413.422 340.672H409.785ZM409.785 353.226H413.556C415.978 353.226 417.25 352.244 417.25 350.38C417.25 348.516 415.933 347.568 413.367 347.568H409.785V353.226ZM425.117 353.549C426.948 353.549 428.354 352.266 428.354 350.592V349.644L425.251 349.833C423.689 349.934 422.796 350.626 422.796 351.719C422.796 352.824 423.722 353.549 425.117 353.549ZM424.682 355.201C422.372 355.201 420.821 353.806 420.821 351.719C420.821 349.733 422.35 348.483 425.028 348.327L428.354 348.137V347.166C428.354 345.749 427.416 344.901 425.809 344.901C424.314 344.901 423.377 345.604 423.131 346.742H421.256C421.39 344.733 423.109 343.194 425.854 343.194C428.577 343.194 430.295 344.667 430.295 346.976V355H428.454V353.002H428.409C427.718 354.33 426.244 355.201 424.682 355.201ZM432.761 355V343.394H434.592V345.291H434.636C435.016 344.008 436.087 343.194 437.448 343.194C437.783 343.194 438.073 343.249 438.23 343.272V345.158C438.073 345.102 437.66 345.046 437.192 345.046C435.685 345.046 434.703 346.128 434.703 347.769V355H432.761ZM439.915 355V343.394H441.856V355H439.915ZM440.885 341.442C440.227 341.442 439.68 340.895 439.68 340.236C439.68 339.567 440.227 339.031 440.885 339.031C441.555 339.031 442.102 339.567 442.102 340.236C442.102 340.895 441.555 341.442 440.885 341.442ZM455.549 355H453.54V340.705H448.463V338.897H460.626V340.705H455.549V355ZM464.086 344.879C462.267 344.879 460.994 346.273 460.872 348.204H467.177C467.132 346.262 465.916 344.879 464.086 344.879ZM467.132 351.675H469.04C468.705 353.706 466.741 355.201 464.208 355.201C460.883 355.201 458.863 352.891 458.863 349.242C458.863 345.637 460.916 343.194 464.119 343.194C467.255 343.194 469.185 345.47 469.185 348.985V349.722H460.86V349.833C460.86 352.054 462.166 353.516 464.253 353.516C465.726 353.516 466.808 352.768 467.132 351.675ZM471.149 355V343.394H472.979V345.247H473.024C473.571 344.019 474.754 343.194 476.316 343.194C477.901 343.194 479.072 343.997 479.575 345.403H479.619C480.266 344.019 481.628 343.194 483.257 343.194C485.556 343.194 487.04 344.689 487.04 346.988V355H485.098V347.434C485.098 345.849 484.217 344.912 482.688 344.912C481.148 344.912 480.066 346.05 480.066 347.624V355H478.124V347.222C478.124 345.827 477.186 344.912 475.747 344.912C474.207 344.912 473.091 346.117 473.091 347.724V355H471.149ZM495.153 343.194C498.11 343.194 500.119 345.559 500.119 349.197C500.119 352.835 498.121 355.201 495.198 355.201C493.535 355.201 492.196 354.386 491.504 353.114H491.459V358.872H489.517V343.394H491.359V345.358H491.403C492.118 344.053 493.468 343.194 495.153 343.194ZM494.773 353.494C496.838 353.494 498.132 351.831 498.132 349.197C498.132 346.575 496.838 344.901 494.773 344.901C492.787 344.901 491.448 346.619 491.448 349.197C491.448 351.786 492.787 353.494 494.773 353.494ZM502.183 355V338.897H504.125V355H502.183ZM511.401 344.879C509.582 344.879 508.31 346.273 508.187 348.204H514.492C514.447 346.262 513.231 344.879 511.401 344.879ZM514.447 351.675H516.355C516.021 353.706 514.057 355.201 511.523 355.201C508.198 355.201 506.178 352.891 506.178 349.242C506.178 345.637 508.232 343.194 511.434 343.194C514.57 343.194 516.501 345.47 516.501 348.985V349.722H508.176V349.833C508.176 352.054 509.481 353.516 511.568 353.516C513.041 353.516 514.124 352.768 514.447 351.675Z" fill="black"/>

<path id="Shiv Mandir" d="M130.221 492.546V473.572C128.424 473.123 126.938 472.172 125.763 470.721C124.588 469.269 124 467.576 124 465.641H128.147C128.147 466.747 128.554 467.706 129.366 468.519C130.179 469.332 131.138 469.737 132.243 469.736H134.368V465.278C132.571 464.828 131.085 463.878 129.91 462.427C128.735 460.975 128.147 459.282 128.147 457.346H132.294C132.294 458.452 132.701 459.411 133.514 460.222C134.327 461.034 135.285 461.44 136.39 461.442H137.478L146.81 449L156.141 461.442H157.229C158.335 461.442 159.295 461.036 160.108 460.224C160.92 459.413 161.326 458.454 161.325 457.346H165.472C165.472 459.282 164.884 460.975 163.709 462.427C162.534 463.878 161.048 464.828 159.251 465.278V469.736H161.377C162.483 469.736 163.442 469.33 164.255 468.519C165.068 467.707 165.473 466.748 165.472 465.641H169.619C169.619 467.576 169.032 469.269 167.857 470.721C166.682 472.172 165.196 473.123 163.398 473.572V492.546H148.883V484.251C148.883 483.664 148.684 483.172 148.286 482.775C147.888 482.378 147.396 482.179 146.81 482.178C146.223 482.176 145.731 482.375 145.333 482.775C144.935 483.174 144.736 483.666 144.736 484.251V492.546H130.221ZM142.662 461.442H150.957L146.81 455.895L142.662 461.442ZM138.515 469.736H155.104V465.589H138.515V469.736ZM134.368 488.398H140.589V484.251C140.589 482.523 141.194 481.054 142.403 479.845C143.613 478.635 145.082 478.03 146.81 478.03C148.538 478.03 150.006 478.635 151.216 479.845C152.426 481.054 153.03 482.523 153.03 484.251V488.398H159.251V473.883H134.368V488.398Z" fill="url(#paint1_linear_112_1590)"/>
<path id="Shiv Mandir" d="M107.522 472.261C107.522 473.312 107.104 474.319 106.362 475.061C105.619 475.804 104.612 476.221 103.562 476.221C102.511 476.221 101.504 475.804 100.761 475.061C100.019 474.319 99.6016 473.312 99.6016 472.261C99.6016 471.211 100.019 470.204 100.761 469.461C101.504 468.718 102.511 468.301 103.562 468.301C104.612 468.301 105.619 468.718 106.362 469.461C107.104 470.204 107.522 471.211 107.522 472.261Z" fill="black"/>
<path id="Shiv Mandir" d="M90.8887 472.26C90.8887 472.26 95.6407 463.548 103.561 463.548C111.481 463.548 116.233 472.26 116.233 472.26C116.233 472.26 111.481 480.972 103.561 480.972C95.6407 480.972 90.8887 472.26 90.8887 472.26ZM103.561 477.804C105.031 477.804 106.441 477.22 107.481 476.18C108.521 475.14 109.105 473.73 109.105 472.26C109.105 470.789 108.521 469.379 107.481 468.34C106.441 467.3 105.031 466.716 103.561 466.716C102.09 466.716 100.68 467.3 99.6405 468.34C98.6008 469.379 98.0167 470.789 98.0167 472.26C98.0167 473.73 98.6008 475.14 99.6405 476.18C100.68 477.22 102.09 477.804 103.561 477.804Z" fill="black"/>
<path id="Shiv Mandir" d="M67.7923 436.57H69.8121C70.0018 438.311 71.6534 439.46 73.9522 439.46C76.1283 439.46 77.7129 438.311 77.7129 436.726C77.7129 435.365 76.7643 434.528 74.5995 433.97L72.535 433.434C69.5666 432.675 68.2498 431.37 68.2498 429.182C68.2498 426.504 70.5933 424.629 73.9411 424.629C77.1438 424.629 79.4649 426.526 79.5542 429.227H77.5455C77.3669 427.497 75.972 426.437 73.8741 426.437C71.7873 426.437 70.3366 427.52 70.3366 429.093C70.3366 430.309 71.2294 431.035 73.4166 431.604L75.1016 432.05C78.4382 432.887 79.7885 434.171 79.7885 436.481C79.7885 439.427 77.4674 441.268 73.7625 441.268C70.3478 441.268 67.982 439.415 67.7923 436.57ZM81.9311 441V424.897H83.8728V431.247H83.9174C84.5647 429.952 85.8368 429.194 87.6 429.194C90.1443 429.194 91.6843 430.912 91.6843 433.501V441H89.7426V433.858C89.7426 432.017 88.8163 430.912 86.9974 430.912C85.0668 430.912 83.8728 432.229 83.8728 434.237V441H81.9311ZM94.2509 441V429.394H96.1926V441H94.2509ZM95.2218 427.442C94.5634 427.442 94.0166 426.895 94.0166 426.236C94.0166 425.567 94.5634 425.031 95.2218 425.031C95.8913 425.031 96.4381 425.567 96.4381 426.236C96.4381 426.895 95.8913 427.442 95.2218 427.442ZM108.334 429.394L104.071 441H102.085L97.8107 429.394H99.8528L103.056 438.936H103.1L106.314 429.394H108.334ZM130.719 441H128.845V428.591H128.766L123.633 440.888H121.937L116.804 428.591H116.726V441H114.851V424.897H117.183L122.74 438.333H122.83L128.387 424.897H130.719V441ZM137.035 439.549C138.866 439.549 140.272 438.266 140.272 436.592V435.644L137.169 435.833C135.607 435.934 134.714 436.626 134.714 437.719C134.714 438.824 135.641 439.549 137.035 439.549ZM136.6 441.201C134.29 441.201 132.739 439.806 132.739 437.719C132.739 435.733 134.268 434.483 136.946 434.327L140.272 434.137V433.166C140.272 431.749 139.334 430.901 137.727 430.901C136.232 430.901 135.295 431.604 135.049 432.742H133.174C133.308 430.733 135.027 429.194 137.772 429.194C140.495 429.194 142.213 430.667 142.213 432.976V441H140.372V439.002H140.327C139.636 440.33 138.163 441.201 136.6 441.201ZM144.68 441V429.394H146.51V431.247H146.554C147.202 429.997 148.44 429.194 150.237 429.194C152.781 429.194 154.254 430.834 154.254 433.468V441H152.312V433.813C152.312 431.939 151.431 430.912 149.645 430.912C147.815 430.912 146.621 432.207 146.621 434.171V441H144.68ZM161.128 441.201C158.171 441.201 156.162 438.835 156.162 435.197C156.162 431.559 158.16 429.194 161.084 429.194C162.746 429.194 164.086 430.008 164.777 431.28H164.822V424.897H166.764V441H164.911V439.036H164.878C164.13 440.375 162.802 441.201 161.128 441.201ZM161.497 430.901C159.443 430.901 158.149 432.575 158.149 435.197C158.149 437.831 159.443 439.494 161.497 439.494C163.494 439.494 164.833 437.797 164.833 435.197C164.833 432.608 163.494 430.901 161.497 430.901ZM169.487 441V429.394H171.428V441H169.487ZM170.457 427.442C169.799 427.442 169.252 426.895 169.252 426.236C169.252 425.567 169.799 425.031 170.457 425.031C171.127 425.031 171.674 425.567 171.674 426.236C171.674 426.895 171.127 427.442 170.457 427.442ZM174.051 441V429.394H175.881V431.291H175.925C176.305 430.008 177.376 429.194 178.738 429.194C179.072 429.194 179.363 429.249 179.519 429.272V431.158C179.363 431.102 178.95 431.046 178.481 431.046C176.974 431.046 175.992 432.128 175.992 433.769V441H174.051Z" fill="black"/>

<path id="Bhim Kali Temple" d="M399.221 716.546V697.572C397.424 697.123 395.938 696.172 394.763 694.721C393.588 693.269 393 691.576 393 689.641H397.147C397.147 690.747 397.554 691.706 398.366 692.519C399.179 693.332 400.138 693.737 401.243 693.736H403.368V689.278C401.571 688.828 400.085 687.878 398.91 686.427C397.735 684.975 397.147 683.282 397.147 681.346H401.294C401.294 682.452 401.701 683.411 402.514 684.222C403.327 685.034 404.285 685.44 405.39 685.442H406.478L415.81 673L425.141 685.442H426.229C427.335 685.442 428.295 685.036 429.108 684.224C429.92 683.413 430.326 682.454 430.325 681.346H434.472C434.472 683.282 433.884 684.975 432.709 686.427C431.534 687.878 430.048 688.828 428.251 689.278V693.736H430.377C431.483 693.736 432.442 693.33 433.255 692.519C434.068 691.707 434.473 690.748 434.472 689.641H438.619C438.619 691.576 438.032 693.269 436.857 694.721C435.682 696.172 434.196 697.123 432.398 697.572V716.546H417.883V708.251C417.883 707.664 417.684 707.172 417.286 706.775C416.888 706.378 416.396 706.179 415.81 706.178C415.223 706.176 414.731 706.375 414.333 706.775C413.935 707.174 413.736 707.666 413.736 708.251V716.546H399.221ZM411.662 685.442H419.957L415.81 679.895L411.662 685.442ZM407.515 693.736H424.104V689.589H407.515V693.736ZM403.368 712.398H409.589V708.251C409.589 706.523 410.194 705.054 411.403 703.845C412.613 702.635 414.082 702.03 415.81 702.03C417.538 702.03 419.006 702.635 420.216 703.845C421.426 705.054 422.03 706.523 422.03 708.251V712.398H428.251V697.883H403.368V712.398Z" fill="url(#paint2_linear_112_1590)"/>
<path id="Bhim Kali Temple" d="M376.522 696.261C376.522 697.312 376.104 698.319 375.362 699.061C374.619 699.804 373.612 700.221 372.562 700.221C371.511 700.221 370.504 699.804 369.761 699.061C369.019 698.319 368.602 697.312 368.602 696.261C368.602 695.211 369.019 694.204 369.761 693.461C370.504 692.718 371.511 692.301 372.562 692.301C373.612 692.301 374.619 692.718 375.362 693.461C376.104 694.204 376.522 695.211 376.522 696.261Z" fill="black"/>
<path id="Bhim Kali Temple" d="M359.889 696.26C359.889 696.26 364.641 687.548 372.561 687.548C380.481 687.548 385.233 696.26 385.233 696.26C385.233 696.26 380.481 704.972 372.561 704.972C364.641 704.972 359.889 696.26 359.889 696.26ZM372.561 701.804C374.031 701.804 375.441 701.22 376.481 700.18C377.521 699.14 378.105 697.73 378.105 696.26C378.105 694.789 377.521 693.379 376.481 692.34C375.441 691.3 374.031 690.716 372.561 690.716C371.09 690.716 369.68 691.3 368.64 692.34C367.601 693.379 367.017 694.789 367.017 696.26C367.017 697.73 367.601 699.14 368.64 700.18C369.68 701.22 371.09 701.804 372.561 701.804Z" fill="black"/>
<path id="Bhim Kali Temple" d="M338.644 666H332.562V649.897H338.666C341.423 649.897 343.286 651.504 343.286 653.915C343.286 655.588 342.059 657.151 340.508 657.43V657.519C342.695 657.798 344.101 659.338 344.101 661.481C344.101 664.315 342.07 666 338.644 666ZM334.571 651.672V656.838H337.584C339.961 656.838 341.255 655.89 341.255 654.149C341.255 652.553 340.162 651.672 338.209 651.672H334.571ZM334.571 664.226H338.343C340.764 664.226 342.037 663.244 342.037 661.38C342.037 659.516 340.72 658.568 338.153 658.568H334.571V664.226ZM346.177 666V649.897H348.118V656.247H348.163C348.81 654.952 350.082 654.194 351.845 654.194C354.39 654.194 355.93 655.912 355.93 658.501V666H353.988V658.858C353.988 657.017 353.062 655.912 351.243 655.912C349.312 655.912 348.118 657.229 348.118 659.237V666H346.177ZM358.496 666V654.394H360.438V666H358.496ZM359.467 652.442C358.809 652.442 358.262 651.895 358.262 651.236C358.262 650.567 358.809 650.031 359.467 650.031C360.137 650.031 360.684 650.567 360.684 651.236C360.684 651.895 360.137 652.442 359.467 652.442ZM363.061 666V654.394H364.891V656.247H364.935C365.482 655.019 366.665 654.194 368.227 654.194C369.812 654.194 370.984 654.997 371.486 656.403H371.53C372.178 655.019 373.539 654.194 375.168 654.194C377.467 654.194 378.951 655.689 378.951 657.988V666H377.01V658.434C377.01 656.849 376.128 655.912 374.599 655.912C373.059 655.912 371.977 657.05 371.977 658.624V666H370.035V658.222C370.035 656.827 369.098 655.912 367.658 655.912C366.118 655.912 365.002 657.117 365.002 658.724V666H363.061ZM388.426 666H386.417V649.897H388.426V657.753H388.537L395.646 649.897H398.179L391.561 657.028L398.77 666H396.204L390.166 658.456L388.426 660.376V666ZM403.669 664.549C405.499 664.549 406.905 663.266 406.905 661.592V660.644L403.803 660.833C402.241 660.934 401.348 661.626 401.348 662.719C401.348 663.824 402.274 664.549 403.669 664.549ZM403.234 666.201C400.924 666.201 399.373 664.806 399.373 662.719C399.373 660.733 400.902 659.483 403.58 659.327L406.905 659.137V658.166C406.905 656.749 405.968 655.901 404.361 655.901C402.866 655.901 401.928 656.604 401.683 657.742H399.808C399.942 655.733 401.66 654.194 404.406 654.194C407.128 654.194 408.847 655.667 408.847 657.976V666H407.006V664.002H406.961C406.269 665.33 404.796 666.201 403.234 666.201ZM411.414 666V649.897H413.355V666H411.414ZM416.078 666V654.394H418.02V666H416.078ZM417.049 652.442C416.391 652.442 415.844 651.895 415.844 651.236C415.844 650.567 416.391 650.031 417.049 650.031C417.719 650.031 418.265 650.567 418.265 651.236C418.265 651.895 417.719 652.442 417.049 652.442ZM431.712 666H429.704V651.705H424.626V649.897H436.79V651.705H431.712V666ZM440.249 655.879C438.43 655.879 437.158 657.273 437.035 659.204H443.34C443.296 657.262 442.079 655.879 440.249 655.879ZM443.296 662.675H445.204C444.869 664.706 442.905 666.201 440.372 666.201C437.046 666.201 435.027 663.891 435.027 660.242C435.027 656.637 437.08 654.194 440.283 654.194C443.418 654.194 445.349 656.47 445.349 659.985V660.722H437.024V660.833C437.024 663.054 438.33 664.516 440.416 664.516C441.89 664.516 442.972 663.768 443.296 662.675ZM447.313 666V654.394H449.143V656.247H449.188C449.734 655.019 450.917 654.194 452.48 654.194C454.064 654.194 455.236 654.997 455.738 656.403H455.783C456.43 655.019 457.791 654.194 459.421 654.194C461.72 654.194 463.204 655.689 463.204 657.988V666H461.262V658.434C461.262 656.849 460.38 655.912 458.852 655.912C457.312 655.912 456.229 657.05 456.229 658.624V666H454.287V658.222C454.287 656.827 453.35 655.912 451.911 655.912C450.371 655.912 449.255 657.117 449.255 658.724V666H447.313ZM471.316 654.194C474.274 654.194 476.282 656.559 476.282 660.197C476.282 663.835 474.285 666.201 471.361 666.201C469.698 666.201 468.359 665.386 467.667 664.114H467.623V669.872H465.681V654.394H467.522V656.358H467.567C468.281 655.053 469.631 654.194 471.316 654.194ZM470.937 664.494C473.002 664.494 474.296 662.831 474.296 660.197C474.296 657.575 473.002 655.901 470.937 655.901C468.951 655.901 467.612 657.619 467.612 660.197C467.612 662.786 468.951 664.494 470.937 664.494ZM478.347 666V649.897H480.289V666H478.347ZM487.564 655.879C485.745 655.879 484.473 657.273 484.35 659.204H490.655C490.611 657.262 489.394 655.879 487.564 655.879ZM490.611 662.675H492.519C492.184 664.706 490.22 666.201 487.687 666.201C484.362 666.201 482.342 663.891 482.342 660.242C482.342 656.637 484.395 654.194 487.598 654.194C490.734 654.194 492.664 656.47 492.664 659.985V660.722H484.339V660.833C484.339 663.054 485.645 664.516 487.732 664.516C489.205 664.516 490.287 663.768 490.611 662.675Z" fill="black"/>

<path id="Mahu Nag Temple" d="M485.221 91.5456V72.5722C483.424 72.1229 481.938 71.1725 480.763 69.721C479.588 68.2694 479 66.576 479 64.6406H483.147C483.147 65.7466 483.554 66.7059 484.366 67.5188C485.179 68.3316 486.138 68.7374 487.243 68.736H489.368V64.2778C487.571 63.8285 486.085 62.8781 484.91 61.4266C483.735 59.975 483.147 58.2816 483.147 56.3462H487.294C487.294 57.4522 487.701 58.4109 488.514 59.2223C489.327 60.0338 490.285 60.4402 491.39 60.4416H492.478L501.81 48L511.141 60.4416H512.229C513.335 60.4416 514.295 60.0359 515.108 59.2244C515.92 58.4129 516.326 57.4535 516.325 56.3462H520.472C520.472 58.2816 519.884 59.975 518.709 61.4266C517.534 62.8781 516.048 63.8285 514.251 64.2778V68.736H516.377C517.483 68.736 518.442 68.3303 519.255 67.5188C520.068 66.7073 520.473 65.7479 520.472 64.6406H524.619C524.619 66.576 524.032 68.2694 522.857 69.721C521.682 71.1725 520.196 72.1229 518.398 72.5722V91.5456H503.883V83.2512C503.883 82.6637 503.684 82.1715 503.286 81.7748C502.888 81.378 502.396 81.179 501.81 81.1776C501.223 81.1762 500.731 81.3753 500.333 81.7748C499.935 82.1743 499.736 82.6664 499.736 83.2512V91.5456H485.221ZM497.662 60.4416H505.957L501.81 54.8947L497.662 60.4416ZM493.515 68.736H510.104V64.5888H493.515V68.736ZM489.368 87.3984H495.589V83.2512C495.589 81.5232 496.194 80.0544 497.403 78.8448C498.613 77.6352 500.082 77.0304 501.81 77.0304C503.538 77.0304 505.006 77.6352 506.216 78.8448C507.426 80.0544 508.03 81.5232 508.03 83.2512V87.3984H514.251V72.8832H489.368V87.3984Z" fill="url(#paint3_linear_112_1590)"/>
<path id="Mahu Nag Temple" d="M462.522 71.2613C462.522 72.3115 462.104 73.3188 461.362 74.0614C460.619 74.8041 459.612 75.2213 458.562 75.2213C457.511 75.2213 456.504 74.8041 455.761 74.0614C455.019 73.3188 454.602 72.3115 454.602 71.2613C454.602 70.211 455.019 69.2038 455.761 68.4611C456.504 67.7185 457.511 67.3013 458.562 67.3013C459.612 67.3013 460.619 67.7185 461.362 68.4611C462.104 69.2038 462.522 70.211 462.522 71.2613Z" fill="black"/>
<path id="Mahu Nag Temple" d="M445.889 71.2599C445.889 71.2599 450.641 62.5479 458.561 62.5479C466.481 62.5479 471.233 71.2599 471.233 71.2599C471.233 71.2599 466.481 79.9719 458.561 79.9719C450.641 79.9719 445.889 71.2599 445.889 71.2599ZM458.561 76.8039C460.031 76.8039 461.441 76.2198 462.481 75.1801C463.521 74.1403 464.105 72.7302 464.105 71.2599C464.105 69.7895 463.521 68.3794 462.481 67.3397C461.441 66.3 460.031 65.7159 458.561 65.7159C457.09 65.7159 455.68 66.3 454.64 67.3397C453.601 68.3794 453.017 69.7895 453.017 71.2599C453.017 72.7302 453.601 74.1403 454.64 75.1801C455.68 76.2198 457.09 76.8039 458.561 76.8039Z" fill="black"/>
<path id="Mahu Nag Temple" d="M434.431 22H432.556V9.59091H432.478L427.345 21.8884H425.648L420.515 9.59091H420.437V22H418.562V5.8972H420.895L426.452 19.3329H426.541L432.098 5.8972H434.431V22ZM440.747 20.5493C442.577 20.5493 443.983 19.266 443.983 17.5921V16.6436L440.881 16.8333C439.319 16.9337 438.426 17.6256 438.426 18.7192C438.426 19.8239 439.352 20.5493 440.747 20.5493ZM440.312 22.2009C438.002 22.2009 436.451 20.806 436.451 18.7192C436.451 16.7328 437.979 15.483 440.658 15.3268L443.983 15.1371V14.1662C443.983 12.749 443.046 11.9009 441.439 11.9009C439.943 11.9009 439.006 12.6039 438.761 13.7422H436.886C437.02 11.7335 438.738 10.1935 441.483 10.1935C444.206 10.1935 445.925 11.6665 445.925 13.9765V22H444.084V20.0025H444.039C443.347 21.3304 441.874 22.2009 440.312 22.2009ZM448.491 22V5.8972H450.433V12.2468H450.478C451.125 10.9523 452.397 10.1935 454.16 10.1935C456.705 10.1935 458.245 11.912 458.245 14.501V22H456.303V14.8581C456.303 13.0168 455.377 11.912 453.558 11.912C451.627 11.912 450.433 13.2288 450.433 15.2375V22H448.491ZM470.241 10.3944V22H468.4V20.1141H468.355C467.663 21.4532 466.458 22.2009 464.672 22.2009C462.139 22.2009 460.655 20.5605 460.655 17.9269V10.3944H462.597V17.5809C462.597 19.4668 463.478 20.4823 465.275 20.4823C467.161 20.4823 468.299 19.1879 468.299 17.2127V10.3944H470.241ZM479.737 22H477.751V5.8972H479.704L488.52 18.5406H488.62V5.8972H490.606V22H488.654L479.838 9.4012H479.737V22ZM496.923 20.5493C498.753 20.5493 500.159 19.266 500.159 17.5921V16.6436L497.056 16.8333C495.494 16.9337 494.601 17.6256 494.601 18.7192C494.601 19.8239 495.528 20.5493 496.923 20.5493ZM496.487 22.2009C494.177 22.2009 492.626 20.806 492.626 18.7192C492.626 16.7328 494.155 15.483 496.833 15.3268L500.159 15.1371V14.1662C500.159 12.749 499.221 11.9009 497.614 11.9009C496.119 11.9009 495.182 12.6039 494.936 13.7422H493.061C493.195 11.7335 494.914 10.1935 497.659 10.1935C500.382 10.1935 502.1 11.6665 502.1 13.9765V22H500.259V20.0025H500.215C499.523 21.3304 498.05 22.2009 496.487 22.2009ZM509.287 20.3819C511.307 20.3819 512.657 18.708 512.657 16.1526C512.657 13.5971 511.307 11.9009 509.287 11.9009C507.29 11.9009 505.984 13.5524 505.984 16.1526C505.984 18.7527 507.29 20.3819 509.287 20.3819ZM509.354 26.3744C506.799 26.3744 504.779 24.9349 504.455 22.9597H506.453C506.832 24.0198 507.981 24.7229 509.432 24.7229C511.441 24.7229 512.657 23.5623 512.657 21.8326V20.0025H512.612C511.898 21.2635 510.526 22.0893 508.896 22.0893C505.939 22.0893 503.998 19.757 503.998 16.1526C503.998 12.5146 505.939 10.1935 508.941 10.1935C510.582 10.1935 511.943 10.997 512.713 12.3472H512.746V10.3944H514.599V21.7657C514.599 24.5332 512.557 26.3744 509.354 26.3744ZM528.202 22H526.193V7.705H521.116V5.8972H533.279V7.705H528.202V22ZM536.739 11.8786C534.92 11.8786 533.648 13.2735 533.525 15.204H539.83C539.785 13.2623 538.569 11.8786 536.739 11.8786ZM539.785 18.6745H541.694C541.359 20.7055 539.395 22.2009 536.862 22.2009C533.536 22.2009 531.516 19.8909 531.516 16.2418C531.516 12.6374 533.57 10.1935 536.772 10.1935C539.908 10.1935 541.839 12.47 541.839 15.9852V16.7217H533.514V16.8333C533.514 19.054 534.819 20.5158 536.906 20.5158C538.379 20.5158 539.462 19.7681 539.785 18.6745ZM543.803 22V10.3944H545.633V12.2468H545.677C546.224 11.0193 547.407 10.1935 548.969 10.1935C550.554 10.1935 551.726 10.997 552.228 12.403H552.272C552.92 11.0193 554.281 10.1935 555.91 10.1935C558.209 10.1935 559.693 11.6888 559.693 13.9877V22H557.752V14.434C557.752 12.8494 556.87 11.912 555.341 11.912C553.801 11.912 552.719 13.0503 552.719 14.6237V22H550.777V14.222C550.777 12.8271 549.84 11.912 548.4 11.912C546.86 11.912 545.744 13.1172 545.744 14.7242V22H543.803ZM567.806 10.1935C570.763 10.1935 572.772 12.5593 572.772 16.1972C572.772 19.8351 570.775 22.2009 567.851 22.2009C566.188 22.2009 564.849 21.3862 564.157 20.1141H564.112V25.8723H562.171V10.3944H564.012V12.3584H564.057C564.771 11.0528 566.121 10.1935 567.806 10.1935ZM567.427 20.4935C569.491 20.4935 570.786 18.8308 570.786 16.1972C570.786 13.5748 569.491 11.9009 567.427 11.9009C565.44 11.9009 564.101 13.6194 564.101 16.1972C564.101 18.7861 565.44 20.4935 567.427 20.4935ZM574.836 22V5.8972H576.778V22H574.836ZM584.054 11.8786C582.235 11.8786 580.963 13.2735 580.84 15.204H587.145C587.101 13.2623 585.884 11.8786 584.054 11.8786ZM587.101 18.6745H589.009C588.674 20.7055 586.71 22.2009 584.177 22.2009C580.851 22.2009 578.832 19.8909 578.832 16.2418C578.832 12.6374 580.885 10.1935 584.088 10.1935C587.223 10.1935 589.154 12.47 589.154 15.9852V16.7217H580.829V16.8333C580.829 19.054 582.135 20.5158 584.221 20.5158C585.694 20.5158 586.777 19.7681 587.101 18.6745Z" fill="black"/>

<path id="Hatu Mata Temple" d="M699.221 389.546V370.572C697.424 370.123 695.938 369.172 694.763 367.721C693.588 366.269 693 364.576 693 362.641H697.147C697.147 363.747 697.554 364.706 698.366 365.519C699.179 366.332 700.138 366.737 701.243 366.736H703.368V362.278C701.571 361.828 700.085 360.878 698.91 359.427C697.735 357.975 697.147 356.282 697.147 354.346H701.294C701.294 355.452 701.701 356.411 702.514 357.222C703.327 358.034 704.285 358.44 705.39 358.442H706.478L715.81 346L725.141 358.442H726.229C727.335 358.442 728.295 358.036 729.108 357.224C729.92 356.413 730.326 355.454 730.325 354.346H734.472C734.472 356.282 733.884 357.975 732.709 359.427C731.534 360.878 730.048 361.828 728.251 362.278V366.736H730.377C731.483 366.736 732.442 366.33 733.255 365.519C734.068 364.707 734.473 363.748 734.472 362.641H738.619C738.619 364.576 738.032 366.269 736.857 367.721C735.682 369.172 734.196 370.123 732.398 370.572V389.546H717.883V381.251C717.883 380.664 717.684 380.172 717.286 379.775C716.888 379.378 716.396 379.179 715.81 379.178C715.223 379.176 714.731 379.375 714.333 379.775C713.935 380.174 713.736 380.666 713.736 381.251V389.546H699.221ZM711.662 358.442H719.957L715.81 352.895L711.662 358.442ZM707.515 366.736H724.104V362.589H707.515V366.736ZM703.368 385.398H709.589V381.251C709.589 379.523 710.194 378.054 711.403 376.845C712.613 375.635 714.082 375.03 715.81 375.03C717.538 375.03 719.006 375.635 720.216 376.845C721.426 378.054 722.03 379.523 722.03 381.251V385.398H728.251V370.883H703.368V385.398Z" fill="url(#paint4_linear_112_1590)"/>
<path id="Hatu Mata Temple" d="M676.522 369.261C676.522 370.312 676.104 371.319 675.362 372.061C674.619 372.804 673.612 373.221 672.562 373.221C671.511 373.221 670.504 372.804 669.761 372.061C669.019 371.319 668.602 370.312 668.602 369.261C668.602 368.211 669.019 367.204 669.761 366.461C670.504 365.718 671.511 365.301 672.562 365.301C673.612 365.301 674.619 365.718 675.362 366.461C676.104 367.204 676.522 368.211 676.522 369.261Z" fill="black"/>
<path id="Hatu Mata Temple" d="M659.889 369.26C659.889 369.26 664.641 360.548 672.561 360.548C680.481 360.548 685.233 369.26 685.233 369.26C685.233 369.26 680.481 377.972 672.561 377.972C664.641 377.972 659.889 369.26 659.889 369.26ZM672.561 374.804C674.031 374.804 675.441 374.22 676.481 373.18C677.521 372.14 678.105 370.73 678.105 369.26C678.105 367.789 677.521 366.379 676.481 365.34C675.441 364.3 674.031 363.716 672.561 363.716C671.09 363.716 669.68 364.3 668.64 365.34C667.601 366.379 667.017 367.789 667.017 369.26C667.017 370.73 667.601 372.14 668.64 373.18C669.68 374.22 671.09 374.804 672.561 374.804Z" fill="black"/>
<path id="Hatu Mata Temple" d="M627.418 340H625.409V332.668H616.571V340H614.562V323.897H616.571V330.861H625.409V323.897H627.418V340ZM633.734 338.549C635.564 338.549 636.97 337.266 636.97 335.592V334.644L633.868 334.833C632.306 334.934 631.413 335.626 631.413 336.719C631.413 337.824 632.339 338.549 633.734 338.549ZM633.299 340.201C630.989 340.201 629.438 338.806 629.438 336.719C629.438 334.733 630.966 333.483 633.645 333.327L636.97 333.137V332.166C636.97 330.749 636.033 329.901 634.426 329.901C632.93 329.901 631.993 330.604 631.748 331.742H629.873C630.007 329.733 631.725 328.194 634.47 328.194C637.193 328.194 638.912 329.667 638.912 331.976V340H637.071V338.002H637.026C636.334 339.33 634.861 340.201 633.299 340.201ZM642.003 325.593H643.945V328.394H646.199V329.99H643.945V336.887C643.945 337.947 644.391 338.427 645.384 338.427C645.607 338.427 646.054 338.393 646.188 338.371V340C645.953 340.056 645.418 340.089 644.96 340.089C642.829 340.089 642.003 339.219 642.003 336.987V329.99H640.273V328.394H642.003V325.593ZM657.804 328.394V340H655.963V338.114H655.918C655.227 339.453 654.021 340.201 652.236 340.201C649.703 340.201 648.219 338.56 648.219 335.927V328.394H650.16V335.581C650.16 337.467 651.042 338.482 652.839 338.482C654.724 338.482 655.863 337.188 655.863 335.213V328.394H657.804ZM681.183 340H679.308V327.591H679.23L674.097 339.888H672.401L667.267 327.591H667.189V340H665.315V323.897H667.647L673.204 337.333H673.293L678.851 323.897H681.183V340ZM687.499 338.549C689.329 338.549 690.735 337.266 690.735 335.592V334.644L687.633 334.833C686.071 334.934 685.178 335.626 685.178 336.719C685.178 337.824 686.104 338.549 687.499 338.549ZM687.064 340.201C684.754 340.201 683.203 338.806 683.203 336.719C683.203 334.733 684.732 333.483 687.41 333.327L690.735 333.137V332.166C690.735 330.749 689.798 329.901 688.191 329.901C686.696 329.901 685.758 330.604 685.513 331.742H683.638C683.772 329.733 685.491 328.194 688.236 328.194C690.959 328.194 692.677 329.667 692.677 331.976V340H690.836V338.002H690.791C690.099 339.33 688.626 340.201 687.064 340.201ZM695.768 325.593H697.71V328.394H699.964V329.99H697.71V336.887C697.71 337.947 698.156 338.427 699.149 338.427C699.373 338.427 699.819 338.393 699.953 338.371V340C699.719 340.056 699.183 340.089 698.725 340.089C696.594 340.089 695.768 339.219 695.768 336.987V329.99H694.039V328.394H695.768V325.593ZM705.644 338.549C707.474 338.549 708.88 337.266 708.88 335.592V334.644L705.778 334.833C704.216 334.934 703.323 335.626 703.323 336.719C703.323 337.824 704.249 338.549 705.644 338.549ZM705.209 340.201C702.899 340.201 701.348 338.806 701.348 336.719C701.348 334.733 702.877 333.483 705.555 333.327L708.88 333.137V332.166C708.88 330.749 707.943 329.901 706.336 329.901C704.841 329.901 703.903 330.604 703.658 331.742H701.783C701.917 329.733 703.635 328.194 706.381 328.194C709.104 328.194 710.822 329.667 710.822 331.976V340H708.981V338.002H708.936C708.244 339.33 706.771 340.201 705.209 340.201ZM718.6 325.593H720.542V328.394H722.796V329.99H720.542V336.887C720.542 337.947 720.988 338.427 721.981 338.427C722.204 338.427 722.651 338.393 722.785 338.371V340C722.55 340.056 722.015 340.089 721.557 340.089C719.426 340.089 718.6 339.219 718.6 336.987V329.99H716.87V328.394H718.6V325.593ZM729.19 329.879C727.371 329.879 726.099 331.273 725.976 333.204H732.281C732.237 331.262 731.02 329.879 729.19 329.879ZM732.237 336.675H734.145C733.81 338.706 731.846 340.201 729.313 340.201C725.987 340.201 723.968 337.891 723.968 334.242C723.968 330.637 726.021 328.194 729.224 328.194C732.359 328.194 734.29 330.47 734.29 333.985V334.722H725.965V334.833C725.965 337.054 727.271 338.516 729.358 338.516C730.831 338.516 731.913 337.768 732.237 336.675ZM736.254 340V328.394H738.084V330.247H738.129C738.676 329.019 739.858 328.194 741.421 328.194C743.005 328.194 744.177 328.997 744.679 330.403H744.724C745.371 329.019 746.733 328.194 748.362 328.194C750.661 328.194 752.145 329.689 752.145 331.988V340H750.203V332.434C750.203 330.849 749.321 329.912 747.793 329.912C746.253 329.912 745.17 331.05 745.17 332.624V340H743.228V332.222C743.228 330.827 742.291 329.912 740.852 329.912C739.312 329.912 738.196 331.117 738.196 332.724V340H736.254ZM760.258 328.194C763.215 328.194 765.223 330.559 765.223 334.197C765.223 337.835 763.226 340.201 760.302 340.201C758.639 340.201 757.3 339.386 756.608 338.114H756.564V343.872H754.622V328.394H756.463V330.358H756.508C757.222 329.053 758.572 328.194 760.258 328.194ZM759.878 338.494C761.943 338.494 763.237 336.831 763.237 334.197C763.237 331.575 761.943 329.901 759.878 329.901C757.892 329.901 756.553 331.619 756.553 334.197C756.553 336.786 757.892 338.494 759.878 338.494ZM767.288 340V323.897H769.23V340H767.288ZM776.505 329.879C774.686 329.879 773.414 331.273 773.292 333.204H779.597C779.552 331.262 778.336 329.879 776.505 329.879ZM779.552 336.675H781.46C781.125 338.706 779.161 340.201 776.628 340.201C773.303 340.201 771.283 337.891 771.283 334.242C771.283 330.637 773.336 328.194 776.539 328.194C779.675 328.194 781.605 330.47 781.605 333.985V334.722H773.28V334.833C773.28 337.054 774.586 338.516 776.673 338.516C778.146 338.516 779.228 337.768 779.552 336.675Z" fill="black"/>

<path id="Jakhu Temple" d="M479.221 546.546V527.572C477.424 527.123 475.938 526.172 474.763 524.721C473.588 523.269 473 521.576 473 519.641H477.147C477.147 520.747 477.554 521.706 478.366 522.519C479.179 523.332 480.138 523.737 481.243 523.736H483.368V519.278C481.571 518.828 480.085 517.878 478.91 516.427C477.735 514.975 477.147 513.282 477.147 511.346H481.294C481.294 512.452 481.701 513.411 482.514 514.222C483.327 515.034 484.285 515.44 485.39 515.442H486.478L495.81 503L505.141 515.442H506.229C507.335 515.442 508.295 515.036 509.108 514.224C509.92 513.413 510.326 512.454 510.325 511.346H514.472C514.472 513.282 513.884 514.975 512.709 516.427C511.534 517.878 510.048 518.828 508.251 519.278V523.736H510.377C511.483 523.736 512.442 523.33 513.255 522.519C514.068 521.707 514.473 520.748 514.472 519.641H518.619C518.619 521.576 518.032 523.269 516.857 524.721C515.682 526.172 514.196 527.123 512.398 527.572V546.546H497.883V538.251C497.883 537.664 497.684 537.172 497.286 536.775C496.888 536.378 496.396 536.179 495.81 536.178C495.223 536.176 494.731 536.375 494.333 536.775C493.935 537.174 493.736 537.666 493.736 538.251V546.546H479.221ZM491.662 515.442H499.957L495.81 509.895L491.662 515.442ZM487.515 523.736H504.104V519.589H487.515V523.736ZM483.368 542.398H489.589V538.251C489.589 536.523 490.194 535.054 491.403 533.845C492.613 532.635 494.082 532.03 495.81 532.03C497.538 532.03 499.006 532.635 500.216 533.845C501.426 535.054 502.03 536.523 502.03 538.251V542.398H508.251V527.883H483.368V542.398Z" fill="url(#paint5_linear_112_1590)"/>
<path id="Jakhu Temple" d="M456.522 526.261C456.522 527.312 456.104 528.319 455.362 529.061C454.619 529.804 453.612 530.221 452.562 530.221C451.511 530.221 450.504 529.804 449.761 529.061C449.019 528.319 448.602 527.312 448.602 526.261C448.602 525.211 449.019 524.204 449.761 523.461C450.504 522.718 451.511 522.301 452.562 522.301C453.612 522.301 454.619 522.718 455.362 523.461C456.104 524.204 456.522 525.211 456.522 526.261Z" fill="black"/>
<path id="Jakhu Temple" d="M439.889 526.26C439.889 526.26 444.641 517.548 452.561 517.548C460.481 517.548 465.233 526.26 465.233 526.26C465.233 526.26 460.481 534.972 452.561 534.972C444.641 534.972 439.889 526.26 439.889 526.26ZM452.561 531.804C454.031 531.804 455.441 531.22 456.481 530.18C457.521 529.14 458.105 527.73 458.105 526.26C458.105 524.789 457.521 523.379 456.481 522.34C455.441 521.3 454.031 520.716 452.561 520.716C451.09 520.716 449.68 521.3 448.64 522.34C447.601 523.379 447.017 524.789 447.017 526.26C447.017 527.73 447.601 529.14 448.64 530.18C449.68 531.22 451.09 531.804 452.561 531.804Z" fill="black"/>
<path id="Jakhu Temple" d="M424.469 493.217H426.466C426.511 494.578 427.549 495.527 429.011 495.527C430.785 495.527 431.745 494.467 431.745 492.503V480.897H433.753V492.514C433.753 495.572 431.99 497.379 429.022 497.379C426.343 497.379 424.469 495.661 424.469 493.217ZM440.404 495.549C442.234 495.549 443.64 494.266 443.64 492.592V491.644L440.538 491.833C438.976 491.934 438.083 492.626 438.083 493.719C438.083 494.824 439.009 495.549 440.404 495.549ZM439.969 497.201C437.659 497.201 436.108 495.806 436.108 493.719C436.108 491.733 437.637 490.483 440.315 490.327L443.64 490.137V489.166C443.64 487.749 442.703 486.901 441.096 486.901C439.601 486.901 438.663 487.604 438.418 488.742H436.543C436.677 486.733 438.395 485.194 441.141 485.194C443.863 485.194 445.582 486.667 445.582 488.976V497H443.741V495.002H443.696C443.004 496.33 441.531 497.201 439.969 497.201ZM450.09 490.55L455.224 485.394H457.578L452.545 490.405L457.734 497H455.48L451.173 491.599L450.09 492.626V497H448.149V480.897H450.09V490.55ZM459.241 497V480.897H461.183V487.247H461.227C461.875 485.952 463.147 485.194 464.91 485.194C467.454 485.194 468.994 486.912 468.994 489.501V497H467.052V489.858C467.052 488.017 466.126 486.912 464.307 486.912C462.377 486.912 461.183 488.229 461.183 490.237V497H459.241ZM480.99 485.394V497H479.149V495.114H479.104C478.413 496.453 477.207 497.201 475.422 497.201C472.889 497.201 471.405 495.56 471.405 492.927V485.394H473.346V492.581C473.346 494.467 474.228 495.482 476.024 495.482C477.91 495.482 479.049 494.188 479.049 492.213V485.394H480.99ZM494.582 497H492.574V482.705H487.496V480.897H499.66V482.705H494.582V497ZM503.119 486.879C501.3 486.879 500.028 488.273 499.905 490.204H506.21C506.166 488.262 504.949 486.879 503.119 486.879ZM506.166 493.675H508.074C507.739 495.706 505.775 497.201 503.242 497.201C499.916 497.201 497.897 494.891 497.897 491.242C497.897 487.637 499.95 485.194 503.153 485.194C506.288 485.194 508.219 487.47 508.219 490.985V491.722H499.894V491.833C499.894 494.054 501.2 495.516 503.286 495.516C504.76 495.516 505.842 494.768 506.166 493.675ZM510.183 497V485.394H512.013V487.247H512.058C512.604 486.019 513.787 485.194 515.35 485.194C516.934 485.194 518.106 485.997 518.608 487.403H518.653C519.3 486.019 520.661 485.194 522.291 485.194C524.59 485.194 526.074 486.689 526.074 488.988V497H524.132V489.434C524.132 487.849 523.25 486.912 521.722 486.912C520.182 486.912 519.099 488.05 519.099 489.624V497H517.157V489.222C517.157 487.827 516.22 486.912 514.781 486.912C513.241 486.912 512.125 488.117 512.125 489.724V497H510.183ZM534.186 485.194C537.144 485.194 539.152 487.559 539.152 491.197C539.152 494.835 537.155 497.201 534.231 497.201C532.568 497.201 531.229 496.386 530.537 495.114H530.493V500.872H528.551V485.394H530.392V487.358H530.437C531.151 486.053 532.501 485.194 534.186 485.194ZM533.807 495.494C535.872 495.494 537.166 493.831 537.166 491.197C537.166 488.575 535.872 486.901 533.807 486.901C531.821 486.901 530.482 488.619 530.482 491.197C530.482 493.786 531.821 495.494 533.807 495.494ZM541.217 497V480.897H543.159V497H541.217ZM550.434 486.879C548.615 486.879 547.343 488.273 547.22 490.204H553.525C553.481 488.262 552.264 486.879 550.434 486.879ZM553.481 493.675H555.389C555.054 495.706 553.09 497.201 550.557 497.201C547.232 497.201 545.212 494.891 545.212 491.242C545.212 487.637 547.265 485.194 550.468 485.194C553.604 485.194 555.534 487.47 555.534 490.985V491.722H547.209V491.833C547.209 494.054 548.515 495.516 550.602 495.516C552.075 495.516 553.157 494.768 553.481 493.675Z" fill="black"/>
</g>
<defs>
<filter id="filter0_d_112_1590" x="0.504297" y="5.49722" width="868.937" height="770.803" filterUnits="userSpaceOnUse" color-interpolation-filters="sRGB">
<feFlood flood-opacity="0" result="BackgroundImageFix"/>
<feColorMatrix in="SourceAlpha" type="matrix" values="0 0 0 0 0 0 0 0 0 0 0 0 0 0 0 0 0 0 127 0" result="hardAlpha"/>
<feOffset dx="-10" dy="8"/>
<feGaussianBlur stdDeviation="4.2"/>
<feComposite in2="hardAlpha" operator="out"/>
<feColorMatrix type="matrix" values="0 0 0 0 0 0 0 0 0 0 0 0 0 0 0 0 0 0 0.44 0"/>
<feBlend mode="normal" in2="BackgroundImageFix" result="effect1_dropShadow_112_1590"/>
<feBlend mode="normal" in="SourceGraphic" in2="effect1_dropShadow_112_1590" result="shape"/>
</filter>
<linearGradient id="paint0_linear_112_1590" x1="424.302" y1="329.629" x2="453.302" y2="293.629" gradientUnits="userSpaceOnUse">
<stop offset="0.373333" stop-color="#006B78"/>
<stop offset="1" stop-color="#2ADB87"/>
</linearGradient>
<linearGradient id="paint1_linear_112_1590" x1="131.302" y1="493.629" x2="160.302" y2="457.629" gradientUnits="userSpaceOnUse">
<stop offset="0.373333" stop-color="#006B78"/>
<stop offset="1" stop-color="#2ADB87"/>
</linearGradient>
<linearGradient id="paint2_linear_112_1590" x1="400.302" y1="717.629" x2="429.302" y2="681.629" gradientUnits="userSpaceOnUse">
<stop offset="0.373333" stop-color="#006B78"/>
<stop offset="1" stop-color="#2ADB87"/>
</linearGradient>
<linearGradient id="paint3_linear_112_1590" x1="486.302" y1="92.6289" x2="515.302" y2="56.6289" gradientUnits="userSpaceOnUse">
<stop offset="0.373333" stop-color="#006B78"/>
<stop offset="1" stop-color="#2ADB87"/>
</linearGradient>
<linearGradient id="paint4_linear_112_1590" x1="700.302" y1="390.629" x2="729.302" y2="354.629" gradientUnits="userSpaceOnUse">
<stop offset="0.373333" stop-color="#006B78"/>
<stop offset="1" stop-color="#2ADB87"/>
</linearGradient>
<linearGradient id="paint5_linear_112_1590" x1="480.302" y1="547.629" x2="509.302" y2="511.629" gradientUnits="userSpaceOnUse">
<stop offset="0.373333" stop-color="#006B78"/>
<stop offset="1" stop-color="#2ADB87"/>
</linearGradient>
</defs>
</svg>
